<?xml version="1.0" encoding="utf-8"?>
<!-- Generator: Adobe Illustrator 23.0.3, SVG Export Plug-In . SVG Version: 6.00 Build 0)  -->
<svg version="1.1" id="Layer_1" xmlns="http://www.w3.org/2000/svg" xmlns:xlink="http://www.w3.org/1999/xlink" x="0px" y="0px"
	 viewBox="0 0 300 100" style="enable-background:new 0 0 300 100;" xml:space="preserve">
<style type="text/css">
	.st0{fill:url(#SVGID_1_);}
	.st1{fill:#FFFFFF;}
</style>
<g>
	<linearGradient id="SVGID_1_" gradientUnits="userSpaceOnUse" x1="-9.105" y1="129.0257" x2="297.1224" y2="-23.0741">
		<stop  offset="0" style="stop-color:#9394FF"/>
		<stop  offset="0.1837" style="stop-color:#8F95FF"/>
		<stop  offset="0.3732" style="stop-color:#8298FE"/>
		<stop  offset="0.5655" style="stop-color:#6E9CFC"/>
		<stop  offset="0.7596" style="stop-color:#51A3FA"/>
		<stop  offset="0.9535" style="stop-color:#2CABF7"/>
		<stop  offset="1" style="stop-color:#22ADF6"/>
	</linearGradient>
	<rect x="-1" y="-1" class="st0" width="302" height="102"/>
</g>
<g>
	<path class="st1" d="M94.8,43.4H96l-1.6,9.3h-1.2L94.8,43.4z"/>
	<path class="st1" d="M105.8,47.5c0-0.1,0-0.2,0-0.2c0-0.3-0.1-0.4-0.5-0.4c-0.7,0-1.8,0.5-2.6,1l-0.8,4.8h-1.2l0.9-5.2
		c0-0.1,0-0.2,0-0.2c0-0.3-0.1-0.4-0.5-0.4c-0.7,0-1.7,0.5-2.6,1l-0.8,4.8h-1.2l1.2-6.7l1-0.2l-0.1,1c0.7-0.5,2.1-1,2.9-1
		c0.8,0,1.2,0.4,1.2,1c0.7-0.5,2.1-1,2.9-1c0.8,0,1.2,0.5,1.2,1.2c0,0.2,0,0.4-0.1,0.6l-0.9,5.2h-1.2L105.8,47.5z"/>
	<path class="st1" d="M113.2,52.7h-0.9l0-0.8c-0.8,0.7-1.7,1-2.6,1c-1.1,0-1.4-0.6-1.4-1.4c0-0.2,0-0.3,0.1-0.5l0.5-2.7
		c0.3-1.7,0.9-2.5,3.1-2.5c0.8,0,1.8,0.2,2.4,0.5L113.2,52.7z M113.1,46.9c-0.4-0.1-0.8-0.2-1.3-0.2c-1.1,0-1.6,0.3-1.8,1.7
		l-0.4,2.5c0,0.2-0.1,0.3-0.1,0.5c0,0.3,0.1,0.5,0.6,0.5c0.8,0,1.6-0.5,2.4-1.2L113.1,46.9z"/>
	<path class="st1" d="M120.2,53.8c-0.2,1.4-0.8,1.9-2.4,1.9c-0.9,0-2.1-0.3-2.8-0.6l0.2-0.9c0.9,0.3,1.8,0.5,2.6,0.5
		c0.9,0,1.1-0.3,1.2-1l0.3-2c-0.8,0.6-1.6,0.9-2.5,0.9c-1.1,0-1.4-0.6-1.4-1.4c0-0.2,0-0.3,0.1-0.5l0.4-2.4c0.3-1.7,1-2.5,3.1-2.5
		c0.7,0,1.7,0.2,2.4,0.5L120.2,53.8z M120.3,47c-0.4-0.1-0.9-0.2-1.4-0.2c-1.1,0-1.6,0.3-1.8,1.7l-0.4,2.2c0,0.2-0.1,0.3-0.1,0.5
		c0,0.3,0.1,0.5,0.6,0.5c0.7,0,1.7-0.5,2.4-1.1L120.3,47z"/>
	<path class="st1" d="M123.9,50.9c0,0.2,0,0.2,0,0.3c0,0.4,0.2,0.7,0.9,0.7c0.7,0,1.6-0.3,2.5-0.7l0.2,0.8c-0.9,0.5-1.8,0.8-2.9,0.8
		c-1.4,0-1.9-0.6-1.9-1.6c0-0.2,0-0.4,0.1-0.6l0.4-2.3c0.3-1.7,1.1-2.6,3-2.6c1.1,0,2,0.5,2,1.5c0,1.2-0.5,1.7-2.4,2.4
		c-0.8,0.3-1.1,0.3-1.7,0.5L123.9,50.9z M127.1,47.4c0-0.5-0.3-0.7-0.9-0.7c-1.1,0-1.6,0.4-1.8,1.5l-0.2,0.9
		c0.4-0.1,0.6-0.2,1.3-0.4C126.6,48.4,127.1,48,127.1,47.4z"/>
	<path class="st1" d="M132.3,50.7c0-0.2,0-0.4,0.1-0.7l0.7-4c0.4-2,1.4-2.7,3.6-2.7c0.7,0,1.6,0.1,2.3,0.3l-0.2,1
		c-0.7-0.2-1.6-0.2-2.2-0.2c-1.5,0-2.1,0.4-2.4,1.8l-0.7,3.9c0,0.2-0.1,0.4-0.1,0.6c0,0.8,0.5,1.2,1.8,1.2c0.6,0,1.5-0.1,2.2-0.2
		l0,1c-0.7,0.2-1.7,0.3-2.5,0.3C133.1,52.9,132.3,52,132.3,50.7z"/>
	<path class="st1" d="M139.3,50.3l0.4-2c0.3-1.7,1.2-2.5,3.2-2.5c1.6,0,2.4,0.9,2.4,2c0,0.1,0,0.2,0,0.5l-0.4,2.1
		c-0.3,1.5-1.1,2.5-3.2,2.5C139.7,52.9,139.1,51.8,139.3,50.3z M144.1,48.3c0-0.2,0-0.3,0-0.4c0-0.7-0.4-1.1-1.4-1.1
		c-1.1,0-1.7,0.5-1.9,1.6l-0.4,2c-0.1,0.9,0.1,1.5,1.3,1.5c1.2,0,1.7-0.5,1.9-1.5L144.1,48.3z"/>
	<path class="st1" d="M155.4,47.5c0-0.1,0-0.2,0-0.2c0-0.3-0.1-0.4-0.5-0.4c-0.7,0-1.8,0.5-2.6,1l-0.9,4.8h-1.1l0.9-5.2
		c0-0.1,0-0.2,0-0.2c0-0.3-0.1-0.4-0.5-0.4c-0.7,0-1.7,0.5-2.6,1l-0.9,4.8h-1.1l1.2-6.7l1-0.2l-0.1,1c0.7-0.5,2.1-1,2.9-1
		c0.8,0,1.1,0.4,1.2,1c0.7-0.5,2.1-1,2.9-1c0.9,0,1.2,0.5,1.2,1.2c0,0.2,0,0.4-0.1,0.6l-0.9,5.2h-1.1L155.4,47.5z"/>
	<path class="st1" d="M159,46l1.2-0.2l-1.2,6.9h-1.1L159,46z M159.5,43.1l1.2-0.2l-0.3,1.8l-1.2,0.2L159.5,43.1z"/>
	<path class="st1" d="M167.4,47c0,0.2,0,0.4-0.1,0.6l-0.9,5.2h-1.1l0.9-5.2c0-0.1,0-0.2,0-0.2c0-0.3-0.1-0.4-0.5-0.4
		c-0.7,0-1.7,0.5-2.6,1l-0.9,4.8h-1.1l1.2-6.7l1-0.2l-0.1,1c0.7-0.5,2.1-1,2.9-1C167.1,45.8,167.4,46.2,167.4,47z"/>
	<path class="st1" d="M173.4,53.8c-0.2,1.4-0.8,1.9-2.4,1.9c-0.9,0-2.1-0.3-2.8-0.6l0.2-0.9c0.9,0.3,1.8,0.5,2.6,0.5
		c0.9,0,1.1-0.3,1.2-1l0.4-2c-0.8,0.6-1.6,0.9-2.5,0.9c-1.1,0-1.4-0.6-1.4-1.4c0-0.2,0-0.3,0.1-0.5l0.4-2.4c0.3-1.7,1-2.5,3.1-2.5
		c0.7,0,1.7,0.2,2.4,0.5L173.4,53.8z M173.5,47c-0.4-0.1-0.9-0.2-1.4-0.2c-1.1,0-1.6,0.3-1.8,1.7l-0.4,2.2c0,0.2-0.1,0.3-0.1,0.5
		c0,0.3,0.1,0.5,0.6,0.5c0.7,0,1.7-0.5,2.4-1.1L173.5,47z"/>
	<path class="st1" d="M178.7,52.4l0.3-0.9c0.9,0.3,1.7,0.4,2.5,0.4c1.5,0,1.9-0.4,2.1-1.5c0.1-0.3,0.1-0.5,0.1-0.7
		c0-0.6-0.4-0.7-1.7-1.1c-1.6-0.4-2.1-0.9-2.1-1.9c0-0.3,0-0.6,0.1-0.9c0.3-1.9,1.1-2.4,3.3-2.4c0.7,0,1.7,0.1,2.4,0.3l-0.2,1
		c-0.8-0.2-1.7-0.3-2.3-0.3c-1.6,0-1.9,0.2-2.1,1.4c-0.1,0.3-0.1,0.6-0.1,0.8c0,0.6,0.4,0.8,1.6,1.1c1.7,0.5,2.2,0.9,2.2,1.8
		c0,0.2,0,0.6-0.1,1c-0.3,1.7-0.8,2.5-3.4,2.5C180.6,52.9,179.5,52.7,178.7,52.4z"/>
	<path class="st1" d="M186.4,50.3l0.4-2c0.3-1.7,1.2-2.5,3.2-2.5c1.6,0,2.4,0.9,2.4,2c0,0.1,0,0.2,0,0.5l-0.4,2.1
		c-0.3,1.5-1.1,2.5-3.2,2.5C186.8,52.9,186.2,51.8,186.4,50.3z M191.2,48.3c0-0.2,0-0.3,0-0.4c0-0.7-0.4-1.1-1.4-1.1
		c-1.1,0-1.7,0.5-1.9,1.6l-0.4,2c-0.1,0.9,0.1,1.5,1.4,1.5c1.2,0,1.7-0.5,1.9-1.5L191.2,48.3z"/>
	<path class="st1" d="M193.5,50.3l0.4-2c0.3-1.7,1.2-2.5,3.2-2.5c1.6,0,2.4,0.9,2.4,2c0,0.1,0,0.2,0,0.5l-0.4,2.1
		c-0.3,1.5-1.1,2.5-3.2,2.5C193.9,52.9,193.3,51.8,193.5,50.3z M198.3,48.3c0-0.2,0-0.3,0-0.4c0-0.7-0.4-1.1-1.4-1.1
		c-1.1,0-1.7,0.5-1.9,1.6l-0.4,2c-0.1,0.9,0.1,1.5,1.4,1.5c1.2,0,1.7-0.5,1.9-1.5L198.3,48.3z"/>
	<path class="st1" d="M206.8,47c0,0.2,0,0.4-0.1,0.6l-0.9,5.2h-1.1l0.9-5.2c0-0.1,0-0.2,0-0.2c0-0.3-0.1-0.4-0.5-0.4
		c-0.7,0-1.7,0.5-2.6,1l-0.9,4.8h-1.1l1.2-6.7l1-0.2l-0.1,1c0.7-0.5,2.1-1,2.9-1C206.4,45.8,206.8,46.2,206.8,47z"/>
</g>
</svg>
