<?xml version="1.0" standalone="no"?>
<!DOCTYPE svg PUBLIC "-//W3C//DTD SVG 1.1//EN" "http://www.w3.org/Graphics/SVG/1.1/DTD/svg11.dtd" >
<svg xmlns="http://www.w3.org/2000/svg">
<metadata>Generated by IcoMoon</metadata>
<defs>
<font id="icomoon" horiz-adv-x="1024">
<font-face units-per-em="1024" ascent="798.7800586510264" descent="-225.21994134897358" />
<missing-glyph horiz-adv-x="1024" />
<glyph unicode="&#x20;" horiz-adv-x="512.5004887585533" d="" />
<glyph unicode="&#xe900;" glyph-name="influx-logo" d="M877.233 214.054l-70.794 308.212c-4.104 16.826-19.494 33.653-35.705 38.372l-323.191 99.317c-4.104 1.436-8.824 2.052-13.543 2.052-14.159 0-28.318-5.335-37.757-13.543l-231.876-215.255c-12.107-11.491-19.494-33.653-15.595-49.864l75.514-329.758c4.104-16.826 19.494-33.653 35.705-38.372l302.056-93.161c4.104-1.436 8.824-2.052 13.543-2.052 14.159 0 28.318 5.335 37.757 13.543l248.087 230.030c12.928 12.107 19.699 33.653 15.8 50.479zM480.58 586.288l221.206-68.127c8.824-2.668 8.824-6.772 0-8.824l-116.759-26.881c-8.824-2.052-20.93 2.052-26.881 8.003l-81.67 87.826c-6.566 7.387-4.72 10.876 4.104 8.003zM618.885 188.404c2.052-8.824-3.283-14.159-12.107-11.491l-239.47 74.283c-8.824 2.668-10.055 10.055-3.283 16.211l183.449 169.906c6.772 6.156 13.543 4.104 15.595-4.72l55.815-244.188zM224.284 406.328l194.326 180.782c6.772 6.156 16.826 6.156 23.598-0.616l97.881-105.268c6.156-6.772 6.156-16.826-0.616-23.598l-194.94-180.782c-6.772-6.156-16.826-6.156-23.598 0.616l-97.060 105.268c-6.361 6.772-5.54 17.442 0.41 23.598zM271.48 119.047l-51.3 225.926c-2.052 8.824 1.436 10.876 7.387 4.104l81.67-87.621c6.156-6.772 8.824-18.878 6.156-27.702l-35.089-114.707c-2.668-8.824-6.772-8.824-8.824 0zM556.094-12.487l-253.628 78.181c-8.824 2.668-13.543 12.107-10.876 20.93l42.476 136.87c2.668 8.824 12.107 13.543 20.93 10.876l252.808-78.181c8.824-2.668 13.543-12.107 10.876-20.93l-42.476-136.87c-1.847-8.824-11.286-13.543-20.11-10.876zM781.403 171.577l-169.906-157.183c-6.772-6.156-10.055-4.104-7.387 4.72l35.089 114.707c2.668 8.824 12.107 17.442 20.93 19.494l116.759 26.881c9.234 1.642 11.286-1.847 4.514-8.618zM800.283 205.435l-139.536-31.601c-8.824-2.052-17.442 3.283-19.494 12.107l-59.303 258.347c-2.052 8.824 3.283 17.442 12.107 19.494l139.536 31.601c8.824 2.052 17.442-3.283 19.494-12.107l59.303-258.347c2.052-8.824-3.283-17.647-12.107-19.494z" />
<glyph unicode="&#xe901;" glyph-name="influx-logotype" horiz-adv-x="2998" d="M2810.428 105.503c-1.436-8.003 2.668-10.055 6.156-10.055h19.494c6.772 0 8.824 6.772 8.824 10.055v0l53.352 303.491c-38.372 14.159-82.901 21.546-113.272 21.546-88.441 0-124.146-35.089-139.536-121.48l-25.034-140.974c-1.436-8.824-2.052-16.826-2.052-24.214 0-40.424 22.982-55.199 64.843-55.199 47.196 0 94.392 22.162 132.149 54.583l-4.925-37.757zM2686.896 122.329c-20.315 0-30.37 5.335-30.37 26.266 0 5.335 0.616 11.491 2.052 19.494l23.598 134.201c12.722 72.231 36.32 94.392 97.881 94.392 26.881 0 58.687-5.335 76.95-10.876l-35.089-199.044c-42.682-37.346-93.777-64.433-135.022-64.433zM2606.047 396.272v0l4.72 21.546c1.436 6.156-1.436 5.335-4.72 5.335h-92.34l12.722 75.514c1.436 8.003-4.104 9.439-8.003 8.824v0l-20.93-2.668c-6.156-0.616-8.824-6.156-8.824-8.824v0l-12.722-72.231h-57.251c-1.436 0-6.156-0.616-7.387-5.335l-3.283-20.93c0-2.052 0-6.156 5.335-6.156h56.020l-43.092-245.42c-0.616-4.72-1.436-8.824-1.436-12.722 0-29.754 20.93-43.913 53.968-43.913 25.65 0 72.231 7.387 95.008 18.878 6.772 4.104 6.156 8.824 4.72 12.107v0l-4.72 13.543c-1.436 2.668-4.72 2.668-7.387 2.052v0c-22.162-8.824-35.089-13.543-80.849-13.543-15.595 0-22.162 3.283-22.162 16.211 0 3.283 0.616 7.387 1.436 12.107l42.476 241.522h91.725c4.309-0.616 6.361 1.436 6.977 4.104zM2272.186 105.503c-1.436-8.003 2.668-10.055 6.156-10.055h19.494c6.772 0 8.824 6.772 8.824 10.055v0l53.352 303.491c-38.372 14.159-82.901 21.546-113.272 21.546-88.441 0-124.146-35.089-139.536-121.48l-25.034-140.974c-1.436-8.824-2.052-16.826-2.052-24.214 0-40.424 22.982-55.199 64.843-55.199 47.196 0 94.392 22.162 132.149 54.583l-4.925-37.757zM2149.476 122.329c-20.315 0-30.37 5.335-30.37 26.266 0 5.335 0.616 11.491 2.052 19.494l23.598 134.201c12.722 72.231 36.32 94.392 97.881 94.392 26.881 0 58.687-5.335 76.95-10.876l-35.089-199.044c-42.682-37.346-93.982-64.433-135.022-64.433zM1939.76 105.503c-1.436-8.003 2.668-10.055 6.156-10.055h19.494c6.772 0 8.824 6.772 8.824 10.055l79.002 447.132c1.436 8.003-4.104 9.439-8.003 8.824v0l-20.93-2.668c-6.156-0.616-8.824-6.156-8.824-8.824v0l-22.982-130.918c-20.315 6.156-58.072 10.876-79.618 10.876-83.722 0-124.146-32.422-139.536-121.48l-25.034-140.974c-1.436-8.824-2.052-16.826-2.052-24.214 0-40.424 22.982-55.199 64.843-55.199 47.196 0 96.444 22.162 134.201 54.583l-5.54-37.141zM1814.384 122.329c-20.315 0-30.37 5.335-30.37 26.266 0 5.335 0.616 11.491 2.052 19.494l23.598 134.201c12.722 72.846 37.757 94.392 97.881 94.392 26.266 0 52.531-4.104 79.002-10.876l-35.089-199.044c-42.682-37.346-95.418-64.433-137.074-64.433zM1721.222 423.153h-94.392c-4.104 0-9.439-3.283-10.876-6.156l-66.69-97.060-39.193 101.164c-2.052 5.335-7.387 7.387-11.491 6.772l-82.285-12.107 70.794-155.747-130.097-164.572h88.441c6.156 0 14.159 2.668 18.878 8.003l61.355 73.462 34.474-73.462c2.052-4.104 7.387-8.003 12.722-8.003h86.389l-69.563 152.464 131.533 175.241zM1315.951 101.399l56.020 320.933c1.436 6.772-4.104 6.772-8.003 6.156l-79.002-10.876c-8.824-1.436-10.876-7.387-11.491-10.876v0l-34.474-194.94c-24.214-12.107-67.511-30.985-84.953-30.985-9.439 0-12.722 3.283-12.722 10.055 0 2.668 0.616 6.772 1.436 10.055l38.372 221.206c1.436 6.772-4.104 6.772-7.387 6.156l-78.181-10.876c-8.824-1.436-10.876-7.387-11.491-10.876v0l-37.757-213.82c-2.052-13.543-3.283-24.214-3.283-37.757 0-41.040 16.826-66.69 59.919-66.69 37.757 0 78.181 12.722 129.481 37.141l0.616-24.214c0-2.052 0.616-6.156 4.104-6.156h72.846c3.899 0.41 5.951 3.694 5.951 6.361zM968.547 110.222l79.618 453.288c1.436 6.772-2.668 6.772-6.156 6.156l-91.109-14.774c-41.040 11.491-87.621 16.211-114.707 16.211-84.337 0-112.655-28.933-126.198-104.447l-7.387-43.092h-36.32c-10.055 0-10.876-4.72-11.491-8.824v0l-10.876-63.407c-0.616-2.668 0.616-5.335 4.72-5.335h41.040l-44.528-250.139c-5.335-29.754-9.439-47.196-37.757-76.95v0c-5.335-5.335-4.104-7.387 0-10.876v0l49.864-46.58c5.335-4.72 7.387-3.283 12.722 2.052 45.76 46.58 60.739 77.566 68.127 121.48l45.76 261.016h72.846c4.104 0 5.335 0 6.772 5.335v0l17.442 66.075c1.436 4.72-3.283 6.156-6.772 6.156h-76.95l8.824 47.812c3.283 16.826 10.055 22.162 31.601 22.162 28.318 0 74.283-5.335 99.727-12.107l-64.843-371.002c-2.668-13.543-1.436-14.774 10.055-14.774h70.179c9.029-0.205 13.133-0.205 15.8 14.569zM535.574 429.926c-37.757 0-78.181-12.722-129.481-37.141l0.616 28.933c0 7.387-5.335 6.156-9.439 5.335l-61.355-10.055c-10.055-2.052-13.543-8.003-14.159-11.491l-51.916-296.104c-2.668-13.543-1.436-14.774 10.055-14.774h70.179c8.003 0 12.107 0 14.774 14.774l34.474 196.992c25.65 13.543 67.511 30.985 84.953 30.985 9.439 0 12.722-2.668 12.722-9.439 0-2.668-0.616-6.156-1.436-10.055l-36.32-208.484c-2.668-13.543-1.436-14.774 10.055-14.774h70.179c8.003 0 12.107 0 14.774 14.774l37.757 215.872c2.668 16.826 3.283 26.266 3.283 37.757 0.41 41.861-15.8 66.895-59.713 66.895zM271.276 568.846l-15.595-84.953c-2.052-10.876-4.104-10.876-11.491-12.107l-77.566-10.876c-8.824-1.436-9.439-1.436-8.003 8.824l14.159 82.285c0.616 2.668 2.668 8.824 11.491 10.055l79.002 10.876c7.387 1.231 8.618 0.616 8.003-4.104zM236.801 428.489l-78.797-10.67c-8.824-1.436-10.876-7.387-11.491-10.876v0l-52.531-298.772c-2.052-11.491-0.616-12.722 10.055-12.722h70.179c8.003 0 12.107 0 14.774 14.774v0l55.199 312.316c2.052 6.772-3.283 5.951-7.387 5.951z" />
<glyph unicode="&#xe902;" glyph-name="alert-triangle" d="M983.252 66.567l-359.101 607.052c-17.101 29.925-47.025 51.3-81.225 59.849s-68.401 4.275-98.325-12.826c-17.101-8.549-34.199-25.65-42.751-42.751 0 0 0 0 0 0l-359.101-611.326c-34.199-59.849-12.826-141.076 47.025-175.275 17.101-12.826 38.476-17.101 59.849-17.101h726.752c34.199 0 68.401 12.826 89.776 38.476 25.65 25.65 38.476 55.575 38.476 89.776-4.275 21.375-8.549 47.025-21.375 64.126zM906.302-27.483c-8.549-8.549-21.375-12.826-29.925-12.826h-726.752c-8.549 0-12.826 0-21.375 4.275-21.375 12.826-25.65 38.476-17.101 59.849l363.377 602.777c4.275 4.275 8.549 12.826 12.826 12.826 21.375 12.826 47.025 4.275 59.849-12.826l363.377-602.777c4.275-4.275 4.275-12.826 4.275-21.375 4.275-12.826-4.275-21.375-8.549-29.925zM513.001 472.693c-25.65 0-42.751-17.101-42.751-42.751v-171.001c0-25.65 17.101-42.751 42.751-42.751s42.751 17.101 42.751 42.751v171.001c0 25.65-17.101 42.751-42.751 42.751zM483.076 117.867c-8.549-8.549-12.826-17.101-12.826-29.925s4.275-21.375 12.826-29.925c8.549-8.549 17.101-12.826 29.925-12.826s21.375 4.275 29.925 12.826c8.549 8.549 12.826 21.375 12.826 29.925s-4.275 21.375-12.826 29.925c-17.101 17.101-42.751 17.101-59.849 0z" />
<glyph unicode="&#xe903;" glyph-name="arrow-down" d="M842.177 331.618c-17.101 17.101-42.751 17.101-59.849 0l-226.575-226.575v495.901c0 25.65-17.101 42.751-42.751 42.751s-42.751-17.101-42.751-42.751v-495.901l-226.575 226.575c-17.101 17.101-42.751 17.101-59.849 0s-17.101-42.751 0-59.849l299.251-299.251c4.275-4.275 8.549-8.549 12.826-8.549 4.275-4.275 12.826-4.275 17.101-4.275s12.826 0 17.101 4.275c4.275 4.275 8.549 4.275 12.826 8.549l299.251 299.251c17.101 17.101 17.101 42.751 0 59.849z" />
<glyph unicode="&#xe904;" glyph-name="moon1" d="M514.712-8.589c-166.212 0-301.645 135.432-301.645 301.645 0.341 149.796 108.072 274.627 255.817 297.199 10.945 1.711 21.887-4.104 27.017-14.023 4.789-9.919 2.737-22.231-5.13-29.754-38.988-37.277-60.534-87.551-60.534-141.588 0-108.756 88.236-196.992 196.992-196.992 54.037 0 103.968 21.546 141.588 60.534 7.867 8.208 19.835 10.26 29.754 5.13s15.731-15.731 14.023-27.017c-23.257-147.744-148.429-255.133-297.883-255.133zM405.955 518.093c-84.817-40.355-141.247-126.198-141.588-225.037 0-137.826 112.176-250.344 250.344-250.344 98.496 0 184.339 56.43 225.037 140.904-34.543-17.783-72.846-27.017-112.86-27.017-136.8 0-248.292 111.493-248.292 248.292 0 40.014 9.575 78.661 27.361 113.202z" />
<glyph unicode="&#xe905;" glyph-name="search" d="M469.568 94.354c-136.8 0-247.951 111.15-247.951 247.951s111.15 247.951 247.951 247.951 247.951-111.15 247.951-247.951c0-136.8-111.15-247.951-247.951-247.951zM469.568 538.955c-108.415 0-196.651-88.236-196.651-196.651s88.236-196.651 196.651-196.651 196.651 88.236 196.651 196.651c0 108.415-88.236 196.651-196.651 196.651zM778.736 7.144c-6.497 0-12.997 2.393-18.127 7.523l-147.744 148.086c-9.919 9.919-9.919 26.335 0 36.251s26.335 9.919 36.251 0l147.744-148.086c9.919-9.919 9.919-26.335 0-36.251-5.13-5.13-11.627-7.523-18.127-7.523z" />
<glyph unicode="&#xe906;" glyph-name="sun1" d="M513.001 122.74c-92.682 0-168.264 75.583-168.264 168.264s75.583 168.264 168.264 168.264 168.264-75.583 168.264-168.264-75.583-168.264-168.264-168.264zM513.001 407.969c-64.638 0-116.964-52.326-116.964-116.964s52.326-116.964 116.964-116.964 116.964 52.326 116.964 116.964-52.326 116.964-116.964 116.964zM513.001 506.807c-14.023 0-25.65 11.627-25.65 25.65v98.155c0 14.023 11.627 25.65 25.65 25.65s25.65-11.627 25.65-25.65v-98.155c0-14.023-11.627-25.65-25.65-25.65zM342.001 436.355c-6.497 0-12.997 2.393-18.127 7.523l-69.427 69.083c-9.919 9.919-9.919 26.335 0 36.251s26.335 9.919 36.251 0l69.427-69.427c9.919-9.919 9.919-26.335 0-36.251-4.789-4.789-11.286-7.182-18.127-7.182zM271.549 265.354h-98.155c-14.023 0-25.65 11.627-25.65 25.65s11.627 25.65 25.65 25.65h98.155c14.023 0 25.65-11.627 25.65-25.65s-11.627-25.65-25.65-25.65zM272.917 25.269c-6.497 0-12.997 2.393-18.127 7.523-9.919 9.919-9.919 26.335 0 36.251l69.427 69.427c9.919 9.919 26.335 9.919 36.251 0s9.919-26.335 0-36.251l-69.427-69.427c-5.13-5.13-11.627-7.523-18.127-7.523zM513.001-74.253c-14.023 0-25.65 11.627-25.65 25.65v98.155c0 14.023 11.627 25.65 25.65 25.65s25.65-11.627 25.65-25.65v-98.155c0-14.364-11.627-25.65-25.65-25.65zM753.086 25.269c-6.497 0-12.997 2.393-18.127 7.523l-69.427 69.427c-9.919 9.919-9.919 26.335 0 36.251s26.335 9.919 36.251 0l69.427-69.427c9.919-9.919 9.919-26.335 0-36.251-4.789-5.13-11.286-7.523-18.127-7.523zM852.609 265.354h-98.155c-14.023 0-25.65 11.627-25.65 25.65s11.627 25.65 25.65 25.65h98.155c14.023 0 25.65-11.627 25.65-25.65s-11.286-25.65-25.65-25.65zM684.002 436.355c-6.497 0-12.997 2.393-18.127 7.523-9.919 9.919-9.919 26.335 0 36.251l69.427 69.427c9.919 9.919 26.335 9.919 36.251 0s9.919-26.335 0-36.251l-69.427-69.427c-5.13-5.13-11.627-7.523-18.127-7.523z" />
<glyph unicode="&#xe907;" glyph-name="arrow-down-circle" d="M513.001 771.944c-260.776 0-470.251-209.476-470.251-470.251s209.476-470.251 470.251-470.251 470.251 209.476 470.251 470.251-209.476 470.251-470.251 470.251zM513.001-83.058c-213.751 0-384.751 171.001-384.751 384.751s171.001 384.751 384.751 384.751c213.751 0 384.751-171.001 384.751-384.751s-171.001-384.751-384.751-384.751zM654.077 331.618l-98.325-98.325v239.401c0 25.65-17.101 42.751-42.751 42.751s-42.751-17.101-42.751-42.751v-239.401l-98.325 98.325c-17.101 17.101-42.751 17.101-59.849 0s-17.101-42.751 0-59.849l171.001-171.001c4.275-4.275 8.549-8.549 12.826-8.549 4.275-4.275 12.826-4.275 17.101-4.275s12.826 0 17.101 4.275c4.275 4.275 8.549 4.275 12.826 8.549l171.001 171.001c17.101 17.101 17.101 42.751 0 59.849s-42.751 17.101-59.849 0z" />
<glyph unicode="&#xe908;" glyph-name="arrow-down-left" d="M726.752 130.691h-324.901l354.826 354.826c17.101 17.101 17.101 42.751 0 59.849s-42.751 17.101-59.849 0l-354.826-354.826v324.901c0 25.65-17.101 42.751-42.751 42.751s-42.751-17.101-42.751-42.751v-427.501c0-4.275 0-12.826 4.275-17.101 4.275-8.549 12.826-17.101 21.375-21.375 4.275-4.275 12.826-4.275 17.101-4.275h427.501c25.65 0 42.751 17.101 42.751 42.751s-17.101 42.751-42.751 42.751z" />
<glyph unicode="&#xe909;" glyph-name="arrow-down-right" d="M769.502 515.442c0 25.65-17.101 42.751-42.751 42.751s-42.751-17.101-42.751-42.751v-324.901l-354.826 354.826c-17.101 17.101-42.751 17.101-59.849 0s-17.101-42.751 0-59.849l354.826-354.826h-324.901c-25.65 0-42.751-17.101-42.751-42.751s17.101-42.751 42.751-42.751h427.501c4.275 0 12.826 0 17.101 4.275 8.549 4.275 17.101 12.826 21.375 21.375 4.275 4.275 4.275 12.826 4.275 17.101v427.501z" />
<glyph unicode="&#xe90a;" glyph-name="arrow-left" d="M812.252 344.443h-495.901l226.575 226.575c17.101 17.101 17.101 42.751 0 59.849s-42.751 17.101-59.849 0l-299.251-299.251c-4.275-4.275-8.549-8.549-8.549-12.826-4.275-8.549-4.275-21.375 0-34.199 4.275-4.275 4.275-8.549 8.549-12.826l299.251-299.251c8.549-8.549 21.375-12.826 29.925-12.826s21.375 4.275 29.925 12.826c17.101 17.101 17.101 42.751 0 59.849l-226.575 226.575h495.901c25.65 0 42.751 17.101 42.751 42.751s-17.101 42.751-42.751 42.751z" />
<glyph unicode="&#xe90b;" glyph-name="arrow-left-circle" d="M513.001 771.944c-260.776 0-470.251-209.476-470.251-470.251s209.476-470.251 470.251-470.251 470.251 209.476 470.251 470.251-209.476 470.251-470.251 470.251zM513.001-83.058c-213.751 0-384.751 171.001-384.751 384.751s171.001 384.751 384.751 384.751c213.751 0 384.751-171.001 384.751-384.751s-171.001-384.751-384.751-384.751zM684.002 344.443h-239.401l98.325 98.325c17.101 17.101 17.101 42.751 0 59.849s-42.751 17.101-59.849 0l-171.001-171.001c-4.275-4.275-8.549-8.549-8.549-12.826-4.275-8.549-4.275-21.375 0-34.199 4.275-4.275 4.275-8.549 8.549-12.826l171.001-171.001c8.549-8.549 21.375-12.826 29.925-12.826s21.375 4.275 29.925 12.826c17.101 17.101 17.101 42.751 0 59.849l-98.325 98.325h239.401c25.65 0 42.751 17.101 42.751 42.751s-17.101 42.751-42.751 42.751z" />
<glyph unicode="&#xe90c;" glyph-name="arrow-right" d="M850.728 284.592c4.275 8.549 4.275 21.375 0 34.199-4.275 4.275-4.275 8.549-8.549 12.826l-299.251 299.251c-17.101 17.101-42.751 17.101-59.849 0s-17.101-42.751 0-59.849l226.575-226.575h-495.901c-25.65 0-42.751-17.101-42.751-42.751s17.101-42.751 42.751-42.751h495.901l-226.575-226.575c-17.101-17.101-17.101-42.751 0-59.849 8.549-8.549 21.375-12.826 29.925-12.826s21.375 4.275 29.925 12.826l299.251 299.251c4.275 4.275 8.549 8.549 8.549 12.826z" />
<glyph unicode="&#xe90d;" glyph-name="arrow-right-circle" d="M513.001 771.944c-260.776 0-470.251-209.476-470.251-470.251s209.476-470.251 470.251-470.251 470.251 209.476 470.251 470.251-209.476 470.251-470.251 470.251zM513.001-83.058c-213.751 0-384.751 171.001-384.751 384.751s171.001 384.751 384.751 384.751c213.751 0 384.751-171.001 384.751-384.751s-171.001-384.751-384.751-384.751zM722.478 318.793c-4.275 4.275-4.275 8.549-8.549 12.826l-171.001 171.001c-17.101 17.101-42.751 17.101-59.849 0s-17.101-42.751 0-59.849l98.325-98.325h-239.401c-25.65 0-42.751-17.101-42.751-42.751s17.101-42.751 42.751-42.751h239.401l-98.325-98.325c-17.101-17.101-17.101-42.751 0-59.849 8.549-8.549 21.375-12.826 29.925-12.826s21.375 4.275 29.925 12.826l171.001 171.001c4.275 4.275 8.549 8.549 8.549 12.826 4.275 12.826 4.275 21.375 0 34.199z" />
<glyph unicode="&#xe90e;" glyph-name="arrow-up" d="M842.177 331.618l-299.251 299.251c-4.275 4.275-8.549 8.549-12.826 8.549-8.549 4.275-21.375 4.275-34.199 0-4.275-4.275-8.549-4.275-12.826-8.549l-299.251-299.251c-17.101-17.101-17.101-42.751 0-59.849s42.751-17.101 59.849 0l226.575 226.575v-495.901c0-25.65 17.101-42.751 42.751-42.751s42.751 17.101 42.751 42.751v495.901l226.575-226.575c8.549-8.549 21.375-12.826 29.925-12.826s21.375 4.275 29.925 12.826c17.101 17.101 17.101 42.751 0 59.849z" />
<glyph unicode="&#xe90f;" glyph-name="arrow-up-circle" d="M513.001 771.944c-260.776 0-470.251-209.476-470.251-470.251s209.476-470.251 470.251-470.251 470.251 209.476 470.251 470.251-209.476 470.251-470.251 470.251zM513.001-83.058c-213.751 0-384.751 171.001-384.751 384.751s171.001 384.751 384.751 384.751c213.751 0 384.751-171.001 384.751-384.751s-171.001-384.751-384.751-384.751zM542.927 502.618c-4.275 4.275-8.549 8.549-12.826 8.549-8.549 4.275-21.375 4.275-34.199 0-4.275-4.275-8.549-4.275-12.826-8.549l-171.001-171.001c-17.101-17.101-17.101-42.751 0-59.849s42.751-17.101 59.849 0l98.325 98.325v-239.401c0-25.65 17.101-42.751 42.751-42.751s42.751 17.101 42.751 42.751v239.401l98.325-98.325c8.549-8.549 21.375-12.826 29.925-12.826s21.375 4.275 29.925 12.826c17.101 17.101 17.101 42.751 0 59.849l-171.001 171.001z" />
<glyph unicode="&#xe910;" glyph-name="arrow-up-left" d="M401.851 472.693h324.901c25.65 0 42.751 17.101 42.751 42.751s-17.101 42.751-42.751 42.751h-427.501c-4.275 0-12.826 0-17.101-4.275-8.549-4.275-17.101-12.826-21.375-21.375-4.275-4.275-4.275-12.826-4.275-17.101v-427.501c0-25.65 17.101-42.751 42.751-42.751s42.751 17.101 42.751 42.751v324.901l354.826-354.826c8.549-8.549 21.375-12.826 29.925-12.826s21.375 4.275 29.925 12.826c17.101 17.101 17.101 42.751 0 59.849l-354.826 354.826z" />
<glyph unicode="&#xe911;" glyph-name="arrow-up-right" d="M765.227 532.543c-4.275 8.549-12.826 17.101-21.375 21.375-4.275 4.275-12.826 4.275-17.101 4.275h-427.501c-25.65 0-42.751-17.101-42.751-42.751s17.101-42.751 42.751-42.751h324.901l-354.826-354.826c-17.101-17.101-17.101-42.751 0-59.849 8.549-8.549 17.101-12.826 29.925-12.826s21.375 4.275 29.925 12.826l354.826 354.826v-324.901c0-25.65 17.101-42.751 42.751-42.751s42.751 17.101 42.751 42.751v427.501c0 4.275 0 12.826-4.275 17.101z" />
<glyph unicode="&#xe912;" glyph-name="check" d="M884.927 588.118c-17.101 17.101-42.751 17.101-59.849 0l-440.327-440.327-183.826 183.826c-17.101 17.101-42.751 17.101-59.849 0s-17.101-42.751 0-59.849l213.751-213.751c8.549-8.549 17.101-12.826 29.925-12.826s21.375 4.275 29.925 12.826l470.251 470.251c17.101 17.101 17.101 42.751 0 59.849z" />
<glyph unicode="&#xe913;" glyph-name="heart1" d="M919.128 647.969v0c-51.3 51.3-119.701 81.225-192.376 81.225v0c-72.675 0-145.351-29.925-196.651-81.225 0 0 0 0 0 0l-17.101-17.101-17.101 17.101c-51.3 51.3-119.701 81.225-196.651 81.225-72.675 0-141.076-29.925-192.376-81.225s-85.499-123.975-85.499-196.651 29.925-145.351 81.225-196.651l376.201-376.201c8.549-8.549 17.101-12.826 29.925-12.826s21.375 4.275 29.925 12.826l376.201 376.201c115.426 106.875 115.426 286.426 4.275 393.301zM859.277 314.517l-346.276-346.276-346.276 346.276c-76.95 76.95-76.95 196.651 0 273.601 34.199 38.476 85.499 55.575 132.525 55.575 51.3 0 98.325-17.101 136.8-55.575l47.025-47.025c17.101-17.101 42.751-17.101 59.849 0l42.751 47.025c0 0 0 0 0 0 38.476 34.199 85.499 55.575 141.076 55.575 0 0 0 0 0 0 51.3 0 98.325-21.375 136.8-55.575v0c34.199-38.476 55.575-85.499 55.575-136.8s-21.375-98.325-59.849-136.8z" />
<glyph unicode="&#xe914;" glyph-name="settings" d="M513.001 472.693c-94.051 0-171.001-76.95-171.001-171.001s76.95-171.001 171.001-171.001c94.051 0 171.001 76.95 171.001 171.001s-76.95 171.001-171.001 171.001zM513.001 216.192c-47.025 0-85.499 38.476-85.499 85.499s38.476 85.499 85.499 85.499c47.025 0 85.499-38.476 85.499-85.499s-38.476-85.499-85.499-85.499zM867.827 156.341c4.275 8.549 12.826 17.101 29.925 17.101 72.675 0 128.25 55.575 128.25 128.25s-55.575 128.25-128.25 128.25h-8.549c-8.549 0-17.101 4.275-21.375 12.826 0 4.275 0 4.275-4.275 8.549-4.275 8.549-4.275 21.375 8.549 34.199 51.3 51.3 51.3 132.525 0 179.55v0c0 0 0 0 0 0-25.65 25.65-55.575 38.476-89.776 38.476 0 0 0 0 0 0-34.199 0-68.401-12.826-94.051-38.476-8.549-8.549-21.375-8.549-29.925-4.275-8.549 0-17.101 12.826-17.101 25.65 0 72.675-55.575 128.25-128.25 128.25s-128.25-55.575-128.25-128.25v-8.549c0-8.549-4.275-17.101-12.826-21.375-4.275 0-4.275 0-8.549-4.275-8.549-4.275-21.375 0-34.199 8.549-51.3 51.3-132.525 51.3-179.55 0-51.3-51.3-51.3-132.525 4.275-183.826 8.549-8.549 8.549-21.375 4.275-34.199-4.275-8.549-17.101-17.101-29.925-17.101-72.675 0-128.25-55.575-128.25-128.25s55.575-128.25 128.25-128.25h8.549c12.826 0 21.375-8.549 25.65-17.101s4.275-21.375-8.549-34.199c-25.65-25.65-38.476-55.575-38.476-89.776s12.826-64.126 38.476-89.776c0 0 0 0 0 0 51.3-51.3 132.525-51.3 183.826 4.275 8.549 8.549 21.375 8.549 34.199 4.275s17.101-12.826 17.101-29.925c0-72.675 55.575-128.25 128.25-128.25s128.25 55.575 128.25 128.25v8.549c0 12.826 8.549 21.375 17.101 25.65s21.375 4.275 34.199-8.549c51.3-51.3 132.525-51.3 179.55 0 51.3 51.3 51.3 132.525-4.275 183.826-4.275 8.549-8.549 21.375-4.275 29.925 0 0 0 0 0 0zM790.877 190.542c-17.101-42.751-8.549-89.776 25.65-128.25 8.549-8.549 12.826-17.101 12.826-29.925s-4.275-21.375-12.826-29.925c-8.549-8.549-17.101-12.826-29.925-12.826 0 0 0 0 0 0-12.826 0-21.375 4.275-34.199 17.101-34.199 34.199-81.225 42.751-123.975 21.375-42.751-17.101-68.401-59.849-68.401-102.6v-8.549c0-25.65-17.101-42.751-42.751-42.751s-42.751 17.101-42.751 42.751c0 0 0 4.275 0 4.275 0 47.025-29.925 85.499-72.675 102.6-12.826 8.549-29.925 8.549-47.025 8.549-29.925 0-59.849-12.826-81.225-34.199-17.101-17.101-42.751-17.101-59.849 0 0 0 0 0 0 0v0c-8.549 8.549-12.826 17.101-12.826 29.925s4.275 21.375 17.101 34.199c34.199 34.199 42.751 81.225 21.375 123.975-17.101 42.751-59.849 68.401-102.6 68.401h-8.549c-25.65 0-42.751 17.101-42.751 42.751s17.101 42.751 42.751 42.751c0 0 4.275 0 4.275 0 47.025 0 85.499 29.925 102.6 72.675s8.549 89.776-25.65 128.25c-17.101 17.101-17.101 42.751 0 59.849s42.751 17.101 64.126-4.275c29.925-29.925 76.95-38.476 115.426-25.65 4.275 0 8.549 0 12.826 4.275 42.751 17.101 68.401 59.849 68.401 102.6v8.549c0 25.65 17.101 42.751 42.751 42.751s42.751-17.101 42.751-47.025c0-47.025 25.65-85.499 68.401-102.6s89.776-8.549 128.25 25.65c8.549 8.549 17.101 12.826 29.925 12.826v0c12.826 0 21.375-4.275 29.925-12.826 0 0 0 0 0 0 17.101-17.101 17.101-42.751-4.275-64.126-29.925-29.925-38.476-76.95-25.65-115.426 0-4.275 0-8.549 4.275-12.826 17.101-42.751 59.849-68.401 102.6-68.401h8.549c25.65 0 42.751-17.101 42.751-42.751s-17.101-42.751-47.025-42.751c-42.751 0-85.499-25.65-102.6-68.401z" />
<glyph unicode="&#xe915;" glyph-name="zoom-in" d="M927.678-53.133l-158.175 158.175c51.3 64.126 85.499 149.625 85.499 239.401 0 213.751-171.001 384.751-384.751 384.751s-384.751-171.001-384.751-384.751c0-213.751 171.001-384.751 384.751-384.751 89.776 0 175.275 29.925 239.401 85.499l158.175-158.175c8.549-8.549 21.375-12.826 29.925-12.826s21.375 4.275 29.925 12.826c17.101 17.101 17.101 42.751 0 59.849zM171.001 344.443c0 166.726 132.525 299.251 299.251 299.251s299.251-132.525 299.251-299.251c0-81.225-34.199-158.175-85.499-209.476 0 0 0 0 0 0s0 0 0 0c-55.575-55.575-128.25-85.499-209.476-85.499-171.001-4.275-303.525 128.25-303.525 294.976zM598.501 387.192h-85.499v85.499c0 25.65-17.101 42.751-42.751 42.751s-42.751-17.101-42.751-42.751v-85.499h-85.499c-25.65 0-42.751-17.101-42.751-42.751s17.101-42.751 42.751-42.751h85.499v-85.499c0-25.65 17.101-42.751 42.751-42.751s42.751 17.101 42.751 42.751v85.499h85.499c25.65 0 42.751 17.101 42.751 42.751s-17.101 42.751-42.751 42.751z" />
<glyph unicode="&#xe916;" glyph-name="zoom-out" d="M927.678-53.133l-158.175 158.175c51.3 64.126 85.499 149.625 85.499 239.401 0 213.751-171.001 384.751-384.751 384.751s-384.751-171.001-384.751-384.751c0-213.751 171.001-384.751 384.751-384.751 89.776 0 175.275 29.925 239.401 85.499l158.175-158.175c8.549-8.549 21.375-12.826 29.925-12.826s21.375 4.275 29.925 12.826c17.101 17.101 17.101 42.751 0 59.849zM171.001 344.443c0 166.726 132.525 299.251 299.251 299.251s299.251-132.525 299.251-299.251c0-81.225-34.199-158.175-85.499-209.476 0 0 0 0 0 0s0 0 0 0c-55.575-55.575-128.25-85.499-209.476-85.499-171.001-4.275-303.525 128.25-303.525 294.976zM598.501 387.192h-256.5c-25.65 0-42.751-17.101-42.751-42.751s17.101-42.751 42.751-42.751h256.5c25.65 0 42.751 17.101 42.751 42.751s-17.101 42.751-42.751 42.751z" />
<glyph unicode="&#xe917;" glyph-name="chevron-down" d="M799.428 459.868c-17.101 17.101-42.751 17.101-59.849 0l-226.575-226.575-226.575 226.575c-17.101 17.101-42.751 17.101-59.849 0s-17.101-42.751 0-59.849l256.5-256.5c8.549-8.549 21.375-12.826 29.925-12.826s21.375 4.275 29.925 12.826l256.5 256.5c17.101 17.101 17.101 42.751 0 59.849z" />
<glyph unicode="&#xe918;" glyph-name="chevron-left" d="M444.601 301.692l226.575 226.575c17.101 17.101 17.101 42.751 0 59.849s-42.751 17.101-59.849 0l-256.5-256.5c-17.101-17.101-17.101-42.751 0-59.849l256.5-256.5c8.549-8.549 21.375-12.826 29.925-12.826s21.375 4.275 29.925 12.826c17.101 17.101 17.101 42.751 0 59.849l-226.575 226.575z" />
<glyph unicode="&#xe919;" glyph-name="chevron-right" d="M671.177 331.618l-256.5 256.5c-17.101 17.101-42.751 17.101-59.849 0s-17.101-42.751 0-59.849l226.575-226.575-226.575-226.575c-17.101-17.101-17.101-42.751 0-59.849 8.549-8.549 17.101-12.826 29.925-12.826s21.375 4.275 29.925 12.826l256.5 256.5c17.101 17.101 17.101 42.751 0 59.849z" />
<glyph unicode="&#xe91a;" glyph-name="chevron-up" d="M799.428 203.367l-256.5 256.5c-17.101 17.101-42.751 17.101-59.849 0l-256.5-256.5c-17.101-17.101-17.101-42.751 0-59.849s42.751-17.101 59.849 0l226.575 226.575 226.575-226.575c8.549-8.549 21.375-12.826 29.925-12.826s21.375 4.275 29.925 12.826c17.101 17.101 17.101 42.751 0 59.849z" />
<glyph unicode="&#xe91b;" glyph-name="menu" d="M897.753 344.443h-769.502c-25.65 0-42.751-17.101-42.751-42.751s17.101-42.751 42.751-42.751h769.502c25.65 0 42.751 17.101 42.751 42.751s-17.101 42.751-42.751 42.751zM128.25 515.442h769.502c25.65 0 42.751 17.101 42.751 42.751s-17.101 42.751-42.751 42.751h-769.502c-25.65 0-42.751-17.101-42.751-42.751s17.101-42.751 42.751-42.751zM897.753 87.942h-769.502c-25.65 0-42.751-17.101-42.751-42.751s17.101-42.751 42.751-42.751h769.502c25.65 0 42.751 17.101 42.751 42.751s-17.101 42.751-42.751 42.751z" />
<glyph unicode="&#xe91c;" glyph-name="download" d="M897.753 216.192c-25.65 0-42.751-17.101-42.751-42.751v-171.001c0-25.65-17.101-42.751-42.751-42.751h-598.501c-25.65 0-42.751 17.101-42.751 42.751v171.001c0 25.65-17.101 42.751-42.751 42.751s-42.751-17.101-42.751-42.751v-171.001c0-72.675 55.575-128.25 128.25-128.25h598.501c72.675 0 128.25 55.575 128.25 128.25v171.001c0 25.65-17.101 42.751-42.751 42.751zM483.076 143.517c4.275-4.275 8.549-8.549 12.826-8.549 4.275-4.275 12.826-4.275 17.101-4.275s12.826 0 17.101 4.275c4.275 4.275 8.549 4.275 12.826 8.549l213.751 213.751c17.101 17.101 17.101 42.751 0 59.849s-42.751 17.101-59.849 0l-141.076-141.076v410.401c0 25.65-17.101 42.751-42.751 42.751s-42.751-17.101-42.751-42.751v-410.401l-141.076 141.076c-17.101 17.101-42.751 17.101-59.849 0s-17.101-42.751 0-59.849l213.751-213.751z" />
<glyph unicode="&#xe91d;" glyph-name="minus" d="M812.252 344.443h-598.501c-25.65 0-42.751-17.101-42.751-42.751s17.101-42.751 42.751-42.751h598.501c25.65 0 42.751 17.101 42.751 42.751s-17.101 42.751-42.751 42.751z" />
<glyph unicode="&#xe91e;" glyph-name="plus" d="M812.252 344.443h-256.5v256.5c0 25.65-17.101 42.751-42.751 42.751s-42.751-17.101-42.751-42.751v-256.5h-256.5c-25.65 0-42.751-17.101-42.751-42.751s17.101-42.751 42.751-42.751h256.5v-256.5c0-25.65 17.101-42.751 42.751-42.751s42.751 17.101 42.751 42.751v256.5h256.5c25.65 0 42.751 17.101 42.751 42.751s-17.101 42.751-42.751 42.751z" />
<glyph unicode="&#xe91f;" glyph-name="add-cell" d="M416.814 804.006h-384.751c-17.956 0-32.062-14.108-32.062-32.062v-384.751c0-17.956 14.108-32.062 32.062-32.062h384.751c17.956 0 32.062 14.108 32.062 32.062v384.751c0 17.956-14.108 32.062-32.062 32.062zM993.941 226.879h-384.751c-17.956 0-32.062-14.108-32.062-32.062v-384.751c0-17.956 14.108-32.062 32.062-32.062h384.751c17.956 0 32.062 14.108 32.062 32.062v384.751c0 17.956-14.108 32.062-32.062 32.062zM416.814 226.879h-384.751c-17.956 0-32.062-14.108-32.062-32.062v-384.751c0-17.956 14.108-32.062 32.062-32.062h384.751c17.956 0 32.062 14.108 32.062 32.062v384.751c0 17.956-14.108 32.062-32.062 32.062zM609.189 547.505h160.313v-160.313c0-17.956 14.108-32.062 32.062-32.062s32.062 14.108 32.062 32.062v160.313h160.313c17.956 0 32.062 14.108 32.062 32.062s-14.108 32.062-32.062 32.062h-160.313v160.313c0 17.956-14.108 32.062-32.062 32.062s-32.062-14.108-32.062-32.062v-160.313h-160.313c-17.956 0-32.062-14.108-32.062-32.062s14.108-32.062 32.062-32.062z" />
<glyph unicode="&#xe920;" glyph-name="alert" d="M1007.821 2.195l-439.143 768.5c-11.416 19.979-32.664 32.31-55.676 32.31s-44.26-12.33-55.676-32.31l-439.143-768.5c-11.342-19.846-11.26-44.23 0.214-64.001s32.604-31.938 55.462-31.938h878.287c22.858 0 43.99 12.168 55.462 31.938s11.556 44.154 0.214 64.001zM577.127 34.503h-128.25v128.25h128.25v-128.25zM577.127 226.879h-128.25v256.5h128.25v-256.5z" />
<glyph unicode="&#xe921;" glyph-name="calendar" d="M886.093 664.096h-46.636v46.636c0 23.319-23.319 46.636-46.636 46.636s-46.636-23.319-46.636-46.636v-46.636h-466.365v46.636c0 23.319-23.319 46.636-46.636 46.636s-46.636-23.319-46.636-46.636v-46.636h-46.636c-79.281 0-139.909-60.627-139.909-139.909v-606.274c0-74.619 60.627-139.909 139.909-139.909h746.184c79.281 0 139.909 65.292 139.909 139.909v606.274c0 79.281-60.627 139.909-139.909 139.909zM932.73-82.088c0-23.319-23.319-46.636-46.636-46.636h-746.184c-23.319 0-46.636 23.319-46.636 46.636v419.728h839.457v-419.728zM93.273 430.914v93.273c0 23.319 23.319 46.636 46.636 46.636h46.636v-46.636c0-23.319 23.319-46.636 46.636-46.636s46.636 23.319 46.636 46.636v46.636h466.365v-46.636c0-23.319 23.319-46.636 46.636-46.636s46.636 23.319 46.636 46.636v46.636h46.636c23.319 0 46.636-23.319 46.636-46.636v-93.273h-839.457zM373.092 244.368h93.273v-93.273h-93.273v93.273zM559.638 244.368h93.273v-93.273h-93.273v93.273zM186.546 57.822h93.273v-93.273h-93.273v93.273zM373.092 57.822h93.273v-93.273h-93.273v93.273zM559.638 57.822h93.273v-93.273h-93.273v93.273zM746.184 244.368h93.273v-93.273h-93.273v93.273z" />
<glyph unicode="&#xe922;" glyph-name="checkmark" d="M346.276-52.707l-271.891 271.891c-33.346 33.346-38.476 89.776-7.696 128.25 35.91 38.476 94.906 38.476 130.816 2.566l169.29-169.29c5.13-5.13 12.826-5.13 15.39 0l443.746 443.746c35.91 35.91 94.906 35.91 130.816-2.566 33.346-35.91 28.216-92.34-7.696-128.25l-543.782-543.782c-15.39-20.52-43.606-20.52-58.996-2.566z" />
<glyph unicode="&#xe923;" glyph-name="cog-thick" d="M987.527 396.17h-92.34c-7.696 30.78-20.52 61.56-35.91 89.776l64.126 64.126c15.39 15.39 15.39 41.040 0 53.866l-94.906 97.47c-15.39 15.39-41.040 15.39-53.866 0l-66.69-66.69c-28.216 15.39-56.43 28.216-87.21 35.91v94.906c0 20.52-17.956 38.476-38.476 38.476h-133.38c-20.52 0-38.476-17.956-38.476-38.476v-94.906c-30.78-7.696-61.56-20.52-87.21-35.91l-69.256 66.69c-15.39 15.39-41.040 15.39-56.43 0l-94.906-94.906c-15.39-15.39-15.39-41.040 0-56.43l64.126-64.126c-15.39-28.216-28.216-56.43-35.91-89.776h-92.34c-20.52 0-38.476-17.956-38.476-38.476v-133.38c0-20.52 17.956-38.476 38.476-38.476h92.34c7.696-30.78 20.52-61.56 35.91-89.776l-64.126-64.126c-15.39-15.39-15.39-41.040 0-53.866l94.906-97.47c15.39-15.39 41.040-15.39 53.866 0l66.69 66.69c28.216-15.39 56.43-28.216 87.21-35.91v-94.906c0-20.52 17.956-38.476 38.476-38.476h133.38c20.52 0 38.476 17.956 38.476 38.476v94.906c30.78 7.696 61.56 20.52 87.21 35.91l66.69-66.69c15.39-15.39 41.040-15.39 53.866 0l94.906 94.906c15.39 15.39 15.39 41.040 0 53.866l-64.126 64.126c15.39 28.216 28.216 56.43 35.91 89.776h92.34c20.52 0 38.476 17.956 38.476 38.476v133.38c5.13 25.65-12.826 41.040-33.346 41.040zM513.001 75.544c-117.99 0-215.46 97.47-215.46 215.46s97.47 215.46 215.46 215.46 215.46-97.47 215.46-215.46-97.47-215.46-215.46-215.46z" />
<glyph unicode="&#xe924;" glyph-name="dashboards" horiz-adv-x="1073" d="M932.73 664.096h-792.82c-79.281 0-139.909-60.627-139.909-139.909v-466.365c0-74.619 60.627-139.909 139.909-139.909h792.82c79.281 0 139.909 65.292 139.909 139.909v466.365c0 79.281-60.627 139.909-139.909 139.909zM93.273 524.187c0 23.319 23.319 46.636 46.636 46.636h186.546v-233.182h-233.182v186.546zM139.909 11.185c-23.319 0-46.636 23.319-46.636 46.636v186.546h233.182v-233.182h-186.546zM419.728 11.185v233.182h233.182v-233.182h-233.182zM979.366 57.822c0-23.319-23.319-46.636-46.636-46.636h-186.546v233.182h233.182v-186.546zM419.728 337.64v233.182h513.001c23.319 0 46.636-23.319 46.636-46.636v-186.546h-559.638z" />
<glyph unicode="&#xe925;" glyph-name="data-explorer" d="M933.663 426.95c-25.65 15.39-56.43 17.956-82.080 7.696l-120.556 161.596c2.566 2.566 2.566 5.13 5.13 7.696 28.216 48.736 10.26 112.86-38.476 141.076s-112.86 10.26-141.076-38.476c-25.65-43.606-12.826-100.036 25.65-130.816l-197.506-546.347c-12.826 0-23.086-2.566-35.91-5.13l-120.556 159.030c2.566 2.566 2.566 5.13 5.13 7.696 28.216 48.736 10.26 112.86-38.476 141.076s-110.296 10.26-138.51-38.476-10.26-112.86 38.476-141.076c25.65-15.39 56.43-17.956 84.646-7.696l120.556-159.030c-2.566-2.566-2.566-2.566-5.13-5.13-28.216-48.736-10.26-112.86 38.476-141.076s112.86-10.26 141.076 38.476c25.65 46.17 12.826 102.6-25.65 133.38l192.376 541.217c12.826 0 23.086 2.566 35.91 5.13l120.556-159.030c-2.566-2.566-2.566-5.13-5.13-7.696-28.216-48.736-10.26-112.86 38.476-141.076s112.86-10.26 141.076 38.476 10.26 110.296-38.476 138.51z" />
<glyph unicode="&#xe926;" glyph-name="ui-download" d="M407.836 270.484h-125.686c-35.91 0-56.43-46.17-28.216-71.82l259.066-259.066 261.63 261.63c28.216 28.216 7.696 71.82-28.216 71.82l-128.25-2.566-5.13 430.921c0 58.996-46.17 102.6-102.6 102.6-58.996 0-102.6-46.17-102.6-102.6v-430.921zM910.577 34.503v-51.3c0-48.736-41.040-89.776-89.776-89.776h-615.602c-48.736 0-89.776 41.040-89.776 89.776v51.3c0 20.52-17.956 38.476-38.476 38.476s-38.476-17.956-38.476-38.476v-51.3c0-92.34 74.386-166.726 166.726-166.726h615.602c92.34 0 166.726 74.386 166.726 166.726v51.3c0 20.52-17.956 38.476-38.476 38.476v0c-20.52 0-38.476-17.956-38.476-38.476z" />
<glyph unicode="&#xe927;" glyph-name="duplicate" d="M923.403 804.006h-564.302c-56.43 0-102.6-46.17-102.6-102.6v-153.9h-153.9c-56.43 0-102.6-46.17-102.6-102.6v-564.302c0-56.43 46.17-102.6 102.6-102.6h564.302c56.43 0 102.6 46.17 102.6 102.6v153.9h153.9c56.43 0 102.6 46.17 102.6 102.6v564.302c0 56.43-46.17 102.6-102.6 102.6zM692.552-119.397c0-12.826-12.826-25.65-25.65-25.65h-564.302c-12.826 0-25.65 12.826-25.65 25.65v564.302c0 12.826 12.826 25.65 25.65 25.65h153.9v-333.451c0-56.43 46.17-102.6 102.6-102.6h333.451v-153.9z" />
<glyph unicode="&#xe928;" glyph-name="export" d="M205.2 765.53h230.85c20.52 0 38.476-17.956 38.476-38.476s-17.956-38.476-38.476-38.476h-230.85c-48.736 0-89.776-41.040-89.776-89.776v-615.602c0-48.736 41.040-89.776 89.776-89.776h615.602c48.736 0 89.776 41.040 89.776 89.776v230.85c0 20.52 17.956 38.476 38.476 38.476s38.476-17.956 38.476-38.476v-230.85c0-92.34-74.386-166.726-166.726-166.726h-615.602c-92.34 0-166.726 74.386-166.726 166.726v615.602c0 92.34 74.386 166.726 166.726 166.726zM679.727 603.936l-89.776 89.776c-25.65 25.65-7.696 71.82 30.78 71.82h369.361v-369.361c0-38.476-46.17-56.43-71.82-30.78l-89.776 89.776-251.37-251.37c-41.040-41.040-105.166-41.040-146.206 0s-41.040 105.166 0 146.206l248.806 253.936z" />
<glyph unicode="&#xe929;" glyph-name="fullscreen" d="M872.103 60.153c0-12.826-12.826-25.65-25.65-25.65h-666.902c-12.826 0-25.65 12.826-25.65 25.65v461.701c0 12.826 12.826 25.65 25.65 25.65h666.902c12.826 0 25.65-12.826 25.65-25.65v-461.701zM89.776 624.456h153.9c7.696 0 12.826 5.13 12.826 12.826v51.3c0 7.696-5.13 12.826-12.826 12.826h-166.726c-43.606 0-76.95-33.346-76.95-76.95v-166.726c0-7.696 5.13-12.826 12.826-12.826h51.3c7.696 0 12.826 5.13 12.826 12.826v153.9c0 7.696 5.13 12.826 12.826 12.826zM76.95-29.621v153.9c0 7.696-5.13 12.826-12.826 12.826h-51.3c-7.696 0-12.826-5.13-12.826-12.826v-166.726c0-43.606 33.346-76.95 76.95-76.95h166.726c7.696 0 12.826 5.13 12.826 12.826v51.3c0 7.696-5.13 12.826-12.826 12.826h-153.9c-7.696 0-12.826 5.13-12.826 12.826zM936.227-42.447h-153.9c-7.696 0-12.826-5.13-12.826-12.826v-51.3c0-7.696 5.13-12.826 12.826-12.826h166.726c43.606 0 76.95 33.346 76.95 76.95v166.726c0 7.696-5.13 12.826-12.826 12.826h-51.3c-7.696 0-12.826-5.13-12.826-12.826v-153.9c0-7.696-5.13-12.826-12.826-12.826zM949.053 611.63v-153.9c0-7.696 5.13-12.826 12.826-12.826h51.3c7.696 0 12.826 5.13 12.826 12.826v166.726c0 43.606-33.346 76.95-76.95 76.95h-166.726c-7.696 0-12.826-5.13-12.826-12.826v-51.3c0-7.696 5.13-12.826 12.826-12.826h153.9c7.696 0 12.826-5.13 12.826-12.826z" />
<glyph unicode="&#xe92a;" glyph-name="influx-icon" d="M1026.003 141.768c0 0 0 0 0 0 0 9.327 0 13.992 0 18.654 0 0 0 0 0 0s0 0 0 0 0 0 0 0l-111.927 466.365c0 4.665-4.665 9.327-4.665 13.992 0 0 0 4.665-4.665 4.665-4.665 4.665-4.665 4.665-9.327 9.327 0 0 0 0 0 0-4.665 0-9.327 4.665-9.327 4.665l-466.365 139.909c-9.327 4.665-13.992 4.665-13.992 4.665s0 0 0 0c-9.327 0-13.992 0-18.654-4.665 0 0-4.665 0-4.665 0-4.665 0-9.327-4.665-13.992-9.327l-354.437-326.455c0 0 0 0 0 0s0 0 0 0 0 0 0 0c-4.665 0-4.665-4.665-9.327-9.327 0 0 0-4.665 0-4.665-4.665-4.665-4.665-9.327-4.665-13.992 0 0 0 0 0 0 0-4.665 0-9.327 0-13.992l111.927-466.365c0-4.665 0-4.665 4.665-9.327 0 0 0 0 0 0 4.665-4.665 4.665-9.327 9.327-13.992 0 0 0 0 4.665-4.665s9.327-4.665 13.992-9.327c0 0 0 0 0 0s0 0 0 0 0 0 0 0l466.365-139.909c4.665 0 9.327 0 13.992 0s9.327 0 13.992 4.665c0 0 4.665 0 4.665 0 4.665 0 4.665 4.665 9.327 4.665 0 0 0 0 0 0l354.437 326.455c4.665 4.665 4.665 4.665 9.327 9.327 0 0 0 0 0 0 4.665 4.665 4.665 9.327 9.327 18.654zM214.527-2.805l55.965 172.555 377.756-111.927-55.965-172.555-377.756 111.927zM401.074 692.079l125.919-135.246-284.483-261.165-130.582 135.246 289.146 261.165zM923.403 183.74l-181.882-41.973-88.609 377.756 181.882 41.973 88.609-377.756zM568.966 468.223l74.619-312.465-312.465 93.273 237.846 219.192zM610.938 608.133l-51.3 51.3 125.919-37.308-74.619-13.992zM130.582 272.35l55.965-55.965-23.319-74.619-32.646 130.582zM741.52 48.495l74.619 18.654-97.937-93.273 23.319 74.619z" />
<glyph unicode="&#xe92b;" glyph-name="note" d="M1026.003 650.106c0-15.39-12.826-25.65-25.65-25.65h-538.652c-12.826 0-25.65 10.26-25.65 25.65v128.25c0 15.39 12.826 25.65 25.65 25.65h538.652c12.826 0 25.65-10.26 25.65-25.65v-128.25zM1026.003 367.955c0-12.826-12.826-25.65-25.65-25.65h-974.703c-15.39 0-25.65 12.826-25.65 25.65v128.25c0 15.39 10.26 25.65 25.65 25.65h974.703c12.826 0 25.65-10.26 25.65-25.65v-128.25zM1026.003 85.804c0-12.826-12.826-25.65-25.65-25.65h-974.703c-15.39 0-25.65 12.826-25.65 25.65v128.25c0 12.826 10.26 25.65 25.65 25.65h974.703c12.826 0 25.65-12.826 25.65-25.65v-128.25zM589.952-196.347c0-12.826-12.826-25.65-25.65-25.65h-538.652c-15.39 0-25.65 12.826-25.65 25.65v128.25c0 12.826 10.26 25.65 25.65 25.65h538.652c12.826 0 25.65-12.826 25.65-25.65v-128.25z" />
<glyph unicode="&#xe92c;" glyph-name="organizations" horiz-adv-x="933" d="M788.157 486.878c32.646 37.308 51.3 79.281 51.3 130.582 0 102.6-83.946 186.546-186.546 186.546s-186.546-83.946-186.546-186.546c0-51.3 18.654-93.273 51.3-130.582-18.654-9.327-37.308-23.319-51.3-37.308-9.327 93.273-88.609 167.892-186.546 167.892-102.6 0-186.546-83.946-186.546-186.546 0-51.3 18.654-93.273 51.3-125.919-83.946-46.636-144.573-139.909-144.573-247.173v-186.546c0-51.3 41.973-93.273 93.273-93.273h373.092c51.3 0 93.273 41.973 93.273 93.273v93.273h279.819c51.3 0 93.273 41.973 93.273 93.273v177.219c0 107.265-55.965 205.2-144.573 251.837zM652.911 710.733c51.3 0 93.273-41.973 93.273-93.273s-41.973-93.273-93.273-93.273c-51.3 0-93.273 41.973-93.273 93.273s41.973 93.273 93.273 93.273zM186.546 430.914c0 51.3 41.973 93.273 93.273 93.273s93.273-41.973 93.273-93.273c0-51.3-41.973-93.273-93.273-93.273s-93.273 41.973-93.273 93.273zM466.365-128.724h-373.092v186.546c0 102.6 83.946 186.546 186.546 186.546s186.546-83.946 186.546-186.546v-186.546zM839.457 57.822h-279.819c0 79.281-37.308 153.9-88.609 205.2 13.992 83.946 79.281 158.565 163.227 167.892 111.927 9.327 205.2-79.281 205.2-186.546v-186.546z" />
<glyph unicode="&#xe92d;" glyph-name="pause" d="M436.051-55.271c0-20.52-17.956-38.476-38.476-38.476h-128.25c-20.52 0-38.476 17.956-38.476 38.476v692.552c0 20.52 17.956 38.476 38.476 38.476h128.25c20.52 0 38.476-17.956 38.476-38.476v-692.552zM795.153-55.271c0-20.52-17.956-38.476-38.476-38.476h-128.25c-20.52 0-38.476 17.956-38.476 38.476v692.552c0 20.52 17.956 38.476 38.476 38.476h128.25c20.52 0 38.476-17.956 38.476-38.476v-692.552z" />
<glyph unicode="&#xe92e;" glyph-name="pencil" horiz-adv-x="898" d="M705.377 739.88l-128.25-128.25 192.376-192.376 128.25 128.25-192.376 192.376zM0 34.503l0.69-192.938 191.686 0.564 513.001 513.001-192.376 192.376-513.001-513.001zM192.376-93.747h-128.25v128.25h64.126v-64.126h64.126v-64.126z" />
<glyph unicode="&#xe92f;" glyph-name="play" d="M784.892 319.219l-459.136 400.141c-17.956 15.39-43.606 2.566-43.606-17.956v-820.803c0-23.086 25.65-33.346 43.606-20.52l459.136 400.141c15.39 17.956 15.39 43.606 0 58.996z" />
<glyph unicode="&#xe930;" glyph-name="ui-plus" d="M931.097 380.78h-302.671c-12.826 0-25.65 10.26-25.65 25.65v302.671c0 48.736-35.91 92.34-84.646 94.906-51.3 2.566-94.906-38.476-94.906-89.776v-307.801c0-12.826-10.26-25.65-25.65-25.65h-302.671c-48.736 0-92.34-35.91-94.906-84.646-2.566-51.3 38.476-94.906 89.776-94.906h307.801c12.826 0 25.65-10.26 25.65-25.65v-302.671c0-48.736 35.91-92.34 84.646-94.906 51.3-2.566 94.906 38.476 94.906 89.776v307.801c0 12.826 10.26 25.65 25.65 25.65h307.801c51.3 0 92.34 43.606 89.776 94.906-2.566 48.736-46.17 84.646-94.906 84.646z" />
<glyph unicode="&#xe931;" glyph-name="refresh" d="M875.95 653.953c-76.95 76.95-176.344 127.609-285.357 144.282-135.304 20.52-270.608-12.826-381.545-93.622-110.296-81.439-182.756-200.712-203.277-336.016-5.13-35.268 18.596-67.972 53.866-73.102 3.206-0.642 6.412-0.642 9.618-0.642 31.422 0 58.354 22.444 63.484 54.506 15.39 101.318 69.896 191.093 152.618 252.012s184.68 85.928 285.998 70.538c82.080-12.184 156.466-50.658 214.178-108.372l-144.282-144.282h384.751v384.751l-150.053-150.053zM966.367 286.516c-35.268 5.13-67.972-18.596-73.102-53.866-32.062-209.69-228.927-354.612-438.616-322.55-81.439 12.184-156.466 50.658-214.178 108.372l144.282 144.282h-384.751v-384.751l150.053 150.053c76.95-76.95 176.986-127.609 285.357-144.282 26.292-3.848 51.942-5.772 77.592-5.772 248.806 0 468.114 182.116 506.589 435.41 5.772 35.268-17.956 67.972-53.224 73.102z" />
<glyph unicode="&#xe932;" glyph-name="remove" d="M641.252 291.004l236.622 236.622c25.008 25.008 25.008 66.049 0 90.416l-37.834 37.834c-25.008 25.008-66.049 25.008-90.416 0l-236.622-236.622-236.622 236.622c-25.008 25.008-66.049 25.008-90.416 0l-37.834-37.834c-25.008-25.008-25.008-66.049 0-90.416l236.622-236.622-236.622-236.622c-25.008-25.008-25.008-66.049 0-90.416l37.834-37.834c25.008-25.008 66.049-25.008 90.416 0l236.622 236.622 236.622-236.622c25.008-25.008 66.049-25.008 90.416 0l37.834 37.834c25.008 25.008 25.008 66.049 0 90.416l-236.622 236.622z" />
<glyph unicode="&#xe933;" glyph-name="alert-circle" d="M982.292 300.179c0 129.706-52.616 247.238-137.606 332.185s-202.481 137.606-332.185 137.606-247.238-52.616-332.185-137.606-137.606-202.481-137.606-332.185 52.616-247.238 137.606-332.185 202.481-137.606 332.185-137.606 247.238 52.616 332.185 137.606 137.606 202.481 137.606 332.185zM896.876 300.179c0-106.173-42.965-202.181-112.579-271.796s-165.623-112.579-271.796-112.579-202.181 42.965-271.796 112.579-112.579 165.623-112.579 271.796 42.965 202.181 112.579 271.796 165.623 112.579 271.796 112.579 202.181-42.965 271.796-112.579 112.579-165.623 112.579-271.796zM469.792 471.013v-170.834c0-23.575 19.134-42.709 42.709-42.709s42.709 19.134 42.709 42.709v170.834c0 23.575-19.134 42.709-42.709 42.709s-42.709-19.134-42.709-42.709zM512.5 86.637c23.575 0 42.709 19.134 42.709 42.709s-19.134 42.709-42.709 42.709-42.709-19.134-42.709-42.709 19.134-42.709 42.709-42.709z" />
<glyph unicode="&#xe935;" glyph-name="trash" d="M936.227 675.756h-194.94l-66.69 110.296c-5.13 10.26-17.956 17.956-30.78 17.956h-261.63c-12.826 0-25.65-7.696-33.346-17.956l-64.126-110.296h-194.94c-20.52 0-38.476-17.956-38.476-38.476v-102.6c0-20.52 17.956-38.476 38.476-38.476h846.453c20.52 0 38.476 17.956 38.476 38.476v102.6c0 20.52-17.956 38.476-38.476 38.476zM405.271 727.056h215.46l30.78-51.3h-277.021l30.78 51.3zM859.277 444.905h-692.552c-10.26 0-20.52-5.13-28.216-12.826s-10.26-17.956-10.26-28.216l51.3-589.952c2.566-20.52 17.956-35.91 38.476-35.91h589.952c20.52 0 35.91 15.39 38.476 35.91l51.3 589.952c0 10.26-2.566 20.52-10.26 28.216s-17.956 12.826-28.216 12.826z" />
<glyph unicode="&#xe937;" glyph-name="triangle" d="M983.252 66.567l-359.101 607.052c-17.101 29.925-47.025 51.3-81.225 59.849s-68.401 4.275-98.325-12.826c-17.101-8.549-34.199-25.65-42.751-42.751 0 0 0 0 0 0l-359.101-611.326c-34.199-59.849-12.826-141.076 47.025-175.275 17.101-12.826 38.476-17.101 59.849-17.101h726.752c34.199 0 68.401 12.826 89.776 38.476 25.65 25.65 38.476 55.575 38.476 89.776-4.275 21.375-8.549 47.025-21.375 64.126zM906.302-27.483c-8.549-8.549-21.375-12.826-29.925-12.826h-726.752c-8.549 0-12.826 0-21.375 4.275-21.375 12.826-25.65 38.476-17.101 59.849l363.377 602.777c4.275 4.275 8.549 12.826 12.826 12.826 21.375 12.826 47.025 4.275 59.849-12.826l363.377-602.777c4.275-4.275 4.275-12.826 4.275-21.375 4.275-12.826-4.275-21.375-8.549-29.925z" />
<glyph unicode="&#xe938;" glyph-name="x" d="M572.851 301.692l226.575 226.575c17.101 17.101 17.101 42.751 0 59.849s-42.751 17.101-59.849 0l-226.575-226.575-226.575 226.575c-17.101 17.101-42.751 17.101-59.849 0s-17.101-42.751 0-59.849l226.575-226.575-226.575-226.575c-17.101-17.101-17.101-42.751 0-59.849 8.549-8.549 17.101-12.826 29.925-12.826s21.375 4.275 29.925 12.826l226.575 226.575 226.575-226.575c8.549-8.549 21.375-12.826 29.925-12.826s21.375 4.275 29.925 12.826c17.101 17.101 17.101 42.751 0 59.849l-226.575 226.575z" />
<glyph unicode="&#xe939;" glyph-name="wrench-2" d="M200.070-191.217c-43.606 0-87.21 17.956-120.556 51.3-28.216 25.65-48.736 71.82-48.736 117.99 0 43.606 17.956 84.646 48.736 117.99l330.886 328.321c-2.566 17.956-5.13 35.91-5.13 53.866 0 161.596 133.38 294.976 294.976 294.976 35.91 0 66.69-7.696 92.34-15.39s41.040-28.216 43.606-48.736c2.566-17.956 0-35.91-10.26-51.3l-5.13-7.696-110.296-110.296c-2.566-2.566-5.13-5.13-5.13-7.696s2.566-5.13 5.13-7.696l38.476-38.476c5.13-5.13 12.826-5.13 17.956 0l107.73 107.73c12.826 17.956 38.476 25.65 58.996 20.52 20.52-2.566 41.040-17.956 48.736-41.040 7.696-28.216 15.39-58.996 15.39-94.906 0-161.596-133.38-294.976-294.976-294.976-17.956 0-35.91 2.566-53.866 5.13l-330.886-330.886c-33.346-30.78-74.386-48.736-117.99-48.736zM700.247 696.276c-120.556 0-218.026-97.47-218.026-218.026 0-20.52 2.566-35.91 7.696-58.996l5.13-20.52-359.101-359.101c-17.956-17.956-28.216-41.040-28.216-61.56 0-17.956 7.696-46.17 25.65-61.56 38.476-38.476 94.906-38.476 128.25-5.13l359.101 359.101 20.52-5.13c17.956-5.13 35.91-7.696 56.43-7.696 120.556 0 218.026 97.47 218.026 218.026 0 15.39-2.566 28.216-5.13 46.17l-89.776-92.34c-35.91-35.91-89.776-35.91-125.686 0l-38.476 38.476c-17.956 17.956-25.65 38.476-25.65 64.126 0 23.086 10.26 46.17 25.65 64.126l94.906 94.906c-20.52 2.566-35.91 5.13-51.3 5.13z" />
<glyph unicode="&#xe93a;" glyph-name="chat" horiz-adv-x="881" d="M806.932 590.523h-733.576c-36.679 0-73.358-36.679-73.358-73.358v-440.145c0-36.679 36.679-73.358 73.358-73.358h293.43l293.43-220.073v220.073h146.715c36.679 0 73.358 36.679 73.358 73.358v440.145c0 36.679-36.679 73.358-73.358 73.358z" />
<glyph unicode="&#xe93b;" glyph-name="bell" horiz-adv-x="963" d="M946.772 51.804l-35.302 60.978c-12.839 22.466-25.675 41.723-35.302 57.768-35.302 54.559-54.559 86.654-67.398 150.841l-44.932 215.030c-25.675 138.005-147.632 234.286-285.636 237.495h-6.418c-141.214 0-266.38-105.909-288.846-247.123l-28.884-182.935c-12.839-86.654-38.514-131.585-86.654-208.611-6.418-12.839-16.048-25.675-22.466-41.723l-22.466-41.723c-25.675-41.723-25.675-96.282 0-138.005 19.257-44.932 67.398-70.607 118.748-70.607h215.030c12.839-54.559 64.189-96.282 125.166-96.282 57.768 0 112.329 41.723 125.166 96.282h215.030c48.141 0 99.491 25.675 125.166 70.607 22.466 41.723 22.466 96.282 0 138.005zM821.605-60.524h-680.391c-32.093 0-54.559 35.302-38.514 64.189l22.466 41.723c60.978 105.909 105.909 160.47 121.957 282.427l28.884 182.935c19.257 93.073 96.282 166.889 195.773 166.889h3.209c93.073 0 173.307-67.398 189.355-157.26l44.932-215.030c19.257-105.909 57.768-147.632 115.539-240.705l35.302-60.978c16.048-28.884-6.418-64.189-38.514-64.189z" />
<glyph unicode="&#xe93c;" glyph-name="disks-nav" d="M513.001 710.733c-163.227 0-326.455-41.973-326.455-139.909v-559.638c0-97.937 163.227-139.909 326.455-139.909s326.455 41.973 326.455 139.909v559.638c0 97.937-163.227 139.909-326.455 139.909zM746.184 388.941c-13.992-13.992-93.273-51.3-233.182-51.3s-219.192 37.308-233.182 51.3v79.281c60.627-23.319 149.237-37.308 233.182-37.308s172.555 13.992 233.182 37.308v-79.281zM746.184 202.395c-13.992-13.992-93.273-51.3-233.182-51.3s-219.192 37.308-233.182 51.3v79.281c60.627-23.319 149.237-37.308 233.182-37.308s172.555 13.992 233.182 37.308v-79.281zM513.001 617.46c130.582 0 205.2-27.981 228.519-46.636-23.319-18.654-97.937-46.636-228.519-46.636s-205.2 27.981-228.519 46.636c23.319 18.654 97.937 46.636 228.519 46.636zM513.001-35.451c-139.909 0-219.192 32.646-233.182 51.3v79.281c60.627-23.319 149.237-37.308 233.182-37.308s172.555 13.992 233.182 37.308v-79.281c-13.992-18.654-93.273-51.3-233.182-51.3z" />
<glyph unicode="&#xe93d;" glyph-name="wrench-nav" d="M186.546-175.362c-37.308 0-74.619 13.992-97.937 41.973-55.965 55.965-55.965 144.573 0 195.873l340.446 340.446c-4.665 27.981-9.327 51.3-9.327 74.619 0 153.9 125.919 279.819 279.819 279.819 41.973 0 88.609-9.327 130.582-32.646 13.992-4.665 23.319-18.654 23.319-32.646s-4.665-27.981-13.992-41.973l-121.254-121.254 37.308-37.308 121.254 121.254c9.327 9.327 23.319 13.992 41.973 13.992 13.992-4.665 27.981-9.327 32.646-23.319 18.654-41.973 27.981-83.946 27.981-125.919 0-153.9-125.919-279.819-279.819-279.819-23.319 0-46.636 4.665-69.954 9.327l-340.446-340.446c-27.981-27.981-65.292-41.973-102.6-41.973zM699.547 664.096c-102.6 0-186.546-83.946-186.546-186.546 0-23.319 4.665-46.636 13.992-69.954 4.665-18.654 4.665-37.308-9.327-51.3l-363.765-363.765c-18.654-18.654-18.654-46.636 0-65.292s46.636-18.654 65.292 0l363.765 363.765c13.992 13.992 32.646 18.654 51.3 9.327 23.319-9.327 46.636-13.992 69.954-13.992 102.6 0 186.546 83.946 186.546 186.546 0 4.665 0 9.327 0 18.654l-97.937-97.937c-18.654-18.654-46.636-18.654-65.292 0l-102.6 102.6c-13.992 9.327-18.654 18.654-18.654 32.646s4.665 23.319 13.992 32.646l97.937 102.6c-4.665 0-13.992 0-18.654 0z" />
<glyph unicode="&#xe93e;" glyph-name="user" d="M590.529 293.793c59.054 28.244 100.134 89.864 100.134 161.754 0 100.134-79.594 179.726-179.726 179.726s-179.726-79.594-179.726-179.726c0-71.89 41.080-130.944 100.134-161.754-84.729-20.54-177.159-120.674-177.159-233.644v-146.349c0-12.839 7.704-25.675 17.974-25.675h477.557c10.27 0 17.974 10.27 17.974 25.675v146.349c0 112.97-89.864 210.536-177.159 233.644z" />
<glyph unicode="&#xe93f;" glyph-name="cloud" d="M837.405-51.995h-647.804c-102.7 0-189.601 86.901-189.601 197.501 0 79 43.449 150.101 110.601 181.7 0 7.901 0 15.799 0 23.7 0 150.101 114.551 268.601 256.751 268.601 86.901 0 165.901-43.449 213.301-118.501 23.7 7.901 47.4 11.851 71.099 11.851 102.7 0 189.601-71.099 217.251-173.801 90.852-15.799 158-94.8 158-193.552 0-110.601-82.951-197.501-189.601-197.501zM367.352 540.508c-98.75 0-177.751-86.901-177.751-189.601 0-15.799 0-27.65 3.95-43.449l7.901-39.501-35.551-7.901c-51.35-11.851-86.901-59.251-86.901-114.551 0-67.151 47.4-118.501 110.601-118.501h647.804c59.251 0 110.601 51.35 110.601 118.501s-47.4 118.501-110.601 118.501h-39.501l-3.95 35.551c-7.901 79-71.099 138.251-142.202 138.251-23.7 0-47.4-7.901-71.099-19.749l-39.501-23.7-19.749 39.501c-23.7 67.151-86.901 106.65-154.050 106.65z" />
<glyph unicode="&#xe940;" glyph-name="users-trio" horiz-adv-x="1334" d="M1183.625 227.037c43.649 41.080 69.324 102.7 69.324 164.32 0 130.944-102.7 231.076-231.076 231.076-46.215 0-89.864-12.839-125.809-35.945-20.54 107.835-112.97 187.429-228.509 187.429-118.105 0-207.969-82.16-228.509-189.996-35.945 23.109-77.025 35.945-125.809 35.945-130.944 0-231.076-102.7-231.076-231.076 0-64.189 25.675-120.674 69.324-164.32-82.16-46.215-151.484-143.78-151.484-254.184v-156.619c0-35.945 25.675-66.755 56.485-66.755h510.935c33.379 0 59.054 30.81 61.62 66.755v87.295h77.025v-87.295c0-35.945 25.675-66.755 56.485-66.755h510.935c33.379 0 59.054 30.81 61.62 66.755v156.619c0 110.404-71.89 207.969-151.484 256.751zM546.881-176.062h-474.99v143.78c0 97.565 84.729 192.564 159.185 210.536 15.405 5.135 25.675 17.974 28.244 33.379s-5.135 30.81-20.54 38.514c-51.35 28.244-84.729 79.594-84.729 138.645 0 87.295 66.755 154.050 154.050 154.050s154.050-69.324 154.050-154.050c0-59.054-33.379-112.97-84.729-138.645-12.839-7.704-20.54-23.109-20.54-38.514s12.839-28.244 28.244-33.379c77.025-20.54 159.185-110.404 159.185-210.536v-143.78zM706.067-22.012h-77.025c-2.569 107.835-74.459 200.266-151.484 249.049 23.109 20.54 41.080 48.784 53.919 79.594 17.974 12.839 35.945 23.109 56.485 25.675 15.405 5.135 25.675 17.974 28.244 33.379s-5.135 30.81-20.54 38.514c-20.54 12.839-41.080 28.244-53.919 46.215-5.135 23.109-15.405 46.215-28.244 64.189-2.569 7.704-2.569 17.974-2.569 25.675 0 87.295 66.755 154.050 154.050 154.050s154.050-69.324 154.050-154.050c0-59.054-33.379-112.97-84.729-138.645-12.839-7.704-20.54-23.109-20.54-38.514s12.839-28.244 28.244-33.379c23.109-5.135 48.784-20.54 71.89-38.514 12.839-25.675 28.244-48.784 48.784-66.755-84.729-46.215-154.050-141.214-156.619-246.481zM1252.947-176.062h-474.99v143.78c0 97.565 84.729 192.564 159.185 210.536 15.405 5.135 25.675 17.974 28.244 33.379s-5.135 30.81-20.54 38.514c-51.35 28.244-84.729 79.594-84.729 138.645 0 87.295 66.755 154.050 154.050 154.050s154.050-69.324 154.050-154.050c0-59.054-33.379-112.97-84.729-138.645-12.839-7.704-20.54-23.109-20.54-38.514s12.839-28.244 28.244-33.379c77.025-20.54 159.185-110.404 159.185-210.536v-143.78z" />
<glyph unicode="&#xe941;" glyph-name="nav-chat" d="M730.754-190.246c-7.901 0-15.799 3.95-23.7 7.901l-280.452 209.35h-276.501c-59.251 0-110.601 55.3-110.601 110.601v347.602c0 59.251 55.3 114.551 110.601 114.551h722.854c59.251 0 114.551-55.3 114.551-114.551v-347.602c0-59.251-55.3-110.601-110.601-110.601h-106.65v-177.751c0-15.799-7.901-27.65-23.7-35.551-3.95-3.95-7.901-3.95-15.799-3.95zM150.101 520.758c-11.851 0-31.601-19.749-31.601-35.551v-347.602c0-15.799 19.749-31.601 31.601-31.601h288.352c7.901 0 15.799-3.95 23.7-7.901l225.151-169.852v138.251c0 23.7 15.799 39.501 39.501 39.501h146.151c15.799 0 31.601 19.749 31.601 31.601v347.602c3.95 15.799-15.799 35.551-27.65 35.551h-726.804z" />
<glyph unicode="&#xe94c;" glyph-name="map2" d="M673.315 579.568l-320.626 128.25-352.688-128.25v-769.502l352.688 128.25 320.626-128.25 352.688 128.25v769.502l-352.688-128.25zM384.751 625.928l256.5-102.6v-631.371l-256.5 102.598v631.373zM64.126 534.652l256.5 93.272v-633.036l-256.5-93.27v633.034zM961.877-16.769l-256.5-93.274v633.036l256.5 93.272v-633.034z" />
<glyph unicode="&#xe956;" glyph-name="eye-closed" d="M1019.302 275.82c-41.080 77.025-100.134 143.78-172.024 192.564l-128.375-128.375c7.704-23.109 12.839-48.784 12.839-77.025 0-120.674-97.565-218.239-218.239-218.239-28.244 0-53.919 5.135-77.025 12.839l-82.16-82.16c51.35-12.839 105.269-20.54 159.185-20.54 215.671 0 408.235 112.97 505.8 292.697l7.704 12.839-7.704 15.405zM179.726 55.013l128.375 128.375c-7.704 23.109-12.839 48.784-12.839 77.025 0 120.674 97.565 218.239 218.239 218.239 28.244 0 53.919-5.135 77.025-12.839l82.16 82.16c-51.35 12.839-105.269 20.54-159.185 20.54-218.239 0-410.802-112.97-505.8-292.697l-7.704-15.405 7.704-15.405c41.080-77.025 100.134-141.214 172.024-189.996zM128.375-163.226c-10.27 0-20.54 2.569-28.244 10.27-15.405 15.405-15.405 38.514 0 53.919l770.254 770.254c15.405 15.405 38.514 15.405 53.919 0s15.405-38.514 0-53.919l-770.254-770.254c-5.135-7.704-15.405-10.27-25.675-10.27z" />
<glyph unicode="&#xe957;" glyph-name="eye-open" d="M1019.302 275.82c-97.565 179.726-290.129 292.697-505.8 292.697-218.239 0-410.802-112.97-505.8-292.697l-7.704-15.405 7.704-15.405c97.565-179.726 290.129-292.697 505.8-292.697s408.235 112.97 505.8 292.697l7.704 15.405-7.704 15.405zM513.502 42.176c-120.674 0-218.239 97.565-218.239 218.239s97.565 218.239 218.239 218.239 218.239-97.565 218.239-218.239-97.565-218.239-218.239-218.239zM552.016 298.928c-25.675 25.675-25.675 66.755 0 89.864 25.675 25.675 66.755 25.675 89.864 0s25.675-66.755 0-89.864c-25.675-25.675-64.189-25.675-89.864 0z" />
<glyph unicode="&#xe965;" glyph-name="book-pencil" horiz-adv-x="907" d="M894.906 466.412l-118.269 114.327c-15.769 15.769-39.423 15.769-55.192 0l-394.231-394.231c-7.885-7.885-11.827-15.769-11.827-27.596v-157.692h157.692c11.827 0 19.711 3.942 27.596 11.827l394.231 398.174c7.885 3.942 11.827 15.769 11.827 27.596 0 7.885-3.942 19.711-11.827 27.596zM457.309 80.066h-63.077v63.077l354.808 354.808 63.077-63.077-354.808-354.808zM729.328 147.085l-51.25-51.25c-3.942-3.942-7.885-11.827-7.885-19.711v-193.174c0-23.654-15.769-39.423-39.423-39.423h-473.077c-23.654 0-39.423 15.769-39.423 39.423v118.269c23.654 0 39.423 15.769 39.423 39.423s-15.769 39.423-39.423 39.423v78.846c23.654 0 39.423 15.769 39.423 39.423s-15.769 39.423-39.423 39.423v78.846c23.654 0 39.423 15.769 39.423 39.423s-15.769 39.423-39.423 39.423v78.846c23.654 0 39.423 15.769 39.423 39.423s-15.769 39.423-39.423 39.423v118.269c0 23.654 15.769 39.423 39.423 39.423h473.077c23.654 0 39.423-15.769 39.423-39.423v-31.539c23.654 19.711 51.25 31.539 78.846 31.539 0 67.019-51.25 118.269-118.269 118.269h-473.077c-67.019 0-118.269-51.25-118.269-118.269v-118.269c-23.654 0-39.423-15.769-39.423-39.423s15.769-39.423 39.423-39.423v-78.846c-23.654 0-39.423-15.769-39.423-39.423s15.769-39.423 39.423-39.423v-78.846c-23.654 0-39.423-15.769-39.423-39.423s15.769-39.423 39.423-39.423v-78.846c-23.654 0-39.423-15.769-39.423-39.423s15.769-39.423 39.423-39.423v-118.269c0-67.019 51.25-118.269 118.269-118.269h473.077c67.019 0 118.269 51.25 118.269 118.269v256.25c0 11.827-11.827 15.769-19.711 7.885z" />
<glyph unicode="&#xe9da;" glyph-name="heart" d="M756.665 707.818c-107.84 0-200.65-87.726-243.64-179.35-43.022 91.622-135.844 179.35-243.692 179.35-148.672 0-269.334-120.676-269.334-269.358 0-302.436 305.096-381.739 513.024-680.747 196.538 297.156 512.979 387.964 512.979 680.747 0 148.682-120.666 269.358-269.338 269.358z" />
<glyph unicode="&#xea2e;" glyph-name="loop2" d="M891.421 605.298c-93.792 102.416-228.6 166.646-378.419 166.646-283.323 0-513.001-229.678-513.001-513.001h96.188c0 230.2 186.614 416.814 416.814 416.814 123.26 0 233.999-53.522 310.302-138.576l-149.988-149.986h352.688v352.688l-134.582-134.582zM929.815 258.942c0-230.2-186.614-416.814-416.814-416.814-123.26 0-233.999 53.522-310.3 138.576l149.986 149.986h-352.688v-352.688l134.582 134.582c93.792-102.416 228.6-166.646 378.419-166.646 283.323 0 513.001 229.678 513.001 513.001h-96.188z" />
<glyph unicode="&#xeab0;" glyph-name="github" d="M513.009 759.276c-283.291 0-513.009-229.666-513.009-512.999 0-226.656 146.991-418.95 350.821-486.786 25.636-4.748 35.060 11.132 35.060 24.68 0 12.228-0.48 52.644-0.698 95.51-142.726-31.036-172.842 60.528-172.842 60.528-23.328 59.292-56.96 75.062-56.96 75.062-46.542 31.84 3.516 31.184 3.516 31.184 51.5-3.618 78.63-52.87 78.63-52.87 45.762-78.424 120.010-55.748 149.296-42.642 4.596 33.15 17.886 55.788 32.57 68.598-113.952 12.968-233.732 56.962-233.732 253.527 0 56.008 20.044 101.772 52.864 137.696-5.326 12.926-22.898 65.1 4.962 135.765 0 0 43.090 13.778 141.116-52.592 40.916 11.37 84.802 17.070 128.404 17.268 43.588-0.198 87.506-5.898 128.506-17.268 97.926 66.374 140.931 52.592 140.931 52.592 27.926-70.666 10.37-122.84 5.046-135.765 32.884-35.926 52.798-81.692 52.798-137.696 0-197.038-120.012-240.42-234.248-253.118 18.4-15.922 34.792-47.138 34.792-94.998 0-68.642-0.598-123.886-0.598-140.782 0-13.654 9.24-29.652 35.24-24.614 203.72 67.908 350.526 260.134 350.526 486.718 0 283.333-229.682 512.999-512.993 512.999z" />
<glyph unicode="&#xeabd;" glyph-name="tux" d="M568.766 33.586c-82.104-38.192-158.468-37.79-209.75-34.086-61.172 4.418-110.374 21.166-132 35.802-13.326 9.024-31.446 5.532-40.469-7.798-9.022-13.328-5.53-31.448 7.798-40.469 34.766-23.532 96.256-41.034 160.476-45.67 10.888-0.786 22.842-1.28 35.716-1.28 55.892 0 126.874 5.326 202.816 40.65 14.592 6.792 20.918 24.122 14.132 38.716-6.79 14.594-24.124 20.912-38.718 14.136zM892.691 76.77c2.792 253.182 28.818 731.634-455.86 692.965-478.534-38.518-351.65-544.030-358.782-713.343-6.32-89.56-36.048-199.036-78.048-310.452h129.352c13.292 47.214 23.070 93.904 27.286 138.42 7.798-5.438 16.14-10.694 25.042-15.73 14.486-8.534 26.936-19.882 40.118-31.896 30.804-28.072 65.718-59.89 133.974-63.876 4.58-0.262 9.192-0.394 13.702-0.394 69.030 0 116.241 30.213 154.179 54.488 18.176 11.634 33.884 21.682 48.659 26.504 41.992 13.146 78.686 34.364 106.112 61.372 4.284 4.216 8.258 8.554 11.986 12.974 15.276-55.988 36.188-118.99 59.404-181.859h276.189c-66.304 102.424-134.699 202.77-133.312 330.83zM124.352 214.503c0 0.016 0 0.030-0.002 0.046-4.756 82.624 34.778 152.129 88.298 155.239 53.516 3.112 100.756-61.348 105.51-143.973 0-0.014 0.004-0.030 0.004-0.044 0.256-4.454 0.368-8.864 0.37-13.232-16.958-4.264-32.254-10.456-45.962-17.664-0.052 0.614-0.092 1.218-0.152 1.834 0 0.008 0 0.018 0 0.026-4.578 46.902-29.63 82.32-55.962 79.112-26.332-3.21-43.966-43.836-39.388-90.736 0-0.010 0.004-0.018 0.004-0.026 1.996-20.448 7.884-38.712 16.074-52.546-2.038-1.608-7.8-5.824-14.434-10.676-4.98-3.642-11.042-8.074-18.35-13.456-19.92 26.146-33.572 63.704-36.010 106.098zM666.561 10.279c-1.904-43.672-59.024-84.758-111.8-101.242l-0.296-0.096c-21.942-7.116-41.509-19.638-62.226-32.894-34.8-22.268-70.784-45.296-122.762-45.296-3.41 0-6.908 0.104-10.346 0.296-47.608 2.784-69.878 23.078-98.072 48.772-14.872 13.552-30.25 27.568-50.074 39.2l-0.424 0.244c-42.79 24.152-69.348 54.188-71.046 80.35-0.844 13.006 4.948 24.266 17.216 33.466 26.688 20.012 44.565 33.086 56.394 41.74 13.136 9.606 17.102 12.504 20.040 15.294 2.1 1.99 4.372 4.196 6.818 6.574 24.494 23.82 65.488 63.686 128.4 63.686 38.48 0 81.056-14.828 126.416-43.988 21.366-13.906 39.96-20.326 63.504-28.456 16.188-5.588 34.536-11.926 59.108-22.448l0.396-0.164c22.924-9.422 49.994-26.616 48.756-55.040zM653.923 112.851c-4.408 2.218-8.992 4.328-13.77 6.298-22.15 9.474-39.91 15.906-54.64 21.040 8.132 15.926 13.186 35.79 13.65 57.354 0 0.010 0 0.022 0 0.030 1.128 52.476-25.338 95.082-59.112 95.162-33.776 0.078-62.072-42.396-63.2-94.872 0-0.010 0-0.018 0-0.028-0.038-1.718-0.042-3.422-0.020-5.12-20.802 9.57-41.26 16.522-61.286 20.8-0.092 1.972-0.204 3.94-0.244 5.932 0 0.016 0 0.036 0 0.050-1.942 95.598 56.712 174.731 131.010 176.747 74.295 2.018 136.094-73.844 138.042-169.44 0-0.018 0-0.038 0-0.052 0.876-43.23-10.68-83.028-30.43-113.9z" />
<glyph unicode="&#xeabe;" glyph-name="appleinc" d="M793.046 226.787c-1.296 129.936 105.964 192.252 110.758 195.348-60.27 88.192-154.151 100.274-187.608 101.67-79.898 8.090-155.9-47.040-196.45-47.040-40.446 0-103.020 45.844-169.282 44.64-87.086-1.294-167.384-50.636-212.226-128.631-90.48-157.004-23.172-389.6 65.016-516.935 43.092-62.326 94.476-132.334 161.942-129.834 64.968 2.594 89.536 42.040 168.084 42.040s100.624-42.040 169.38-40.75c69.91 1.298 114.205 63.522 156.998 126.042 49.486 72.31 69.862 142.316 71.062 145.91-1.552 0.708-136.326 52.338-137.676 207.539zM663.858 608.102c35.808 43.442 59.978 103.714 53.384 163.842-51.578-2.1-114.1-34.358-151.105-77.702-33.206-38.452-62.27-99.82-54.48-158.746 57.578-4.492 116.356 29.262 152.201 72.606z" />
<glyph unicode="&#xeac2;" glyph-name="windows8" d="M0.35 258.942l-0.35 312.684 384.751 52.246v-364.93zM448.876 633.19l512.873 74.628v-448.876h-512.873zM961.875 194.817l-0.126-448.876-512.873 72.156v376.72zM384.751-173.739l-384.438 52.696-0.020 315.858h384.458z" />
</font>
</defs>
</svg>
