<?xml version="1.0" standalone="no"?>
<!DOCTYPE svg PUBLIC "-//W3C//DTD SVG 1.1//EN" "http://www.w3.org/Graphics/SVG/1.1/DTD/svg11.dtd" >
<svg xmlns="http://www.w3.org/2000/svg">
<metadata>Generated by IcoMoon</metadata>
<defs>
<font id="icomoon" horiz-adv-x="1024">
<font-face units-per-em="1024" ascent="798.7800586510264" descent="-225.21994134897358" />
<missing-glyph horiz-adv-x="1024" />
<glyph unicode="&#x20;" horiz-adv-x="512.5004887585533" d="" />
<glyph unicode="&#xe900;" glyph-name="influx-logo" d="M878.091 215.483l-70.863 308.513c-4.108 16.842-19.513 33.686-35.74 38.41l-323.507 99.414c-4.108 1.437-8.833 2.054-13.556 2.054-14.173 0-28.346-5.34-37.794-13.556l-232.103-215.465c-12.119-11.502-19.513-33.686-15.61-49.913l75.588-330.080c4.108-16.842 19.513-33.686 35.74-38.41l302.351-93.252c4.108-1.437 8.833-2.054 13.556-2.054 14.173 0 28.346 5.34 37.794 13.556l248.33 230.255c12.941 12.119 19.718 33.686 15.815 50.528zM481.050 588.081l221.422-68.194c8.833-2.671 8.833-6.779 0-8.833l-116.873-26.907c-8.833-2.054-20.95 2.054-26.907 8.011l-81.75 87.912c-6.572 7.394-4.725 10.887 4.108 8.011zM619.49 189.808c2.054-8.833-3.286-14.173-12.119-11.502l-239.704 74.356c-8.833 2.671-10.065 10.065-3.286 16.227l183.628 170.072c6.779 6.162 13.556 4.108 15.61-4.725l55.87-244.427zM224.503 407.945l194.516 180.959c6.779 6.162 16.842 6.162 23.621-0.617l97.977-105.371c6.162-6.779 6.162-16.842-0.617-23.621l-195.131-180.959c-6.779-6.162-16.842-6.162-23.621 0.617l-97.155 105.371c-6.367 6.779-5.545 17.459 0.41 23.621zM271.745 120.383l-51.35 226.147c-2.054 8.833 1.437 10.887 7.394 4.108l81.75-87.707c6.162-6.779 8.833-18.896 6.162-27.729l-35.123-114.819c-2.671-8.833-6.779-8.833-8.833 0zM556.638-11.279l-253.876 78.257c-8.833 2.671-13.556 12.119-10.887 20.95l42.518 137.004c2.671 8.833 12.119 13.556 20.95 10.887l253.055-78.257c8.833-2.671 13.556-12.119 10.887-20.95l-42.518-137.004c-1.849-8.833-11.297-13.556-20.13-10.887zM782.167 172.965l-170.072-157.337c-6.779-6.162-10.065-4.108-7.394 4.725l35.123 114.819c2.671 8.833 12.119 17.459 20.95 19.513l116.873 26.907c9.243 1.644 11.297-1.849 4.518-8.626zM801.065 206.856l-139.672-31.632c-8.833-2.054-17.459 3.286-19.513 12.119l-59.361 258.6c-2.054 8.833 3.286 17.459 12.119 19.513l139.672 31.632c8.833 2.054 17.459-3.286 19.513-12.119l59.361-258.6c2.054-8.833-3.286-17.664-12.119-19.513z" />
<glyph unicode="&#xe901;" glyph-name="influx-logotype" horiz-adv-x="3001" d="M2813.175 106.826c-1.437-8.011 2.671-10.065 6.162-10.065h19.513c6.779 0 8.833 6.779 8.833 10.065v0l53.404 303.788c-38.41 14.173-82.982 21.567-113.383 21.567-88.527 0-124.267-35.123-139.672-121.599l-25.058-141.112c-1.437-8.833-2.054-16.842-2.054-24.238 0-40.464 23.004-55.253 64.906-55.253 47.242 0 94.484 22.184 132.278 54.636l-4.93-37.794zM2689.522 123.669c-20.335 0-30.4 5.34-30.4 26.292 0 5.34 0.617 11.502 2.054 19.513l23.621 134.332c12.734 72.302 36.356 94.484 97.977 94.484 26.907 0 58.744-5.34 77.025-10.887l-35.123-199.239c-42.724-37.383-93.869-64.496-135.154-64.496zM2608.594 397.879v0l4.725 21.567c1.437 6.162-1.437 5.34-4.725 5.34h-92.43l12.734 75.588c1.437 8.011-4.108 9.448-8.011 8.833v0l-20.95-2.671c-6.162-0.617-8.833-6.162-8.833-8.833v0l-12.734-72.302h-57.307c-1.437 0-6.162-0.617-7.394-5.34l-3.286-20.95c0-2.054 0-6.162 5.34-6.162h56.075l-43.134-245.66c-0.617-4.725-1.437-8.833-1.437-12.734 0-29.783 20.95-43.956 54.021-43.956 25.675 0 72.302 7.394 95.101 18.896 6.779 4.108 6.162 8.833 4.725 12.119v0l-4.725 13.556c-1.437 2.671-4.725 2.671-7.394 2.054v0c-22.184-8.833-35.123-13.556-80.928-13.556-15.61 0-22.184 3.286-22.184 16.227 0 3.286 0.617 7.394 1.437 12.119l42.518 241.758h91.815c4.313-0.617 6.367 1.437 6.984 4.108zM2274.407 106.826c-1.437-8.011 2.671-10.065 6.162-10.065h19.513c6.779 0 8.833 6.779 8.833 10.065v0l53.404 303.788c-38.41 14.173-82.982 21.567-113.383 21.567-88.527 0-124.267-35.123-139.672-121.599l-25.058-141.112c-1.437-8.833-2.054-16.842-2.054-24.238 0-40.464 23.004-55.253 64.906-55.253 47.242 0 94.484 22.184 132.278 54.636l-4.93-37.794zM2151.577 123.669c-20.335 0-30.4 5.34-30.4 26.292 0 5.34 0.617 11.502 2.054 19.513l23.621 134.332c12.734 72.302 36.356 94.484 97.977 94.484 26.907 0 58.744-5.34 77.025-10.887l-35.123-199.239c-42.724-37.383-94.074-64.496-135.154-64.496zM1941.656 106.826c-1.437-8.011 2.671-10.065 6.162-10.065h19.513c6.779 0 8.833 6.779 8.833 10.065l79.079 447.569c1.437 8.011-4.108 9.448-8.011 8.833v0l-20.95-2.671c-6.162-0.617-8.833-6.162-8.833-8.833v0l-23.004-131.046c-20.335 6.162-58.129 10.887-79.696 10.887-83.804 0-124.267-32.454-139.672-121.599l-25.058-141.112c-1.437-8.833-2.054-16.842-2.054-24.238 0-40.464 23.004-55.253 64.906-55.253 47.242 0 96.538 22.184 134.332 54.636l-5.545-37.177zM1816.158 123.669c-20.335 0-30.4 5.34-30.4 26.292 0 5.34 0.617 11.502 2.054 19.513l23.621 134.332c12.734 72.917 37.794 94.484 97.977 94.484 26.292 0 52.582-4.108 79.079-10.887l-35.123-199.239c-42.724-37.383-95.511-64.496-137.208-64.496zM1722.905 424.787h-94.484c-4.108 0-9.448-3.286-10.887-6.162l-66.755-97.155-39.231 101.263c-2.054 5.34-7.394 7.394-11.502 6.779l-82.365-12.119 70.863-155.899-130.224-164.733h88.527c6.162 0 14.173 2.671 18.896 8.011l61.415 73.534 34.508-73.534c2.054-4.108 7.394-8.011 12.734-8.011h86.473l-69.631 152.613 131.662 175.412zM1317.237 102.718l56.075 321.247c1.437 6.779-4.108 6.779-8.011 6.162l-79.079-10.887c-8.833-1.437-10.887-7.394-11.502-10.887v0l-34.508-195.131c-24.238-12.119-67.577-31.015-85.036-31.015-9.448 0-12.734 3.286-12.734 10.065 0 2.671 0.617 6.779 1.437 10.065l38.41 221.422c1.437 6.779-4.108 6.779-7.394 6.162l-78.257-10.887c-8.833-1.437-10.887-7.394-11.502-10.887v0l-37.794-214.029c-2.054-13.556-3.286-24.238-3.286-37.794 0-41.080 16.842-66.755 59.978-66.755 37.794 0 78.257 12.734 129.608 37.177l0.617-24.238c0-2.054 0.617-6.162 4.108-6.162h72.917c3.903 0.41 5.957 3.698 5.957 6.367zM969.494 111.55l79.696 453.731c1.437 6.779-2.671 6.779-6.162 6.162l-91.198-14.788c-41.080 11.502-87.707 16.227-114.819 16.227-84.419 0-112.765-28.961-126.321-104.549l-7.394-43.134h-36.356c-10.065 0-10.887-4.725-11.502-8.833v0l-10.887-63.469c-0.617-2.671 0.617-5.34 4.725-5.34h41.080l-44.572-250.384c-5.34-29.783-9.448-47.242-37.794-77.025v0c-5.34-5.34-4.108-7.394 0-10.887v0l49.913-46.626c5.34-4.725 7.394-3.286 12.734 2.054 45.805 46.626 60.798 77.642 68.194 121.599l45.805 261.271h72.917c4.108 0 5.34 0 6.779 5.34v0l17.459 66.14c1.437 4.725-3.286 6.162-6.779 6.162h-77.025l8.833 47.859c3.286 16.842 10.065 22.184 31.632 22.184 28.346 0 74.356-5.34 99.824-12.119l-64.906-371.365c-2.671-13.556-1.437-14.788 10.065-14.788h70.248c9.038-0.205 13.146-0.205 15.815 14.583zM536.098 431.566c-37.794 0-78.257-12.734-129.608-37.177l0.617 28.961c0 7.394-5.34 6.162-9.448 5.34l-61.415-10.065c-10.065-2.054-13.556-8.011-14.173-11.502l-51.967-296.393c-2.671-13.556-1.437-14.788 10.065-14.788h70.248c8.011 0 12.119 0 14.788 14.788l34.508 197.185c25.675 13.556 67.577 31.015 85.036 31.015 9.448 0 12.734-2.671 12.734-9.448 0-2.671-0.617-6.162-1.437-10.065l-36.356-208.688c-2.671-13.556-1.437-14.788 10.065-14.788h70.248c8.011 0 12.119 0 14.788 14.788l37.794 216.083c2.671 16.842 3.286 26.292 3.286 37.794 0.41 41.902-15.815 66.96-59.771 66.96zM271.541 570.622l-15.61-85.036c-2.054-10.887-4.108-10.887-11.502-12.119l-77.642-10.887c-8.833-1.437-9.448-1.437-8.011 8.833l14.173 82.365c0.617 2.671 2.671 8.833 11.502 10.065l79.079 10.887c7.394 1.232 8.626 0.617 8.011-4.108zM237.032 430.128l-78.874-10.68c-8.833-1.437-10.887-7.394-11.502-10.887v0l-52.582-299.064c-2.054-11.502-0.617-12.734 10.065-12.734h70.248c8.011 0 12.119 0 14.788 14.788v0l55.253 312.621c2.054 6.779-3.286 5.957-7.394 5.957z" />
<glyph unicode="&#xe902;" glyph-name="alert-triangle" d="M984.213 67.852l-359.452 607.645c-17.118 29.954-47.071 51.35-81.304 59.908s-68.468 4.279-98.421-12.839c-17.118-8.557-34.232-25.675-42.793-42.793 0 0 0 0 0 0l-359.452-611.924c-34.232-59.908-12.839-141.214 47.071-175.446 17.118-12.839 38.514-17.118 59.908-17.118h727.462c34.232 0 68.468 12.839 89.864 38.514 25.675 25.675 38.514 55.629 38.514 89.864-4.279 21.396-8.557 47.071-21.396 64.189zM907.188-26.29c-8.557-8.557-21.396-12.839-29.954-12.839h-727.462c-8.557 0-12.839 0-21.396 4.279-21.396 12.839-25.675 38.514-17.118 59.908l363.732 603.366c4.279 4.279 8.557 12.839 12.839 12.839 21.396 12.839 47.071 4.279 59.908-12.839l363.732-603.366c4.279-4.279 4.279-12.839 4.279-21.396 4.279-12.839-4.279-21.396-8.557-29.954zM513.502 474.375c-25.675 0-42.793-17.118-42.793-42.793v-171.168c0-25.675 17.118-42.793 42.793-42.793s42.793 17.118 42.793 42.793v171.168c0 25.675-17.118 42.793-42.793 42.793zM483.548 119.202c-8.557-8.557-12.839-17.118-12.839-29.954s4.279-21.396 12.839-29.954c8.557-8.557 17.118-12.839 29.954-12.839s21.396 4.279 29.954 12.839c8.557 8.557 12.839 21.396 12.839 29.954s-4.279 21.396-12.839 29.954c-17.118 17.118-42.793 17.118-59.908 0z" />
<glyph unicode="&#xe903;" glyph-name="arrow-down" d="M843 333.162c-17.118 17.118-42.793 17.118-59.908 0l-226.796-226.796v496.386c0 25.675-17.118 42.793-42.793 42.793s-42.793-17.118-42.793-42.793v-496.386l-226.796 226.796c-17.118 17.118-42.793 17.118-59.908 0s-17.118-42.793 0-59.908l299.544-299.544c4.279-4.279 8.557-8.557 12.839-8.557 4.279-4.279 12.839-4.279 17.118-4.279s12.839 0 17.118 4.279c4.279 4.279 8.557 4.279 12.839 8.557l299.544 299.544c17.118 17.118 17.118 42.793 0 59.908z" />
<glyph unicode="&#xe904;" glyph-name="moon1" d="M515.215-7.377c-166.374 0-301.94 135.564-301.94 301.94 0.341 149.942 108.178 274.895 256.067 297.49 10.956 1.713 21.908-4.108 27.043-14.037 4.794-9.929 2.74-22.253-5.135-29.783-39.026-37.313-60.593-87.637-60.593-141.726 0-108.862 88.322-197.185 197.185-197.185 54.090 0 104.070 21.567 141.726 60.593 7.875 8.216 19.854 10.27 29.783 5.135s15.746-15.746 14.037-27.043c-23.28-147.888-148.574-255.382-298.174-255.382zM406.352 519.819c-84.9-40.394-141.385-126.321-141.726-225.257 0-137.961 112.286-250.589 250.589-250.589 98.592 0 184.519 56.485 225.257 141.042-34.577-17.8-72.917-27.043-112.97-27.043-136.934 0-248.535 111.602-248.535 248.535 0 40.053 9.584 78.738 27.388 113.313z" />
<glyph unicode="&#xe905;" glyph-name="search" d="M470.027 95.666c-136.934 0-248.193 111.259-248.193 248.193s111.259 248.193 248.193 248.193 248.193-111.259 248.193-248.193c0-136.934-111.259-248.193-248.193-248.193zM470.027 540.702c-108.521 0-196.843-88.322-196.843-196.843s88.322-196.843 196.843-196.843 196.843 88.322 196.843 196.843c0 108.521-88.322 196.843-196.843 196.843zM779.497 8.371c-6.503 0-13.010 2.395-18.145 7.53l-147.888 148.231c-9.929 9.929-9.929 26.361 0 36.286s26.361 9.929 36.286 0l147.888-148.231c9.929-9.929 9.929-26.361 0-36.286-5.135-5.135-11.638-7.53-18.145-7.53z" />
<glyph unicode="&#xe906;" glyph-name="sun1" d="M513.502 124.080c-92.773 0-168.428 75.657-168.428 168.428s75.657 168.428 168.428 168.428 168.428-75.657 168.428-168.428-75.657-168.428-168.428-168.428zM513.502 409.588c-64.701 0-117.078-52.377-117.078-117.078s52.377-117.078 117.078-117.078 117.078 52.377 117.078 117.078-52.377 117.078-117.078 117.078zM513.502 508.522c-14.037 0-25.675 11.638-25.675 25.675v98.251c0 14.037 11.638 25.675 25.675 25.675s25.675-11.638 25.675-25.675v-98.251c0-14.037-11.638-25.675-25.675-25.675zM342.335 438.001c-6.503 0-13.010 2.395-18.145 7.53l-69.495 69.151c-9.929 9.929-9.929 26.361 0 36.286s26.361 9.929 36.286 0l69.495-69.495c9.929-9.929 9.929-26.361 0-36.286-4.794-4.794-11.297-7.189-18.145-7.189zM271.814 266.833h-98.251c-14.037 0-25.675 11.638-25.675 25.675s11.638 25.675 25.675 25.675h98.251c14.037 0 25.675-11.638 25.675-25.675s-11.638-25.675-25.675-25.675zM273.184 26.514c-6.503 0-13.010 2.395-18.145 7.53-9.929 9.929-9.929 26.361 0 36.286l69.495 69.495c9.929 9.929 26.361 9.929 36.286 0s9.929-26.361 0-36.286l-69.495-69.495c-5.135-5.135-11.638-7.53-18.145-7.53zM513.502-73.106c-14.037 0-25.675 11.638-25.675 25.675v98.251c0 14.037 11.638 25.675 25.675 25.675s25.675-11.638 25.675-25.675v-98.251c0-14.378-11.638-25.675-25.675-25.675zM753.822 26.514c-6.503 0-13.010 2.395-18.145 7.53l-69.495 69.495c-9.929 9.929-9.929 26.361 0 36.286s26.361 9.929 36.286 0l69.495-69.495c9.929-9.929 9.929-26.361 0-36.286-4.794-5.135-11.297-7.53-18.145-7.53zM853.442 266.833h-98.251c-14.037 0-25.675 11.638-25.675 25.675s11.638 25.675 25.675 25.675h98.251c14.037 0 25.675-11.638 25.675-25.675s-11.297-25.675-25.675-25.675zM684.671 438.001c-6.503 0-13.010 2.395-18.145 7.53-9.929 9.929-9.929 26.361 0 36.286l69.495 69.495c9.929 9.929 26.361 9.929 36.286 0s9.929-26.361 0-36.286l-69.495-69.495c-5.135-5.135-11.638-7.53-18.145-7.53z" />
<glyph unicode="&#xe907;" glyph-name="arrow-down-circle" d="M513.502 773.919c-261.031 0-470.711-209.681-470.711-470.711s209.681-470.711 470.711-470.711 470.711 209.681 470.711 470.711-209.681 470.711-470.711 470.711zM513.502-81.919c-213.96 0-385.127 171.168-385.127 385.127s171.168 385.127 385.127 385.127c213.96 0 385.127-171.168 385.127-385.127s-171.168-385.127-385.127-385.127zM654.716 333.162l-98.421-98.421v239.635c0 25.675-17.118 42.793-42.793 42.793s-42.793-17.118-42.793-42.793v-239.635l-98.421 98.421c-17.118 17.118-42.793 17.118-59.908 0s-17.118-42.793 0-59.908l171.168-171.168c4.279-4.279 8.557-8.557 12.839-8.557 4.279-4.279 12.839-4.279 17.118-4.279s12.839 0 17.118 4.279c4.279 4.279 8.557 4.279 12.839 8.557l171.168 171.168c17.118 17.118 17.118 42.793 0 59.908s-42.793 17.118-59.908 0z" />
<glyph unicode="&#xe908;" glyph-name="arrow-down-left" d="M727.462 132.039h-325.219l355.173 355.173c17.118 17.118 17.118 42.793 0 59.908s-42.793 17.118-59.908 0l-355.173-355.173v325.219c0 25.675-17.118 42.793-42.793 42.793s-42.793-17.118-42.793-42.793v-427.919c0-4.279 0-12.839 4.279-17.118 4.279-8.557 12.839-17.118 21.396-21.396 4.279-4.279 12.839-4.279 17.118-4.279h427.919c25.675 0 42.793 17.118 42.793 42.793s-17.118 42.793-42.793 42.793z" />
<glyph unicode="&#xe909;" glyph-name="arrow-down-right" d="M770.254 517.166c0 25.675-17.118 42.793-42.793 42.793s-42.793-17.118-42.793-42.793v-325.219l-355.173 355.173c-17.118 17.118-42.793 17.118-59.908 0s-17.118-42.793 0-59.908l355.173-355.173h-325.219c-25.675 0-42.793-17.118-42.793-42.793s17.118-42.793 42.793-42.793h427.919c4.279 0 12.839 0 17.118 4.279 8.557 4.279 17.118 12.839 21.396 21.396 4.279 4.279 4.279 12.839 4.279 17.118v427.919z" />
<glyph unicode="&#xe90a;" glyph-name="arrow-left" d="M813.046 346h-496.386l226.796 226.796c17.118 17.118 17.118 42.793 0 59.908s-42.793 17.118-59.908 0l-299.544-299.544c-4.279-4.279-8.557-8.557-8.557-12.839-4.279-8.557-4.279-21.396 0-34.232 4.279-4.279 4.279-8.557 8.557-12.839l299.544-299.544c8.557-8.557 21.396-12.839 29.954-12.839s21.396 4.279 29.954 12.839c17.118 17.118 17.118 42.793 0 59.908l-226.796 226.796h496.386c25.675 0 42.793 17.118 42.793 42.793s-17.118 42.793-42.793 42.793z" />
<glyph unicode="&#xe90b;" glyph-name="arrow-left-circle" d="M513.502 773.919c-261.031 0-470.711-209.681-470.711-470.711s209.681-470.711 470.711-470.711 470.711 209.681 470.711 470.711-209.681 470.711-470.711 470.711zM513.502-81.919c-213.96 0-385.127 171.168-385.127 385.127s171.168 385.127 385.127 385.127c213.96 0 385.127-171.168 385.127-385.127s-171.168-385.127-385.127-385.127zM684.671 346h-239.635l98.421 98.421c17.118 17.118 17.118 42.793 0 59.908s-42.793 17.118-59.908 0l-171.168-171.168c-4.279-4.279-8.557-8.557-8.557-12.839-4.279-8.557-4.279-21.396 0-34.232 4.279-4.279 4.279-8.557 8.557-12.839l171.168-171.168c8.557-8.557 21.396-12.839 29.954-12.839s21.396 4.279 29.954 12.839c17.118 17.118 17.118 42.793 0 59.908l-98.421 98.421h239.635c25.675 0 42.793 17.118 42.793 42.793s-17.118 42.793-42.793 42.793z" />
<glyph unicode="&#xe90c;" glyph-name="arrow-right" d="M851.56 286.090c4.279 8.557 4.279 21.396 0 34.232-4.279 4.279-4.279 8.557-8.557 12.839l-299.544 299.544c-17.118 17.118-42.793 17.118-59.908 0s-17.118-42.793 0-59.908l226.796-226.796h-496.386c-25.675 0-42.793-17.118-42.793-42.793s17.118-42.793 42.793-42.793h496.386l-226.796-226.796c-17.118-17.118-17.118-42.793 0-59.908 8.557-8.557 21.396-12.839 29.954-12.839s21.396 4.279 29.954 12.839l299.544 299.544c4.279 4.279 8.557 8.557 8.557 12.839z" />
<glyph unicode="&#xe90d;" glyph-name="arrow-right-circle" d="M513.502 773.919c-261.031 0-470.711-209.681-470.711-470.711s209.681-470.711 470.711-470.711 470.711 209.681 470.711 470.711-209.681 470.711-470.711 470.711zM513.502-81.919c-213.96 0-385.127 171.168-385.127 385.127s171.168 385.127 385.127 385.127c213.96 0 385.127-171.168 385.127-385.127s-171.168-385.127-385.127-385.127zM723.184 320.325c-4.279 4.279-4.279 8.557-8.557 12.839l-171.168 171.168c-17.118 17.118-42.793 17.118-59.908 0s-17.118-42.793 0-59.908l98.421-98.421h-239.635c-25.675 0-42.793-17.118-42.793-42.793s17.118-42.793 42.793-42.793h239.635l-98.421-98.421c-17.118-17.118-17.118-42.793 0-59.908 8.557-8.557 21.396-12.839 29.954-12.839s21.396 4.279 29.954 12.839l171.168 171.168c4.279 4.279 8.557 8.557 8.557 12.839 4.279 12.839 4.279 21.396 0 34.232z" />
<glyph unicode="&#xe90e;" glyph-name="arrow-up" d="M843 333.162l-299.544 299.544c-4.279 4.279-8.557 8.557-12.839 8.557-8.557 4.279-21.396 4.279-34.232 0-4.279-4.279-8.557-4.279-12.839-8.557l-299.544-299.544c-17.118-17.118-17.118-42.793 0-59.908s42.793-17.118 59.908 0l226.796 226.796v-496.386c0-25.675 17.118-42.793 42.793-42.793s42.793 17.118 42.793 42.793v496.386l226.796-226.796c8.557-8.557 21.396-12.839 29.954-12.839s21.396 4.279 29.954 12.839c17.118 17.118 17.118 42.793 0 59.908z" />
<glyph unicode="&#xe90f;" glyph-name="arrow-up-circle" d="M513.502 773.919c-261.031 0-470.711-209.681-470.711-470.711s209.681-470.711 470.711-470.711 470.711 209.681 470.711 470.711-209.681 470.711-470.711 470.711zM513.502-81.919c-213.96 0-385.127 171.168-385.127 385.127s171.168 385.127 385.127 385.127c213.96 0 385.127-171.168 385.127-385.127s-171.168-385.127-385.127-385.127zM543.458 504.329c-4.279 4.279-8.557 8.557-12.839 8.557-8.557 4.279-21.396 4.279-34.232 0-4.279-4.279-8.557-4.279-12.839-8.557l-171.168-171.168c-17.118-17.118-17.118-42.793 0-59.908s42.793-17.118 59.908 0l98.421 98.421v-239.635c0-25.675 17.118-42.793 42.793-42.793s42.793 17.118 42.793 42.793v239.635l98.421-98.421c8.557-8.557 21.396-12.839 29.954-12.839s21.396 4.279 29.954 12.839c17.118 17.118 17.118 42.793 0 59.908l-171.168 171.168z" />
<glyph unicode="&#xe910;" glyph-name="arrow-up-left" d="M402.244 474.375h325.219c25.675 0 42.793 17.118 42.793 42.793s-17.118 42.793-42.793 42.793h-427.919c-4.279 0-12.839 0-17.118-4.279-8.557-4.279-17.118-12.839-21.396-21.396-4.279-4.279-4.279-12.839-4.279-17.118v-427.919c0-25.675 17.118-42.793 42.793-42.793s42.793 17.118 42.793 42.793v325.219l355.173-355.173c8.557-8.557 21.396-12.839 29.954-12.839s21.396 4.279 29.954 12.839c17.118 17.118 17.118 42.793 0 59.908l-355.173 355.173z" />
<glyph unicode="&#xe911;" glyph-name="arrow-up-right" d="M765.975 534.284c-4.279 8.557-12.839 17.118-21.396 21.396-4.279 4.279-12.839 4.279-17.118 4.279h-427.919c-25.675 0-42.793-17.118-42.793-42.793s17.118-42.793 42.793-42.793h325.219l-355.173-355.173c-17.118-17.118-17.118-42.793 0-59.908 8.557-8.557 17.118-12.839 29.954-12.839s21.396 4.279 29.954 12.839l355.173 355.173v-325.219c0-25.675 17.118-42.793 42.793-42.793s42.793 17.118 42.793 42.793v427.919c0 4.279 0 12.839-4.279 17.118z" />
<glyph unicode="&#xe912;" glyph-name="check" d="M885.792 589.913c-17.118 17.118-42.793 17.118-59.908 0l-440.757-440.757-184.006 184.006c-17.118 17.118-42.793 17.118-59.908 0s-17.118-42.793 0-59.908l213.96-213.96c8.557-8.557 17.118-12.839 29.954-12.839s21.396 4.279 29.954 12.839l470.711 470.711c17.118 17.118 17.118 42.793 0 59.908z" />
<glyph unicode="&#xe913;" glyph-name="bar-chart" d="M179.375 180.595c0 12.813-10.25 25.625-25.625 25.625h-128.125c-15.375 0-25.625-12.813-25.625-25.625v-410c0-12.813 10.25-25.625 25.625-25.625h128.125c15.375 0 25.625 12.813 25.625 25.625v410zM461.25 744.346c0 15.375-12.813 25.625-25.625 25.625h-128.125c-15.375 0-25.625-10.25-25.625-25.625v-973.751c0-12.813 10.25-25.625 25.625-25.625h128.125c12.813 0 25.625 12.813 25.625 25.625v973.751zM743.126 462.47c0 15.375-12.813 25.625-25.625 25.625h-128.125c-12.813 0-25.625-10.25-25.625-25.625v-691.876c0-12.813 12.813-25.625 25.625-25.625h128.125c12.813 0 25.625 12.813 25.625 25.625v691.876zM1025.001-50.030c0 12.813-12.813 25.625-25.625 25.625h-128.125c-12.813 0-25.625-12.813-25.625-25.625v-179.375c0-12.813 12.813-25.625 25.625-25.625h128.125c12.813 0 25.625 12.813 25.625 25.625v179.375z" />
<glyph unicode="&#xe914;" glyph-name="heart1" d="M920.026 649.822v0c-51.35 51.35-119.818 81.304-192.564 81.304v0c-72.746 0-145.493-29.954-196.843-81.304 0 0 0 0 0 0l-17.118-17.118-17.118 17.118c-51.35 51.35-119.818 81.304-196.843 81.304-72.746 0-141.214-29.954-192.564-81.304s-85.583-124.096-85.583-196.843 29.954-145.493 81.304-196.843l376.569-376.569c8.557-8.557 17.118-12.839 29.954-12.839s21.396 4.279 29.954 12.839l376.569 376.569c115.539 106.979 115.539 286.706 4.279 393.685zM860.117 316.044l-346.614-346.614-346.614 346.614c-77.025 77.025-77.025 196.843 0 273.868 34.232 38.514 85.583 55.629 132.655 55.629 51.35 0 98.421-17.118 136.934-55.629l47.071-47.071c17.118-17.118 42.793-17.118 59.908 0l42.793 47.071c0 0 0 0 0 0 38.514 34.232 85.583 55.629 141.214 55.629 0 0 0 0 0 0 51.35 0 98.421-21.396 136.934-55.629v0c34.232-38.514 55.629-85.583 55.629-136.934s-21.396-98.421-59.908-136.934z" />
<glyph unicode="&#xe915;" glyph-name="settings" d="M513.502 474.375c-94.143 0-171.168-77.025-171.168-171.168s77.025-171.168 171.168-171.168c94.143 0 171.168 77.025 171.168 171.168s-77.025 171.168-171.168 171.168zM513.502 217.623c-47.071 0-85.583 38.514-85.583 85.583s38.514 85.583 85.583 85.583c47.071 0 85.583-38.514 85.583-85.583s-38.514-85.583-85.583-85.583zM868.675 157.714c4.279 8.557 12.839 17.118 29.954 17.118 72.746 0 128.375 55.629 128.375 128.375s-55.629 128.375-128.375 128.375h-8.557c-8.557 0-17.118 4.279-21.396 12.839 0 4.279 0 4.279-4.279 8.557-4.279 8.557-4.279 21.396 8.557 34.232 51.35 51.35 51.35 132.655 0 179.726v0c0 0 0 0 0 0-25.675 25.675-55.629 38.514-89.864 38.514 0 0 0 0 0 0-34.232 0-68.468-12.839-94.143-38.514-8.557-8.557-21.396-8.557-29.954-4.279-8.557 0-17.118 12.839-17.118 25.675 0 72.746-55.629 128.375-128.375 128.375s-128.375-55.629-128.375-128.375v-8.557c0-8.557-4.279-17.118-12.839-21.396-4.279 0-4.279 0-8.557-4.279-8.557-4.279-21.396 0-34.232 8.557-51.35 51.35-132.655 51.35-179.726 0-51.35-51.35-51.35-132.655 4.279-184.006 8.557-8.557 8.557-21.396 4.279-34.232-4.279-8.557-17.118-17.118-29.954-17.118-72.746 0-128.375-55.629-128.375-128.375s55.629-128.375 128.375-128.375h8.557c12.839 0 21.396-8.557 25.675-17.118s4.279-21.396-8.557-34.232c-25.675-25.675-38.514-55.629-38.514-89.864s12.839-64.189 38.514-89.864c0 0 0 0 0 0 51.35-51.35 132.655-51.35 184.006 4.279 8.557 8.557 21.396 8.557 34.232 4.279s17.118-12.839 17.118-29.954c0-72.746 55.629-128.375 128.375-128.375s128.375 55.629 128.375 128.375v8.557c0 12.839 8.557 21.396 17.118 25.675s21.396 4.279 34.232-8.557c51.35-51.35 132.655-51.35 179.726 0 51.35 51.35 51.35 132.655-4.279 184.006-4.279 8.557-8.557 21.396-4.279 29.954 0 0 0 0 0 0zM791.65 191.948c-17.118-42.793-8.557-89.864 25.675-128.375 8.557-8.557 12.839-17.118 12.839-29.954s-4.279-21.396-12.839-29.954c-8.557-8.557-17.118-12.839-29.954-12.839 0 0 0 0 0 0-12.839 0-21.396 4.279-34.232 17.118-34.232 34.232-81.304 42.793-124.096 21.396-42.793-17.118-68.468-59.908-68.468-102.7v-8.557c0-25.675-17.118-42.793-42.793-42.793s-42.793 17.118-42.793 42.793c0 0 0 4.279 0 4.279 0 47.071-29.954 85.583-72.746 102.7-12.839 8.557-29.954 8.557-47.071 8.557-29.954 0-59.908-12.839-81.304-34.232-17.118-17.118-42.793-17.118-59.908 0 0 0 0 0 0 0v0c-8.557 8.557-12.839 17.118-12.839 29.954s4.279 21.396 17.118 34.232c34.232 34.232 42.793 81.304 21.396 124.096-17.118 42.793-59.908 68.468-102.7 68.468h-8.557c-25.675 0-42.793 17.118-42.793 42.793s17.118 42.793 42.793 42.793c0 0 4.279 0 4.279 0 47.071 0 85.583 29.954 102.7 72.746s8.557 89.864-25.675 128.375c-17.118 17.118-17.118 42.793 0 59.908s42.793 17.118 64.189-4.279c29.954-29.954 77.025-38.514 115.539-25.675 4.279 0 8.557 0 12.839 4.279 42.793 17.118 68.468 59.908 68.468 102.7v8.557c0 25.675 17.118 42.793 42.793 42.793s42.793-17.118 42.793-47.071c0-47.071 25.675-85.583 68.468-102.7s89.864-8.557 128.375 25.675c8.557 8.557 17.118 12.839 29.954 12.839v0c12.839 0 21.396-4.279 29.954-12.839 0 0 0 0 0 0 17.118-17.118 17.118-42.793-4.279-64.189-29.954-29.954-38.514-77.025-25.675-115.539 0-4.279 0-8.557 4.279-12.839 17.118-42.793 59.908-68.468 102.7-68.468h8.557c25.675 0 42.793-17.118 42.793-42.793s-17.118-42.793-47.071-42.793c-42.793 0-85.583-25.675-102.7-68.468z" />
<glyph unicode="&#xe916;" glyph-name="zoom-in" d="M928.585-51.965l-158.33 158.33c51.35 64.189 85.583 149.771 85.583 239.635 0 213.96-171.168 385.127-385.127 385.127s-385.127-171.168-385.127-385.127c0-213.96 171.168-385.127 385.127-385.127 89.864 0 175.446 29.954 239.635 85.583l158.33-158.33c8.557-8.557 21.396-12.839 29.954-12.839s21.396 4.279 29.954 12.839c17.118 17.118 17.118 42.793 0 59.908zM171.168 346c0 166.889 132.655 299.544 299.544 299.544s299.544-132.655 299.544-299.544c0-81.304-34.232-158.33-85.583-209.681 0 0 0 0 0 0s0 0 0 0c-55.629-55.629-128.375-85.583-209.681-85.583-171.168-4.279-303.822 128.375-303.822 295.264zM599.086 388.79h-85.583v85.583c0 25.675-17.118 42.793-42.793 42.793s-42.793-17.118-42.793-42.793v-85.583h-85.583c-25.675 0-42.793-17.118-42.793-42.793s17.118-42.793 42.793-42.793h85.583v-85.583c0-25.675 17.118-42.793 42.793-42.793s42.793 17.118 42.793 42.793v85.583h85.583c25.675 0 42.793 17.118 42.793 42.793s-17.118 42.793-42.793 42.793z" />
<glyph unicode="&#xe917;" glyph-name="zoom-out" d="M928.585-51.965l-158.33 158.33c51.35 64.189 85.583 149.771 85.583 239.635 0 213.96-171.168 385.127-385.127 385.127s-385.127-171.168-385.127-385.127c0-213.96 171.168-385.127 385.127-385.127 89.864 0 175.446 29.954 239.635 85.583l158.33-158.33c8.557-8.557 21.396-12.839 29.954-12.839s21.396 4.279 29.954 12.839c17.118 17.118 17.118 42.793 0 59.908zM171.168 346c0 166.889 132.655 299.544 299.544 299.544s299.544-132.655 299.544-299.544c0-81.304-34.232-158.33-85.583-209.681 0 0 0 0 0 0s0 0 0 0c-55.629-55.629-128.375-85.583-209.681-85.583-171.168-4.279-303.822 128.375-303.822 295.264zM599.086 388.79h-256.751c-25.675 0-42.793-17.118-42.793-42.793s17.118-42.793 42.793-42.793h256.751c25.675 0 42.793 17.118 42.793 42.793s-17.118 42.793-42.793 42.793z" />
<glyph unicode="&#xe918;" glyph-name="chevron-down" d="M800.209 461.537c-17.118 17.118-42.793 17.118-59.908 0l-226.796-226.796-226.796 226.796c-17.118 17.118-42.793 17.118-59.908 0s-17.118-42.793 0-59.908l256.751-256.751c8.557-8.557 21.396-12.839 29.954-12.839s21.396 4.279 29.954 12.839l256.751 256.751c17.118 17.118 17.118 42.793 0 59.908z" />
<glyph unicode="&#xe919;" glyph-name="chevron-left" d="M445.036 303.207l226.796 226.796c17.118 17.118 17.118 42.793 0 59.908s-42.793 17.118-59.908 0l-256.751-256.751c-17.118-17.118-17.118-42.793 0-59.908l256.751-256.751c8.557-8.557 21.396-12.839 29.954-12.839s21.396 4.279 29.954 12.839c17.118 17.118 17.118 42.793 0 59.908l-226.796 226.796z" />
<glyph unicode="&#xe91a;" glyph-name="chevron-right" d="M671.833 333.162l-256.751 256.751c-17.118 17.118-42.793 17.118-59.908 0s-17.118-42.793 0-59.908l226.796-226.796-226.796-226.796c-17.118-17.118-17.118-42.793 0-59.908 8.557-8.557 17.118-12.839 29.954-12.839s21.396 4.279 29.954 12.839l256.751 256.751c17.118 17.118 17.118 42.793 0 59.908z" />
<glyph unicode="&#xe91b;" glyph-name="chevron-up" d="M800.209 204.786l-256.751 256.751c-17.118 17.118-42.793 17.118-59.908 0l-256.751-256.751c-17.118-17.118-17.118-42.793 0-59.908s42.793-17.118 59.908 0l226.796 226.796 226.796-226.796c8.557-8.557 21.396-12.839 29.954-12.839s21.396 4.279 29.954 12.839c17.118 17.118 17.118 42.793 0 59.908z" />
<glyph unicode="&#xe91c;" glyph-name="menu" d="M898.631 346h-770.254c-25.675 0-42.793-17.118-42.793-42.793s17.118-42.793 42.793-42.793h770.254c25.675 0 42.793 17.118 42.793 42.793s-17.118 42.793-42.793 42.793zM128.375 517.166h770.254c25.675 0 42.793 17.118 42.793 42.793s-17.118 42.793-42.793 42.793h-770.254c-25.675 0-42.793-17.118-42.793-42.793s17.118-42.793 42.793-42.793zM898.631 89.248h-770.254c-25.675 0-42.793-17.118-42.793-42.793s17.118-42.793 42.793-42.793h770.254c25.675 0 42.793 17.118 42.793 42.793s-17.118 42.793-42.793 42.793z" />
<glyph unicode="&#xe91d;" glyph-name="download" d="M898.631 217.623c-25.675 0-42.793-17.118-42.793-42.793v-171.168c0-25.675-17.118-42.793-42.793-42.793h-599.086c-25.675 0-42.793 17.118-42.793 42.793v171.168c0 25.675-17.118 42.793-42.793 42.793s-42.793-17.118-42.793-42.793v-171.168c0-72.746 55.629-128.375 128.375-128.375h599.086c72.746 0 128.375 55.629 128.375 128.375v171.168c0 25.675-17.118 42.793-42.793 42.793zM483.548 144.877c4.279-4.279 8.557-8.557 12.839-8.557 4.279-4.279 12.839-4.279 17.118-4.279s12.839 0 17.118 4.279c4.279 4.279 8.557 4.279 12.839 8.557l213.96 213.96c17.118 17.118 17.118 42.793 0 59.908s-42.793 17.118-59.908 0l-141.214-141.214v410.802c0 25.675-17.118 42.793-42.793 42.793s-42.793-17.118-42.793-42.793v-410.802l-141.214 141.214c-17.118 17.118-42.793 17.118-59.908 0s-17.118-42.793 0-59.908l213.96-213.96z" />
<glyph unicode="&#xe91e;" glyph-name="minus" d="M813.046 346h-599.086c-25.675 0-42.793-17.118-42.793-42.793s17.118-42.793 42.793-42.793h599.086c25.675 0 42.793 17.118 42.793 42.793s-17.118 42.793-42.793 42.793z" />
<glyph unicode="&#xe91f;" glyph-name="plus" d="M813.046 346h-256.751v256.751c0 25.675-17.118 42.793-42.793 42.793s-42.793-17.118-42.793-42.793v-256.751h-256.751c-25.675 0-42.793-17.118-42.793-42.793s17.118-42.793 42.793-42.793h256.751v-256.751c0-25.675 17.118-42.793 42.793-42.793s42.793 17.118 42.793 42.793v256.751h256.751c25.675 0 42.793 17.118 42.793 42.793s-17.118 42.793-42.793 42.793z" />
<glyph unicode="&#xe920;" glyph-name="add-cell" d="M417.221 806.012h-385.127c-17.974 0-32.093-14.122-32.093-32.093v-385.127c0-17.974 14.122-32.093 32.093-32.093h385.127c17.974 0 32.093 14.122 32.093 32.093v385.127c0 17.974-14.122 32.093-32.093 32.093zM994.913 228.321h-385.127c-17.974 0-32.093-14.122-32.093-32.093v-385.127c0-17.974 14.122-32.093 32.093-32.093h385.127c17.974 0 32.093 14.122 32.093 32.093v385.127c0 17.974-14.122 32.093-32.093 32.093zM417.221 228.321h-385.127c-17.974 0-32.093-14.122-32.093-32.093v-385.127c0-17.974 14.122-32.093 32.093-32.093h385.127c17.974 0 32.093 14.122 32.093 32.093v385.127c0 17.974-14.122 32.093-32.093 32.093zM609.784 549.26h160.47v-160.47c0-17.974 14.122-32.093 32.093-32.093s32.093 14.122 32.093 32.093v160.47h160.47c17.974 0 32.093 14.122 32.093 32.093s-14.122 32.093-32.093 32.093h-160.47v160.47c0 17.974-14.122 32.093-32.093 32.093s-32.093-14.122-32.093-32.093v-160.47h-160.47c-17.974 0-32.093-14.122-32.093-32.093s14.122-32.093 32.093-32.093z" />
<glyph unicode="&#xe921;" glyph-name="alert" d="M1008.806 3.417l-439.572 769.251c-11.427 19.999-32.696 32.342-55.73 32.342s-44.303-12.342-55.73-32.342l-439.572-769.251c-11.353-19.865-11.271-44.273 0.214-64.064s32.636-31.969 55.516-31.969h879.146c22.88 0 44.033 12.18 55.516 31.969s11.567 44.197 0.214 64.064zM577.691 35.757h-128.375v128.375h128.375v-128.375zM577.691 228.321h-128.375v256.751h128.375v-256.751z" />
<glyph unicode="&#xe922;" glyph-name="calendar" d="M886.959 665.965h-46.682v46.682c0 23.342-23.342 46.682-46.682 46.682s-46.682-23.342-46.682-46.682v-46.682h-466.821v46.682c0 23.342-23.342 46.682-46.682 46.682s-46.682-23.342-46.682-46.682v-46.682h-46.682c-79.358 0-140.046-60.686-140.046-140.046v-606.867c0-74.692 60.686-140.046 140.046-140.046h746.913c79.358 0 140.046 65.356 140.046 140.046v606.867c0 79.358-60.686 140.046-140.046 140.046zM933.642-80.948c0-23.342-23.342-46.682-46.682-46.682h-746.913c-23.342 0-46.682 23.342-46.682 46.682v420.138h840.278v-420.138zM93.364 432.555v93.364c0 23.342 23.342 46.682 46.682 46.682h46.682v-46.682c0-23.342 23.342-46.682 46.682-46.682s46.682 23.342 46.682 46.682v46.682h466.821v-46.682c0-23.342 23.342-46.682 46.682-46.682s46.682 23.342 46.682 46.682v46.682h46.682c23.342 0 46.682-23.342 46.682-46.682v-93.364h-840.278zM373.457 245.827h93.364v-93.364h-93.364v93.364zM560.185 245.827h93.364v-93.364h-93.364v93.364zM186.728 59.098h93.364v-93.364h-93.364v93.364zM373.457 59.098h93.364v-93.364h-93.364v93.364zM560.185 59.098h93.364v-93.364h-93.364v93.364zM746.913 245.827h93.364v-93.364h-93.364v93.364z" />
<glyph unicode="&#xe923;" glyph-name="checkmark" d="M346.614-51.539l-272.157 272.157c-33.379 33.379-38.514 89.864-7.704 128.375 35.945 38.514 94.999 38.514 130.944 2.569l169.455-169.455c5.135-5.135 12.839-5.135 15.405 0l444.18 444.18c35.945 35.945 94.999 35.945 130.944-2.569 33.379-35.945 28.244-92.43-7.704-128.375l-544.314-544.314c-15.405-20.54-43.649-20.54-59.054-2.569z" />
<glyph unicode="&#xe924;" glyph-name="cog-thick" d="M988.492 397.777h-92.43c-7.704 30.81-20.54 61.62-35.945 89.864l64.189 64.189c15.405 15.405 15.405 41.080 0 53.919l-94.999 97.565c-15.405 15.405-41.080 15.405-53.919 0l-66.755-66.755c-28.244 15.405-56.485 28.244-87.295 35.945v94.999c0 20.54-17.974 38.514-38.514 38.514h-133.51c-20.54 0-38.514-17.974-38.514-38.514v-94.999c-30.81-7.704-61.62-20.54-87.295-35.945l-69.324 66.755c-15.405 15.405-41.080 15.405-56.485 0l-94.999-94.999c-15.405-15.405-15.405-41.080 0-56.485l64.189-64.189c-15.405-28.244-28.244-56.485-35.945-89.864h-92.43c-20.54 0-38.514-17.974-38.514-38.514v-133.51c0-20.54 17.974-38.514 38.514-38.514h92.43c7.704-30.81 20.54-61.62 35.945-89.864l-64.189-64.189c-15.405-15.405-15.405-41.080 0-53.919l94.999-97.565c15.405-15.405 41.080-15.405 53.919 0l66.755 66.755c28.244-15.405 56.485-28.244 87.295-35.945v-94.999c0-20.54 17.974-38.514 38.514-38.514h133.51c20.54 0 38.514 17.974 38.514 38.514v94.999c30.81 7.704 61.62 20.54 87.295 35.945l66.755-66.755c15.405-15.405 41.080-15.405 53.919 0l94.999 94.999c15.405 15.405 15.405 41.080 0 53.919l-64.189 64.189c15.405 28.244 28.244 56.485 35.945 89.864h92.43c20.54 0 38.514 17.974 38.514 38.514v133.51c5.135 25.675-12.839 41.080-33.379 41.080zM513.502 76.838c-118.105 0-215.671 97.565-215.671 215.671s97.565 215.671 215.671 215.671 215.671-97.565 215.671-215.671-97.565-215.671-215.671-215.671z" />
<glyph unicode="&#xe925;" glyph-name="dashboards" horiz-adv-x="1074" d="M933.642 665.965h-793.595c-79.358 0-140.046-60.686-140.046-140.046v-466.821c0-74.692 60.686-140.046 140.046-140.046h793.595c79.358 0 140.046 65.356 140.046 140.046v466.821c0 79.358-60.686 140.046-140.046 140.046zM93.364 525.919c0 23.342 23.342 46.682 46.682 46.682h186.728v-233.41h-233.41v186.728zM140.046 12.416c-23.342 0-46.682 23.342-46.682 46.682v186.728h233.41v-233.41h-186.728zM420.138 12.416v233.41h233.41v-233.41h-233.41zM980.323 59.098c0-23.342-23.342-46.682-46.682-46.682h-186.728v233.41h233.41v-186.728zM420.138 339.19v233.41h513.502c23.342 0 46.682-23.342 46.682-46.682v-186.728h-560.185z" />
<glyph unicode="&#xe926;" glyph-name="data-explorer" d="M934.576 428.587c-25.675 15.405-56.485 17.974-82.16 7.704l-120.674 161.754c2.569 2.569 2.569 5.135 5.135 7.704 28.244 48.784 10.27 112.97-38.514 141.214s-112.97 10.27-141.214-38.514c-25.675-43.649-12.839-100.134 25.675-130.944l-197.699-546.881c-12.839 0-23.109-2.569-35.945-5.135l-120.674 159.185c2.569 2.569 2.569 5.135 5.135 7.704 28.244 48.784 10.27 112.97-38.514 141.214s-110.404 10.27-138.645-38.514-10.27-112.97 38.514-141.214c25.675-15.405 56.485-17.974 84.729-7.704l120.674-159.185c-2.569-2.569-2.569-2.569-5.135-5.135-28.244-48.784-10.27-112.97 38.514-141.214s112.97-10.27 141.214 38.514c25.675 46.215 12.839 102.7-25.675 133.51l192.564 541.746c12.839 0 23.109 2.569 35.945 5.135l120.674-159.185c-2.569-2.569-2.569-5.135-5.135-7.704-28.244-48.784-10.27-112.97 38.514-141.214s112.97-10.27 141.214 38.514 10.27 110.404-38.514 138.645z" />
<glyph unicode="&#xe927;" glyph-name="ui-download" d="M408.235 271.968h-125.809c-35.945 0-56.485-46.215-28.244-71.89l259.319-259.319 261.886 261.886c28.244 28.244 7.704 71.89-28.244 71.89l-128.375-2.569-5.135 431.342c0 59.054-46.215 102.7-102.7 102.7-59.054 0-102.7-46.215-102.7-102.7v-431.342zM911.467 35.757v-51.35c0-48.784-41.080-89.864-89.864-89.864h-616.204c-48.784 0-89.864 41.080-89.864 89.864v51.35c0 20.54-17.974 38.514-38.514 38.514s-38.514-17.974-38.514-38.514v-51.35c0-92.43 74.459-166.889 166.889-166.889h616.204c92.43 0 166.889 74.459 166.889 166.889v51.35c0 20.54-17.974 38.514-38.514 38.514v0c-20.54 0-38.514-17.974-38.514-38.514z" />
<glyph unicode="&#xe928;" glyph-name="duplicate" d="M924.306 806.012h-564.854c-56.485 0-102.7-46.215-102.7-102.7v-154.050h-154.050c-56.485 0-102.7-46.215-102.7-102.7v-564.854c0-56.485 46.215-102.7 102.7-102.7h564.854c56.485 0 102.7 46.215 102.7 102.7v154.050h154.050c56.485 0 102.7 46.215 102.7 102.7v564.854c0 56.485-46.215 102.7-102.7 102.7zM693.229-118.294c0-12.839-12.839-25.675-25.675-25.675h-564.854c-12.839 0-25.675 12.839-25.675 25.675v564.854c0 12.839 12.839 25.675 25.675 25.675h154.050v-333.777c0-56.485 46.215-102.7 102.7-102.7h333.777v-154.050z" />
<glyph unicode="&#xe929;" glyph-name="export" d="M205.401 767.498h231.076c20.54 0 38.514-17.974 38.514-38.514s-17.974-38.514-38.514-38.514h-231.076c-48.784 0-89.864-41.080-89.864-89.864v-616.204c0-48.784 41.080-89.864 89.864-89.864h616.204c48.784 0 89.864 41.080 89.864 89.864v231.076c0 20.54 17.974 38.514 38.514 38.514s38.514-17.974 38.514-38.514v-231.076c0-92.43-74.459-166.889-166.889-166.889h-616.204c-92.43 0-166.889 74.459-166.889 166.889v616.204c0 92.43 74.459 166.889 166.889 166.889zM680.391 605.746l-89.864 89.864c-25.675 25.675-7.704 71.89 30.81 71.89h369.722v-369.722c0-38.514-46.215-56.485-71.89-30.81l-89.864 89.864-251.616-251.616c-41.080-41.080-105.269-41.080-146.349 0s-41.080 105.269 0 146.349l249.049 254.184z" />
<glyph unicode="&#xe92a;" glyph-name="fullscreen" d="M872.955 61.432c0-12.839-12.839-25.675-25.675-25.675h-667.554c-12.839 0-25.675 12.839-25.675 25.675v462.152c0 12.839 12.839 25.675 25.675 25.675h667.554c12.839 0 25.675-12.839 25.675-25.675v-462.152zM89.864 626.286h154.050c7.704 0 12.839 5.135 12.839 12.839v51.35c0 7.704-5.135 12.839-12.839 12.839h-166.889c-43.649 0-77.025-33.379-77.025-77.025v-166.889c0-7.704 5.135-12.839 12.839-12.839h51.35c7.704 0 12.839 5.135 12.839 12.839v154.050c0 7.704 5.135 12.839 12.839 12.839zM77.025-28.43v154.050c0 7.704-5.135 12.839-12.839 12.839h-51.35c-7.704 0-12.839-5.135-12.839-12.839v-166.889c0-43.649 33.379-77.025 77.025-77.025h166.889c7.704 0 12.839 5.135 12.839 12.839v51.35c0 7.704-5.135 12.839-12.839 12.839h-154.050c-7.704 0-12.839 5.135-12.839 12.839zM937.142-41.269h-154.050c-7.704 0-12.839-5.135-12.839-12.839v-51.35c0-7.704 5.135-12.839 12.839-12.839h166.889c43.649 0 77.025 33.379 77.025 77.025v166.889c0 7.704-5.135 12.839-12.839 12.839h-51.35c-7.704 0-12.839-5.135-12.839-12.839v-154.050c0-7.704-5.135-12.839-12.839-12.839zM949.981 613.448v-154.050c0-7.704 5.135-12.839 12.839-12.839h51.35c7.704 0 12.839 5.135 12.839 12.839v166.889c0 43.649-33.379 77.025-77.025 77.025h-166.889c-7.704 0-12.839-5.135-12.839-12.839v-51.35c0-7.704 5.135-12.839 12.839-12.839h154.050c7.704 0 12.839-5.135 12.839-12.839z" />
<glyph unicode="&#xe92b;" glyph-name="influx-icon" d="M1027.006 143.127c0 0 0 0 0 0 0 9.336 0 14.006 0 18.672 0 0 0 0 0 0s0 0 0 0 0 0 0 0l-112.036 466.821c0 4.67-4.67 9.336-4.67 14.006 0 0 0 4.67-4.67 4.67-4.67 4.67-4.67 4.67-9.336 9.336 0 0 0 0 0 0-4.67 0-9.336 4.67-9.336 4.67l-466.821 140.046c-9.336 4.67-14.006 4.67-14.006 4.67s0 0 0 0c-9.336 0-14.006 0-18.672-4.67 0 0-4.67 0-4.67 0-4.67 0-9.336-4.67-14.006-9.336l-354.783-326.774c0 0 0 0 0 0s0 0 0 0 0 0 0 0c-4.67 0-4.67-4.67-9.336-9.336 0 0 0-4.67 0-4.67-4.67-4.67-4.67-9.336-4.67-14.006 0 0 0 0 0 0 0-4.67 0-9.336 0-14.006l112.036-466.821c0-4.67 0-4.67 4.67-9.336 0 0 0 0 0 0 4.67-4.67 4.67-9.336 9.336-14.006 0 0 0 0 4.67-4.67s9.336-4.67 14.006-9.336c0 0 0 0 0 0s0 0 0 0 0 0 0 0l466.821-140.046c4.67 0 9.336 0 14.006 0s9.336 0 14.006 4.67c0 0 4.67 0 4.67 0 4.67 0 4.67 4.67 9.336 4.67 0 0 0 0 0 0l354.783 326.774c4.67 4.67 4.67 4.67 9.336 9.336 0 0 0 0 0 0 4.67 4.67 4.67 9.336 9.336 18.672zM214.737-1.588l56.020 172.724 378.125-112.036-56.020-172.724-378.125 112.036zM401.466 693.975l126.042-135.378-284.761-261.42-130.71 135.378 289.429 261.42zM924.306 185.14l-182.060-42.014-88.696 378.125 182.060 42.014 88.696-378.125zM569.522 469.901l74.692-312.77-312.77 93.364 238.078 219.406zM611.535 609.947l-51.35 51.35 126.042-37.344-74.692-14.006zM130.71 273.836l56.020-56.020-23.342-74.692-32.678 130.71zM742.245 49.762l74.692 18.672-98.033-93.364 23.342 74.692z" />
<glyph unicode="&#xe92c;" glyph-name="note" d="M1027.006 651.961c0-15.405-12.839-25.675-25.675-25.675h-539.179c-12.839 0-25.675 10.27-25.675 25.675v128.375c0 15.405 12.839 25.675 25.675 25.675h539.179c12.839 0 25.675-10.27 25.675-25.675v-128.375zM1027.006 369.535c0-12.839-12.839-25.675-25.675-25.675h-975.656c-15.405 0-25.675 12.839-25.675 25.675v128.375c0 15.405 10.27 25.675 25.675 25.675h975.656c12.839 0 25.675-10.27 25.675-25.675v-128.375zM1027.006 87.108c0-12.839-12.839-25.675-25.675-25.675h-975.656c-15.405 0-25.675 12.839-25.675 25.675v128.375c0 12.839 10.27 25.675 25.675 25.675h975.656c12.839 0 25.675-12.839 25.675-25.675v-128.375zM590.529-195.319c0-12.839-12.839-25.675-25.675-25.675h-539.179c-15.405 0-25.675 12.839-25.675 25.675v128.375c0 12.839 10.27 25.675 25.675 25.675h539.179c12.839 0 25.675-12.839 25.675-25.675v-128.375z" />
<glyph unicode="&#xe92d;" glyph-name="organizations" horiz-adv-x="934" d="M788.927 488.574c32.678 37.344 51.35 79.358 51.35 130.71 0 102.7-84.028 186.728-186.728 186.728s-186.728-84.028-186.728-186.728c0-51.35 18.672-93.364 51.35-130.71-18.672-9.336-37.344-23.342-51.35-37.344-9.336 93.364-88.696 168.056-186.728 168.056-102.7 0-186.728-84.028-186.728-186.728 0-51.35 18.672-93.364 51.35-126.042-84.028-46.682-144.714-140.046-144.714-247.415v-186.728c0-51.35 42.014-93.364 93.364-93.364h373.457c51.35 0 93.364 42.014 93.364 93.364v93.364h280.093c51.35 0 93.364 42.014 93.364 93.364v177.392c0 107.37-56.020 205.401-144.714 252.083zM653.549 712.648c51.35 0 93.364-42.014 93.364-93.364s-42.014-93.364-93.364-93.364c-51.35 0-93.364 42.014-93.364 93.364s42.014 93.364 93.364 93.364zM186.728 432.555c0 51.35 42.014 93.364 93.364 93.364s93.364-42.014 93.364-93.364c0-51.35-42.014-93.364-93.364-93.364s-93.364 42.014-93.364 93.364zM466.821-127.63h-373.457v186.728c0 102.7 84.028 186.728 186.728 186.728s186.728-84.028 186.728-186.728v-186.728zM840.278 59.098h-280.093c0 79.358-37.344 154.050-88.696 205.401 14.006 84.028 79.358 158.72 163.387 168.056 112.036 9.336 205.401-79.358 205.401-186.728v-186.728z" />
<glyph unicode="&#xe92e;" glyph-name="pause" d="M436.477-54.105c0-20.54-17.974-38.514-38.514-38.514h-128.375c-20.54 0-38.514 17.974-38.514 38.514v693.229c0 20.54 17.974 38.514 38.514 38.514h128.375c20.54 0 38.514-17.974 38.514-38.514v-693.229zM795.93-54.105c0-20.54-17.974-38.514-38.514-38.514h-128.375c-20.54 0-38.514 17.974-38.514 38.514v693.229c0 20.54 17.974 38.514 38.514 38.514h128.375c20.54 0 38.514-17.974 38.514-38.514v-693.229z" />
<glyph unicode="&#xe92f;" glyph-name="pencil" horiz-adv-x="899" d="M706.067 741.823l-128.375-128.375 192.564-192.564 128.375 128.375-192.564 192.564zM0 35.757l0.691-193.127 191.873 0.565 513.502 513.502-192.564 192.564-513.502-513.502zM192.564-92.619h-128.375v128.375h64.189v-64.189h64.189v-64.189z" />
<glyph unicode="&#xe930;" glyph-name="play" d="M785.659 320.751l-459.585 400.532c-17.974 15.405-43.649 2.569-43.649-17.974v-821.605c0-23.109 25.675-33.379 43.649-20.54l459.585 400.532c15.405 17.974 15.405 43.649 0 59.054z" />
<glyph unicode="&#xe931;" glyph-name="ui-plus" d="M932.007 382.372h-302.967c-12.839 0-25.675 10.27-25.675 25.675v302.967c0 48.784-35.945 92.43-84.729 94.999-51.35 2.569-94.999-38.514-94.999-89.864v-308.102c0-12.839-10.27-25.675-25.675-25.675h-302.967c-48.784 0-92.43-35.945-94.999-84.729-2.569-51.35 38.514-94.999 89.864-94.999h308.102c12.839 0 25.675-10.27 25.675-25.675v-302.967c0-48.784 35.945-92.43 84.729-94.999 51.35-2.569 94.999 38.514 94.999 89.864v308.102c0 12.839 10.27 25.675 25.675 25.675h308.102c51.35 0 92.43 43.649 89.864 94.999-2.569 48.784-46.215 84.729-94.999 84.729z" />
<glyph unicode="&#xe932;" glyph-name="refresh" d="M876.806 655.812c-77.025 77.025-176.516 127.734-285.636 144.423-135.436 20.54-270.873-12.839-381.918-93.714-110.404-81.519-182.935-200.908-203.476-336.344-5.135-35.302 18.614-68.038 53.919-73.173 3.209-0.643 6.418-0.643 9.627-0.643 31.453 0 58.411 22.466 63.546 54.559 15.405 101.417 69.964 191.28 152.767 252.258s184.861 86.012 286.278 70.607c82.16-12.196 156.619-50.708 214.387-108.478l-144.423-144.423h385.127v385.127l-150.2-150.2zM967.312 288.016c-35.302 5.135-68.038-18.614-73.173-53.919-32.093-209.895-229.151-354.959-439.045-322.865-81.519 12.196-156.619 50.708-214.387 108.478l144.423 144.423h-385.127v-385.127l150.2 150.2c77.025-77.025 177.159-127.734 285.636-144.423 26.318-3.852 51.993-5.778 77.668-5.778 249.049 0 468.572 182.294 507.084 435.836 5.778 35.302-17.974 68.038-53.276 73.173z" />
<glyph unicode="&#xe933;" glyph-name="remove" d="M641.879 292.508l236.853 236.853c25.032 25.032 25.032 66.114 0 90.504l-37.871 37.871c-25.032 25.032-66.114 25.032-90.504 0l-236.853-236.853-236.853 236.853c-25.032 25.032-66.114 25.032-90.504 0l-37.871-37.871c-25.032-25.032-25.032-66.114 0-90.504l236.853-236.853-236.853-236.853c-25.032-25.032-25.032-66.114 0-90.504l37.871-37.871c25.032-25.032 66.114-25.032 90.504 0l236.853 236.853 236.853-236.853c25.032-25.032 66.114-25.032 90.504 0l37.871 37.871c25.032 25.032 25.032 66.114 0 90.504l-236.853 236.853z" />
<glyph unicode="&#xe934;" glyph-name="alert-circle" d="M983.252 301.692c0 129.833-52.667 247.48-137.741 332.51s-202.679 137.741-332.51 137.741-247.48-52.667-332.51-137.741-137.741-202.679-137.741-332.51 52.667-247.48 137.741-332.51 202.679-137.741 332.51-137.741 247.48 52.667 332.51 137.741 137.741 202.679 137.741 332.51zM897.753 301.692c0-106.277-43.007-202.379-112.689-272.062s-165.785-112.689-272.062-112.689-202.379 43.007-272.062 112.689-112.689 165.785-112.689 272.062 43.007 202.379 112.689 272.062 165.785 112.689 272.062 112.689 202.379-43.007 272.062-112.689 112.689-165.785 112.689-272.062zM470.251 472.693v-171.001c0-23.598 19.153-42.751 42.751-42.751s42.751 19.153 42.751 42.751v171.001c0 23.598-19.153 42.751-42.751 42.751s-42.751-19.153-42.751-42.751zM513.001 87.942c23.598 0 42.751 19.153 42.751 42.751s-19.153 42.751-42.751 42.751-42.751-19.153-42.751-42.751 19.153-42.751 42.751-42.751z" />
<glyph unicode="&#xe935;" glyph-name="crown" d="M187.246-95.029c-28.216 0-51.3 20.52-58.996 46.17l-125.686 492.481c-5.13 17.956 2.566 38.476 17.956 48.736 15.39 12.826 35.91 12.826 53.866 2.566l233.416-148.77 166.726 246.24c7.696 12.826 23.086 20.52 38.476 20.52s30.78-7.696 38.476-20.52l169.29-246.24 233.416 148.77c15.39 10.26 38.476 10.26 53.866-2.566s23.086-30.78 17.956-51.3l-128.25-489.916c-7.696-28.216-30.78-46.17-58.996-46.17h-651.512zM202.636-28.339v0c0 0 0 0 0 0zM200.070-18.079h625.862l105.166 407.836-182.116-117.99c-28.216-17.956-64.126-10.26-82.080 15.39l-153.9 223.156-153.9-223.156c-17.956-25.65-53.866-33.346-82.080-17.956l-182.116 117.99 105.166-405.271zM995.223 430.797v0c0 0 0 0 0 0zM76.95 461.578v0c0 0 0 0 0 0zM949.053 461.578c0 0 0 0 0 0v0zM487.351 548.788c2.566 0 2.566 0 0 0v0zM536.087 548.788v0c0 0 0 0 0 0z" />
<glyph unicode="&#xe936;" glyph-name="trash" d="M937.142 677.637h-195.131l-66.755 110.404c-5.135 10.27-17.974 17.974-30.81 17.974h-261.886c-12.839 0-25.675-7.704-33.379-17.974l-64.189-110.404h-195.131c-20.54 0-38.514-17.974-38.514-38.514v-102.7c0-20.54 17.974-38.514 38.514-38.514h847.28c20.54 0 38.514 17.974 38.514 38.514v102.7c0 20.54-17.974 38.514-38.514 38.514zM405.667 728.987h215.671l30.81-51.35h-277.292l30.81 51.35zM860.117 446.56h-693.229c-10.27 0-20.54-5.135-28.244-12.839s-10.27-17.974-10.27-28.244l51.35-590.529c2.569-20.54 17.974-35.945 38.514-35.945h590.529c20.54 0 35.945 15.405 38.514 35.945l51.35 590.529c0 10.27-2.569 20.54-10.27 28.244s-17.974 12.839-28.244 12.839z" />
<glyph unicode="&#xe937;" glyph-name="triangle" d="M984.213 67.852l-359.452 607.645c-17.118 29.954-47.071 51.35-81.304 59.908s-68.468 4.279-98.421-12.839c-17.118-8.557-34.232-25.675-42.793-42.793 0 0 0 0 0 0l-359.452-611.924c-34.232-59.908-12.839-141.214 47.071-175.446 17.118-12.839 38.514-17.118 59.908-17.118h727.462c34.232 0 68.468 12.839 89.864 38.514 25.675 25.675 38.514 55.629 38.514 89.864-4.279 21.396-8.557 47.071-21.396 64.189zM907.188-26.29c-8.557-8.557-21.396-12.839-29.954-12.839h-727.462c-8.557 0-12.839 0-21.396 4.279-21.396 12.839-25.675 38.514-17.118 59.908l363.732 603.366c4.279 4.279 8.557 12.839 12.839 12.839 21.396 12.839 47.071 4.279 59.908-12.839l363.732-603.366c4.279-4.279 4.279-12.839 4.279-21.396 4.279-12.839-4.279-21.396-8.557-29.954z" />
<glyph unicode="&#xe938;" glyph-name="x" d="M573.411 303.207l226.796 226.796c17.118 17.118 17.118 42.793 0 59.908s-42.793 17.118-59.908 0l-226.796-226.796-226.796 226.796c-17.118 17.118-42.793 17.118-59.908 0s-17.118-42.793 0-59.908l226.796-226.796-226.796-226.796c-17.118-17.118-17.118-42.793 0-59.908 8.557-8.557 17.118-12.839 29.954-12.839s21.396 4.279 29.954 12.839l226.796 226.796 226.796-226.796c8.557-8.557 21.396-12.839 29.954-12.839s21.396 4.279 29.954 12.839c17.118 17.118 17.118 42.793 0 59.908l-226.796 226.796z" />
<glyph unicode="&#xe939;" glyph-name="wrench-2" d="M200.266-190.184c-43.649 0-87.295 17.974-120.674 51.35-28.244 25.675-48.784 71.89-48.784 118.105 0 43.649 17.974 84.729 48.784 118.105l331.209 328.642c-2.569 17.974-5.135 35.945-5.135 53.919 0 161.754 133.51 295.264 295.264 295.264 35.945 0 66.755-7.704 92.43-15.405s41.080-28.244 43.649-48.784c2.569-17.974 0-35.945-10.27-51.35l-5.135-7.704-110.404-110.404c-2.569-2.569-5.135-5.135-5.135-7.704s2.569-5.135 5.135-7.704l38.514-38.514c5.135-5.135 12.839-5.135 17.974 0l107.835 107.835c12.839 17.974 38.514 25.675 59.054 20.54 20.54-2.569 41.080-17.974 48.784-41.080 7.704-28.244 15.405-59.054 15.405-94.999 0-161.754-133.51-295.264-295.264-295.264-17.974 0-35.945 2.569-53.919 5.135l-331.209-331.209c-33.379-30.81-74.459-48.784-118.105-48.784zM700.932 698.177c-120.674 0-218.239-97.565-218.239-218.239 0-20.54 2.569-35.945 7.704-59.054l5.135-20.54-359.452-359.452c-17.974-17.974-28.244-41.080-28.244-61.62 0-17.974 7.704-46.215 25.675-61.62 38.514-38.514 94.999-38.514 128.375-5.135l359.452 359.452 20.54-5.135c17.974-5.135 35.945-7.704 56.485-7.704 120.674 0 218.239 97.565 218.239 218.239 0 15.405-2.569 28.244-5.135 46.215l-89.864-92.43c-35.945-35.945-89.864-35.945-125.809 0l-38.514 38.514c-17.974 17.974-25.675 38.514-25.675 64.189 0 23.109 10.27 46.215 25.675 64.189l94.999 94.999c-20.54 2.569-35.945 5.135-51.35 5.135z" />
<glyph unicode="&#xe93a;" glyph-name="chat" horiz-adv-x="882" d="M807.721 592.32h-734.293c-36.715 0-73.43-36.715-73.43-73.43v-440.575c0-36.715 36.715-73.43 73.43-73.43h293.717l293.717-220.288v220.288h146.858c36.715 0 73.43 36.715 73.43 73.43v440.575c0 36.715-36.715 73.43-73.43 73.43z" />
<glyph unicode="&#xe93b;" glyph-name="bell" horiz-adv-x="964" d="M947.697 53.075l-35.337 61.038c-12.852 22.488-25.7 41.764-35.337 57.824-35.337 54.612-54.612 86.739-67.464 150.988l-44.976 215.24c-25.7 138.14-147.776 234.515-285.915 237.727h-6.424c-141.352 0-266.64-106.013-289.128-247.365l-28.912-183.114c-12.852-86.739-38.552-131.714-86.739-208.815-6.424-12.852-16.064-25.7-22.488-41.764l-22.488-41.764c-25.7-41.764-25.7-96.376 0-138.14 19.276-44.976 67.464-70.676 118.864-70.676h215.24c12.852-54.612 64.252-96.376 125.288-96.376 57.824 0 112.439 41.764 125.288 96.376h215.24c48.188 0 99.588 25.7 125.288 70.676 22.488 41.764 22.488 96.376 0 138.14zM822.408-59.363h-681.056c-32.124 0-54.612 35.337-38.552 64.252l22.488 41.764c61.038 106.013 106.013 160.627 122.076 282.703l28.912 183.114c19.276 93.164 96.376 167.052 195.964 167.052h3.212c93.164 0 173.476-67.464 189.54-157.414l44.976-215.24c19.276-106.013 57.824-147.776 115.652-240.94l35.337-61.038c16.064-28.912-6.424-64.252-38.552-64.252z" />
<glyph unicode="&#xe93c;" glyph-name="disks-nav" d="M513.502 712.648c-163.387 0-326.774-42.014-326.774-140.046v-560.185c0-98.033 163.387-140.046 326.774-140.046s326.774 42.014 326.774 140.046v560.185c0 98.033-163.387 140.046-326.774 140.046zM746.913 390.541c-14.006-14.006-93.364-51.35-233.41-51.35s-219.406 37.344-233.41 51.35v79.358c60.686-23.342 149.383-37.344 233.41-37.344s172.724 14.006 233.41 37.344v-79.358zM746.913 203.813c-14.006-14.006-93.364-51.35-233.41-51.35s-219.406 37.344-233.41 51.35v79.358c60.686-23.342 149.383-37.344 233.41-37.344s172.724 14.006 233.41 37.344v-79.358zM513.502 619.284c130.71 0 205.401-28.008 228.742-46.682-23.342-18.672-98.033-46.682-228.742-46.682s-205.401 28.008-228.742 46.682c23.342 18.672 98.033 46.682 228.742 46.682zM513.502-34.266c-140.046 0-219.406 32.678-233.41 51.35v79.358c60.686-23.342 149.383-37.344 233.41-37.344s172.724 14.006 233.41 37.344v-79.358c-14.006-18.672-93.364-51.35-233.41-51.35z" />
<glyph unicode="&#xe93d;" glyph-name="wrench-nav" d="M186.728-174.313c-37.344 0-74.692 14.006-98.033 42.014-56.020 56.020-56.020 144.714 0 196.064l340.779 340.779c-4.67 28.008-9.336 51.35-9.336 74.692 0 154.050 126.042 280.093 280.093 280.093 42.014 0 88.696-9.336 130.71-32.678 14.006-4.67 23.342-18.672 23.342-32.678s-4.67-28.008-14.006-42.014l-121.373-121.373 37.344-37.344 121.373 121.373c9.336 9.336 23.342 14.006 42.014 14.006 14.006-4.67 28.008-9.336 32.678-23.342 18.672-42.014 28.008-84.028 28.008-126.042 0-154.050-126.042-280.093-280.093-280.093-23.342 0-46.682 4.67-70.022 9.336l-340.779-340.779c-28.008-28.008-65.356-42.014-102.7-42.014zM700.231 665.965c-102.7 0-186.728-84.028-186.728-186.728 0-23.342 4.67-46.682 14.006-70.022 4.67-18.672 4.67-37.344-9.336-51.35l-364.121-364.121c-18.672-18.672-18.672-46.682 0-65.356s46.682-18.672 65.356 0l364.121 364.121c14.006 14.006 32.678 18.672 51.35 9.336 23.342-9.336 46.682-14.006 70.022-14.006 102.7 0 186.728 84.028 186.728 186.728 0 4.67 0 9.336 0 18.672l-98.033-98.033c-18.672-18.672-46.682-18.672-65.356 0l-102.7 102.7c-14.006 9.336-18.672 18.672-18.672 32.678s4.67 23.342 14.006 32.678l98.033 102.7c-4.67 0-14.006 0-18.672 0z" />
<glyph unicode="&#xe93e;" glyph-name="user" d="M591.106 295.3c59.112 28.272 100.232 89.952 100.232 161.912 0 100.232-79.672 179.902-179.902 179.902s-179.902-79.672-179.902-179.902c0-71.96 41.12-131.072 100.232-161.912-84.812-20.56-177.332-120.792-177.332-233.872v-146.492c0-12.852 7.712-25.7 17.992-25.7h478.024c10.28 0 17.992 10.28 17.992 25.7v146.492c0 113.080-89.952 210.742-177.332 233.872z" />
<glyph unicode="&#xe93f;" glyph-name="cloud" d="M838.224-50.826h-648.437c-102.8 0-189.786 86.986-189.786 197.694 0 79.077 43.491 150.248 110.709 181.878 0 7.909 0 15.814 0 23.723 0 150.248 114.663 268.864 257.002 268.864 86.986 0 166.063-43.491 213.51-118.617 23.723 7.909 47.446 11.863 71.169 11.863 102.8 0 189.786-71.169 217.463-173.971 90.941-15.814 158.154-94.893 158.154-193.741 0-110.709-83.032-197.694-189.786-197.694zM367.711 542.256c-98.847 0-177.925-86.986-177.925-189.786 0-15.814 0-27.677 3.954-43.491l7.909-39.54-35.586-7.909c-51.4-11.863-86.986-59.309-86.986-114.663 0-67.217 47.446-118.617 110.709-118.617h648.437c59.309 0 110.709 51.4 110.709 118.617s-47.446 118.617-110.709 118.617h-39.54l-3.954 35.586c-7.909 79.077-71.169 138.386-142.341 138.386-23.723 0-47.446-7.909-71.169-19.768l-39.54-23.723-19.768 39.54c-23.723 67.217-86.986 106.754-154.201 106.754z" />
<glyph unicode="&#xe940;" glyph-name="users-trio" horiz-adv-x="1335" d="M1184.782 228.479c43.692 41.12 69.392 102.8 69.392 164.481 0 131.072-102.8 231.302-231.302 231.302-46.26 0-89.952-12.852-125.932-35.98-20.56 107.94-113.080 187.612-228.732 187.612-118.22 0-208.172-82.24-228.732-190.182-35.98 23.132-77.1 35.98-125.932 35.98-131.072 0-231.302-102.8-231.302-231.302 0-64.252 25.7-120.792 69.392-164.481-82.24-46.26-151.632-143.921-151.632-254.432v-156.772c0-35.98 25.7-66.82 56.54-66.82h511.434c33.412 0 59.112 30.84 61.68 66.82v87.38h77.1v-87.38c0-35.98 25.7-66.82 56.54-66.82h511.434c33.412 0 59.112 30.84 61.68 66.82v156.772c0 110.512-71.96 208.172-151.632 257.002zM547.416-175.014h-475.454v143.921c0 97.66 84.812 192.752 159.341 210.742 15.42 5.14 25.7 17.992 28.272 33.412s-5.14 30.84-20.56 38.552c-51.4 28.272-84.812 79.672-84.812 138.781 0 87.38 66.82 154.201 154.201 154.201s154.201-69.392 154.201-154.201c0-59.112-33.412-113.080-84.812-138.781-12.852-7.712-20.56-23.132-20.56-38.552s12.852-28.272 28.272-33.412c77.1-20.56 159.341-110.512 159.341-210.742v-143.921zM706.757-20.814h-77.1c-2.572 107.94-74.532 200.462-151.632 249.292 23.132 20.56 41.12 48.832 53.972 79.672 17.992 12.852 35.98 23.132 56.54 25.7 15.42 5.14 25.7 17.992 28.272 33.412s-5.14 30.84-20.56 38.552c-20.56 12.852-41.12 28.272-53.972 46.26-5.14 23.132-15.42 46.26-28.272 64.252-2.572 7.712-2.572 17.992-2.572 25.7 0 87.38 66.82 154.201 154.201 154.201s154.201-69.392 154.201-154.201c0-59.112-33.412-113.080-84.812-138.781-12.852-7.712-20.56-23.132-20.56-38.552s12.852-28.272 28.272-33.412c23.132-5.14 48.832-20.56 71.96-38.552 12.852-25.7 28.272-48.832 48.832-66.82-84.812-46.26-154.201-141.352-156.772-246.722zM1254.172-175.014h-475.454v143.921c0 97.66 84.812 192.752 159.341 210.742 15.42 5.14 25.7 17.992 28.272 33.412s-5.14 30.84-20.56 38.552c-51.4 28.272-84.812 79.672-84.812 138.781 0 87.38 66.82 154.201 154.201 154.201s154.201-69.392 154.201-154.201c0-59.112-33.412-113.080-84.812-138.781-12.852-7.712-20.56-23.132-20.56-38.552s12.852-28.272 28.272-33.412c77.1-20.56 159.341-110.512 159.341-210.742v-143.921z" />
<glyph unicode="&#xe941;" glyph-name="nav-chat" d="M731.468-189.212c-7.909 0-15.814 3.954-23.723 7.909l-280.726 209.555h-276.771c-59.309 0-110.709 55.354-110.709 110.709v347.942c0 59.309 55.354 114.663 110.709 114.663h723.561c59.309 0 114.663-55.354 114.663-114.663v-347.942c0-59.309-55.354-110.709-110.709-110.709h-106.754v-177.925c0-15.814-7.909-27.677-23.723-35.586-3.954-3.954-7.909-3.954-15.814-3.954zM150.248 522.487c-11.863 0-31.632-19.768-31.632-35.586v-347.942c0-15.814 19.768-31.632 31.632-31.632h288.634c7.909 0 15.814-3.954 23.723-7.909l225.371-170.018v138.386c0 23.723 15.814 39.54 39.54 39.54h146.294c15.814 0 31.632 19.768 31.632 31.632v347.942c3.954 15.814-15.814 35.586-27.677 35.586h-727.514z" />
<glyph unicode="&#xe94c;" glyph-name="map2" d="M673.973 581.354l-320.939 128.375-353.033-128.375v-770.254l353.033 128.375 320.939-128.375 353.033 128.375v770.254l-353.033-128.375zM385.127 627.76l256.751-102.7v-631.988l-256.751 102.698v631.99zM64.189 536.395l256.751 93.363v-633.655l-256.751-93.361v633.653zM962.817-15.565l-256.751-93.365v633.655l256.751 93.363v-633.653z" />
<glyph unicode="&#xe956;" glyph-name="eye-closed" d="M1020.298 277.31c-41.12 77.1-100.232 143.921-172.192 192.752l-128.5-128.5c7.712-23.132 12.852-48.832 12.852-77.1 0-120.792-97.66-218.452-218.452-218.452-28.272 0-53.972 5.14-77.1 12.852l-82.24-82.24c51.4-12.852 105.372-20.56 159.341-20.56 215.882 0 408.634 113.080 506.294 292.983l7.712 12.852-7.712 15.42zM179.902 56.287l128.5 128.5c-7.712 23.132-12.852 48.832-12.852 77.1 0 120.792 97.66 218.452 218.452 218.452 28.272 0 53.972-5.14 77.1-12.852l82.24 82.24c-51.4 12.852-105.372 20.56-159.341 20.56-218.452 0-411.204-113.080-506.294-292.983l-7.712-15.42 7.712-15.42c41.12-77.1 100.232-141.352 172.192-190.182zM128.5-162.166c-10.28 0-20.56 2.572-28.272 10.28-15.42 15.42-15.42 38.552 0 53.972l771.007 771.007c15.42 15.42 38.552 15.42 53.972 0s15.42-38.552 0-53.972l-771.007-771.007c-5.14-7.712-15.42-10.28-25.7-10.28z" />
<glyph unicode="&#xe957;" glyph-name="eye-open" d="M1020.298 277.31c-97.66 179.902-290.413 292.983-506.294 292.983-218.452 0-411.204-113.080-506.294-292.983l-7.712-15.42 7.712-15.42c97.66-179.902 290.413-292.983 506.294-292.983s408.634 113.080 506.294 292.983l7.712 15.42-7.712 15.42zM514.004 43.437c-120.792 0-218.452 97.66-218.452 218.452s97.66 218.452 218.452 218.452 218.452-97.66 218.452-218.452-97.66-218.452-218.452-218.452zM552.556 300.44c-25.7 25.7-25.7 66.82 0 89.952 25.7 25.7 66.82 25.7 89.952 0s25.7-66.82 0-89.952c-25.7-25.7-64.252-25.7-89.952 0z" />
<glyph unicode="&#xe965;" glyph-name="book-pencil" horiz-adv-x="908" d="M895.781 468.088l-118.385 114.439c-15.784 15.784-39.462 15.784-55.246 0l-394.616-394.616c-7.893-7.893-11.839-15.784-11.839-27.623v-157.846h157.846c11.839 0 19.73 3.946 27.623 11.839l394.616 398.563c7.893 3.946 11.839 15.784 11.839 27.623 0 7.893-3.946 19.73-11.839 27.623zM457.756 81.364h-63.139v63.139l355.155 355.155 63.139-63.139-355.155-355.155zM730.041 148.449l-51.3-51.3c-3.946-3.946-7.893-11.839-7.893-19.73v-193.363c0-23.677-15.784-39.462-39.462-39.462h-473.539c-23.677 0-39.462 15.784-39.462 39.462v118.385c23.677 0 39.462 15.784 39.462 39.462s-15.784 39.462-39.462 39.462v78.923c23.677 0 39.462 15.784 39.462 39.462s-15.784 39.462-39.462 39.462v78.923c23.677 0 39.462 15.784 39.462 39.462s-15.784 39.462-39.462 39.462v78.923c23.677 0 39.462 15.784 39.462 39.462s-15.784 39.462-39.462 39.462v118.385c0 23.677 15.784 39.462 39.462 39.462h473.539c23.677 0 39.462-15.784 39.462-39.462v-31.57c23.677 19.73 51.3 31.57 78.923 31.57 0 67.085-51.3 118.385-118.385 118.385h-473.539c-67.085 0-118.385-51.3-118.385-118.385v-118.385c-23.677 0-39.462-15.784-39.462-39.462s15.784-39.462 39.462-39.462v-78.923c-23.677 0-39.462-15.784-39.462-39.462s15.784-39.462 39.462-39.462v-78.923c-23.677 0-39.462-15.784-39.462-39.462s15.784-39.462 39.462-39.462v-78.923c-23.677 0-39.462-15.784-39.462-39.462s15.784-39.462 39.462-39.462v-118.385c0-67.085 51.3-118.385 118.385-118.385h473.539c67.085 0 118.385 51.3 118.385 118.385v256.5c0 11.839-11.839 15.784-19.73 7.893z" />
<glyph unicode="&#xe9da;" glyph-name="heart" d="M757.405 709.73c-107.945 0-200.846-87.812-243.878-179.525-43.064 91.712-135.977 179.525-243.93 179.525-148.817 0-269.597-120.794-269.597-269.621 0-302.732 305.394-382.112 513.525-681.412 196.73 297.446 513.48 388.343 513.48 681.412 0 148.827-120.784 269.621-269.601 269.621z" />
<glyph unicode="&#xea2e;" glyph-name="loop2" d="M892.292 607.11c-93.884 102.516-228.823 166.809-378.789 166.809-283.6 0-513.502-229.903-513.502-513.502h96.282c0 230.425 186.796 417.221 417.221 417.221 123.38 0 234.228-53.574 310.605-138.711l-150.135-150.133h353.033v353.033l-134.714-134.714zM930.724 260.415c0-230.425-186.796-417.221-417.221-417.221-123.38 0-234.228 53.574-310.603 138.711l150.133 150.133h-353.033v-353.033l134.714 134.714c93.884-102.516 228.823-166.809 378.789-166.809 283.6 0 513.502 229.903 513.502 513.502h-96.282z" />
<glyph unicode="&#xeab0;" glyph-name="github" d="M513.51 761.238c-283.568 0-513.51-229.891-513.51-513.5 0-226.878 147.135-419.36 351.164-487.262 25.661-4.753 35.094 11.143 35.094 24.704 0 12.24-0.48 52.695-0.699 95.603-142.866-31.066-173.011 60.587-173.011 60.587-23.351 59.35-57.016 75.135-57.016 75.135-46.587 31.871 3.519 31.214 3.519 31.214 51.55-3.622 78.707-52.922 78.707-52.922 45.807-78.501 120.127-55.802 149.442-42.684 4.6 33.182 17.903 55.843 32.602 68.665-114.063 12.981-233.96 57.018-233.96 253.775 0 56.063 20.064 101.871 52.916 137.831-5.331 12.939-22.92 65.164 4.967 135.898 0 0 43.132 13.791 141.254-52.643 40.956 11.381 84.885 17.087 128.53 17.285 43.631-0.198 87.592-5.904 128.632-17.285 98.022 66.439 141.069 52.643 141.069 52.643 27.953-70.735 10.38-122.96 5.051-135.898 32.916-35.961 52.85-81.772 52.85-137.831 0-197.231-120.129-240.655-234.477-253.365 18.418-15.938 34.826-47.184 34.826-95.091 0-68.709-0.599-124.007-0.599-140.92 0-13.667 9.249-29.681 35.274-24.638 203.919 67.974 350.869 260.388 350.869 487.194 0 283.61-229.907 513.5-513.494 513.5z" />
<glyph unicode="&#xeabd;" glyph-name="tux" d="M569.322 34.839c-82.184-38.229-158.623-37.827-209.955-34.119-61.232 4.422-110.482 21.187-132.129 35.837-13.339 9.033-31.477 5.537-40.509-7.806-9.031-13.341-5.535-31.479 7.806-40.509 34.8-23.555 96.35-41.074 160.633-45.715 10.899-0.787 22.864-1.281 35.751-1.281 55.947 0 126.998 5.331 203.014 40.69 14.606 6.799 20.938 24.146 14.146 38.754-6.797 14.608-24.148 20.932-38.756 14.15zM893.564 78.065c2.795 253.429 28.846 732.349-456.306 693.642-479.002-38.556-351.994-544.562-359.133-714.040-6.326-89.648-36.083-199.231-78.124-310.755h129.478c13.305 47.26 23.093 93.996 27.313 138.555 7.806-5.443 16.156-10.704 25.066-15.745 14.5-8.542 26.962-19.901 40.157-31.927 30.834-28.099 65.782-59.949 134.105-63.938 4.584-0.262 9.201-0.394 13.715-0.394 69.097 0 116.355 30.243 154.33 54.541 18.194 11.645 33.917 21.703 48.707 26.53 42.033 13.159 78.763 34.398 106.216 61.432 4.288 4.22 8.266 8.562 11.998 12.987 15.291-56.043 36.223-119.106 59.462-182.037h276.459c-66.369 102.524-134.831 202.968-133.442 331.153zM124.474 215.933c0 0.016 0 0.030-0.002 0.046-4.761 82.705 34.812 152.278 88.384 155.391 53.568 3.115 100.854-61.408 105.613-144.114 0-0.014 0.004-0.030 0.004-0.044 0.256-4.458 0.368-8.873 0.37-13.245-16.975-4.268-32.286-10.466-46.007-17.681-0.052 0.615-0.092 1.219-0.152 1.836 0 0.008 0 0.018 0 0.026-4.582 46.948-29.659 82.4-56.017 79.189-26.358-3.213-44.009-43.879-39.427-90.825 0-0.010 0.004-0.018 0.004-0.026 1.998-20.468 7.892-38.75 16.090-52.597-2.040-1.61-7.808-5.83-14.448-10.686-4.985-3.646-11.053-8.082-18.368-13.469-19.939 26.172-33.605 63.766-36.045 106.202zM667.213 11.509c-1.906-43.715-59.082-84.841-111.909-101.341l-0.296-0.096c-21.963-7.123-41.55-19.657-62.287-32.926-34.834-22.29-70.853-45.34-122.882-45.34-3.413 0-6.915 0.104-10.356 0.296-47.655 2.787-69.946 23.101-98.168 48.82-14.887 13.565-30.28 27.595-50.123 39.238l-0.424 0.244c-42.832 24.176-69.416 54.241-71.115 80.429-0.845 13.019 4.953 24.29 17.233 33.499 26.714 20.032 44.609 33.118 56.449 41.781 13.149 9.615 17.119 12.516 20.060 15.309 2.102 1.992 4.376 4.2 6.825 6.58 24.518 23.843 65.552 63.748 128.526 63.748 38.518 0 81.135-14.842 126.54-44.031 21.387-13.92 39.999-20.346 63.566-28.484 16.204-5.593 34.57-11.938 59.166-22.47l0.396-0.164c22.946-9.431 50.043-26.642 48.804-55.094zM654.562 114.181c-4.412 2.22-9.001 4.332-13.783 6.304-22.172 9.483-39.949 15.922-54.693 21.061 8.14 15.942 13.199 35.825 13.663 57.41 0 0.010 0 0.022 0 0.030 1.129 52.527-25.363 95.175-59.17 95.255-33.809 0.078-62.133-42.437-63.262-94.965 0-0.010 0-0.018 0-0.028-0.038-1.72-0.042-3.425-0.020-5.125-20.822 9.579-41.3 16.538-61.346 20.82-0.092 1.974-0.204 3.944-0.244 5.938 0 0.016 0 0.036 0 0.050-1.944 95.691 56.767 174.902 131.138 176.92 74.368 2.020 136.227-73.916 138.177-169.606 0-0.018 0-0.038 0-0.052 0.877-43.272-10.69-83.109-30.46-114.011z" />
<glyph unicode="&#xeabe;" glyph-name="appleinc" d="M793.821 228.229c-1.297 130.063 106.068 192.44 110.866 195.539-60.329 88.278-154.302 100.372-187.791 101.769-79.976 8.098-156.052-47.086-196.642-47.086-40.486 0-103.121 45.889-169.447 44.684-87.171-1.295-167.548-50.685-212.433-128.757-90.568-157.157-23.195-389.981 65.080-517.44 43.134-62.387 94.568-132.463 162.1-129.961 65.032 2.597 89.624 42.081 168.248 42.081s100.722-42.081 169.546-40.79c69.978 1.299 114.317 63.584 157.151 126.165 49.534 72.381 69.93 142.455 71.131 146.053-1.554 0.709-136.459 52.389-137.811 207.742zM664.507 609.916c35.843 43.484 60.037 103.815 53.436 164.002-51.628-2.102-114.212-34.392-151.253-77.778-33.238-38.49-62.331-99.918-54.533-158.901 57.634-4.496 116.47 29.291 152.35 72.677z" />
<glyph unicode="&#xeac2;" glyph-name="windows8" d="M0.35 260.415l-0.35 312.99 385.127 52.297v-365.287zM449.315 635.029l513.374 74.701v-449.315h-513.374zM962.815 196.227l-0.126-449.315-513.374 72.227v377.088zM385.127-172.689l-384.814 52.748-0.020 316.167h384.834z" />
</font>
</defs>
</svg>
