<?xml version="1.0" encoding="utf-8"?>
<svg id="join-diagram" version="1.1" xmlns="http://www.w3.org/2000/svg" xmlns:xlink="http://www.w3.org/1999/xlink" x="0px" y="0px"
	 viewBox="0 0 98 64" xml:space="preserve">
<path id="left" d="M37.9,31.8c0-9.1,4.3-17.1,11-22.2c-4.7-3.6-10.6-5.8-17-5.8c-15.5,0-28,12.5-28,28c0,15.5,12.5,28,28,28
		c6.4,0,12.3-2.1,17-5.8C42.2,48.9,37.9,40.8,37.9,31.8z"/>
<path id="center" d="M59.9,31.8c0-9.1-4.3-17.1-11-22.2c-6.7,5.1-11,13.2-11,22.2c0,9.1,4.3,17.1,11,22.2
		C55.5,48.9,59.9,40.8,59.9,31.8z"/>
<path id="right" d="M65.9,3.8c-6.4,0-12.3,2.1-17,5.8c6.7,5.1,11,13.2,11,22.2c0,9.1-4.3,17.1-11,22.2c4.7,3.6,10.6,5.8,17,5.8
		c15.5,0,28-12.5,28-28C93.9,16.3,81.3,3.8,65.9,3.8z"/>
</svg>
