<svg version="1.1" id="quix-connector-plug" xmlns="http://www.w3.org/2000/svg" xmlns:xlink="http://www.w3.org/1999/xlink" x="0px" y="0px"
	 viewBox="0 0 20 100" style="enable-background:new 0 0 20 100;" xml:space="preserve">
<style type="text/css">
	.st0{fill:#D4D7DD;}
</style>
<path  d="M18.3,29.9h-0.8v-9.6c0-1.4-1.1-2.4-2.4-2.4h-2.9v-4.2c0-0.4-0.3-0.7-0.7-0.7h-0.3V-0.1H8.8v12.9H8.6
	c-0.4,0-0.7,0.3-0.7,0.7v4.2H5c-1.4,0-2.4,1.1-2.4,2.4v9.6H1.7c-1,0-1.7,0.8-1.7,1.7v0.2c0,1,0.8,1.7,1.7,1.7h2.8v7.3
	c0,0.6,0.4,1,1,1s1-0.4,1-1v-7.3h7v7.3c0,0.6,0.4,1,1,1h0c0.6,0,1-0.4,1-1v-7.3h2.8c1,0,1.7-0.8,1.7-1.7v-0.2
	C20,30.6,19.2,29.9,18.3,29.9z"/>
<path d="M18.3,60.3H1.7C0.8,60.3,0,61,0,62v0.2c0,1,0.8,1.7,1.7,1.7h0.8v9.6C2.6,74.9,3.7,76,5,76h2.9v4.2
	c0,0.4,0.3,0.7,0.7,0.7h0.3V100h2.3V80.9h0.3c0.4,0,0.7-0.3,0.7-0.7V76H15c1.4,0,2.4-1.1,2.4-2.4V64h0.8c1,0,1.7-0.8,1.7-1.7V62
	C20,61,19.2,60.3,18.3,60.3z"/>
</svg>