<svg width="100%" height="100%" viewBox="0 0 58 48" fill="none" xmlns="http://www.w3.org/2000/svg">
<path fill-rule="evenodd" clip-rule="evenodd" d="M23.8603 2.69724C20.264 -0.89908 14.4332 -0.89908 10.8369 2.69724L2.69724 10.8369C-0.899084 14.4332 -0.899078 20.264 2.69724 23.8603L10.8369 32C14.4332 35.5963 20.264 35.5963 23.8603 32L40.1396 15.7207L41.7672 17.3482L24.6739 34.4415C22.2222 36.8932 18.7321 37.6735 15.6193 36.7824L25.4883 46.6514C27.2865 48.4496 30.2018 48.4495 32 46.6514L54.791 23.8603C58.3873 20.264 58.3873 14.4332 54.791 10.8369L46.6514 2.69724C43.055 -0.89908 37.2242 -0.89908 33.6279 2.69724L17.3486 18.9765L15.7207 17.3486L27.1162 5.9531L23.8603 2.69724ZM18.9765 4.32517C20.1004 5.44904 20.1004 7.27115 18.9765 8.395C17.8527 9.51885 16.0306 9.51887 14.9067 8.395C13.7829 7.27113 13.7829 5.44902 14.9067 4.32517C16.0306 3.20132 17.8527 3.2013 18.9765 4.32517Z" fill="#F5333F"></path>
</svg>