<svg version="1.1" xmlns="http://www.w3.org/2000/svg" xmlns:xlink="http://www.w3.org/1999/xlink" x="0px" y="0px"
	 viewBox="0 0 139 50" style="enable-background:new 0 0 139 50;" xml:space="preserve">
<style type="text/css">
	.st0{clip-path:url(#SVGID_00000181075645780536720220000009196893729404315553_);}
	.st1{fill:#0064FF;}
	.st2{fill:#BC2EFF;}
	.st3{fill:#FF7828;}
	.st4{fill-rule:evenodd;clip-rule:evenodd;fill:#FFFFFF;}
</style>
<g>
	<defs>
		<rect id="SVGID_1_" width="138.6" height="50"/>
	</defs>
	<clipPath id="SVGID_00000012462499044799638470000009725415952126080949_">
		<use xlink:href="#SVGID_1_"  style="overflow:visible;"/>
	</clipPath>
	<g style="clip-path:url(#SVGID_00000012462499044799638470000009725415952126080949_);">
		<path class="st1" d="M29.5,20.5h-9.1v9.1h9.1V20.5z"/>
		<path class="st2" d="M38.4,30.7H32c-0.8,0-1.4,0.6-1.4,1.4v6.4c0,0.8,0.6,1.4,1.4,1.4h6.4c0.8,0,1.4-0.6,1.4-1.4V32
			C39.8,31.3,39.2,30.7,38.4,30.7z"/>
		<path class="st3" d="M44.8,50c2.9,0,5.2-2.3,5.2-5.2c0-2.9-2.3-5.2-5.2-5.2c-2.9,0-5.2,2.3-5.2,5.2C39.5,47.7,41.9,50,44.8,50z"/>
		<path class="st4" d="M0,0.9v48.2C0,49.6,0.4,50,0.9,50h27.7c0.5,0,0.9-0.4,0.9-0.9v-7.3c0-0.5-0.4-0.9-0.9-0.9H9.1V9.1h31.8v19.6
			c0,0.5,0.4,0.9,0.9,0.9h7.3c0.5,0,0.9-0.4,0.9-0.9V0.9C50,0.4,49.6,0,49.1,0H0.9C0.4,0,0,0.4,0,0.9z M101.3,20.5h-7.3
			c-0.5,0-0.9,0.4-0.9,0.9v27.7c0,0.5,0.4,0.9,0.9,0.9h7.3c0.5,0,0.9-0.4,0.9-0.9V21.4C102.3,20.9,101.9,20.5,101.3,20.5z M94.1,4.5
			h7.3c0.5,0,0.9,0.4,0.9,0.9v7.3c0,0.5-0.4,0.9-0.9,0.9h-7.3c-0.5,0-0.9-0.4-0.9-0.9V5.4C93.2,4.9,93.6,4.5,94.1,4.5z M77.3,21.4
			v19.5H65.9V21.4c0-0.5-0.4-0.9-0.9-0.9h-7.3c-0.5,0-0.9,0.4-0.9,0.9l0,27.7c0,0.5,0.4,0.9,0.9,0.9h27.7c0.5,0,0.9-0.4,0.9-0.9
			V21.4c0-0.5-0.4-0.9-0.9-0.9h-7.3C77.7,20.5,77.3,20.9,77.3,21.4z M130.4,20.5h7.3c0.5,0,0.9,0.4,0.9,0.9v8.2l-8.5,5.7l8.5,5.7
			v8.2c0,0.5-0.4,0.9-0.9,0.9h-7.3c-0.5,0-0.9-0.4-0.9-0.9v-5.9l-5.7-3.8l-5.6,3.7v6c0,0.5-0.4,0.9-0.9,0.9H110
			c-0.5,0-0.9-0.4-0.9-0.9v-8.2l8.5-5.7l-8.5-5.7v-8.2c0-0.5,0.4-0.9,0.9-0.9h7.3c0.5,0,0.9,0.4,0.9,0.9v5.9l5.7,3.8l5.7-3.8v-5.9
			C129.5,20.9,129.9,20.5,130.4,20.5z"/>
	</g>
</g>
</svg>
