<svg version="1.1" id="book" xmlns="http://www.w3.org/2000/svg" xmlns:xlink="http://www.w3.org/1999/xlink" x="0px" y="0px"
	 viewBox="0 0 77 74" style="enable-background:new 0 0 77 74;" xml:space="preserve">
<path class="c1" d="M76.9,0.4L76.9,0.4L38.5,15.5L0.1,0.4l0,0L0,0.4v58h0l0,0l38.5,15.1L77,58.5l0,0h0L76.9,0.4L76.9,0.4z M5.7,54
	V9.3l32.8,12.9L71.3,9.4V54L38.5,66.9L5.7,54z"/>
<polygon class="c2" points="5.7,54 5.7,9.3 38.5,22.2 71.3,9.4 71.3,54 38.5,66.9 "/>
<polygon class="c1" points="48.9,25.1 65.4,18.5 65.4,24.5 48.9,31.1 "/>
<polygon class="c1" points="48.9,37.5 65.4,31 65.4,36.9 48.9,43.5 "/>
<polygon class="c1" points="48.9,50 65.4,43.4 65.4,49.3 48.9,55.9 "/>
<polygon class="magenta" points="48.9,55.9 41.9,58.8 41.9,20.9 48.9,18.2 "/>
<polygon class="c1" points="35.7,28.1 5.7,16.2 5.7,22.1 35.7,34 "/>
<polygon class="c1" points="35.7,40.5 11.6,31 11.6,36.9 35.7,46.5 "/>
<polygon class="c1" points="35.7,53 11.6,43.4 11.6,49.3 35.7,58.9 "/>
</svg>
