<svg version="1.1" id="hatch" xmlns="http://www.w3.org/2000/svg" xmlns:xlink="http://www.w3.org/1999/xlink" x="0px" y="0px"
	 viewBox="0 0 73 74" style="enable-background:new 0 0 73 74;" xml:space="preserve">
<path class="c1" d="M36.5,11.1L47.2,0.4l4.3,4.3L40.8,15.5l12.9,12.9l-4.3,4.3l-28-28l4.3-4.3L36.5,11.1z"/>
<path class="magenta" d="M62.3,37l10.7,10.7L68.7,52L58,41.3L45.1,54.3l-4.3-4.3L68.7,22l4.3,4.3L62.3,37z"/>
<path class="c1" d="M36.5,62.9L25.8,73.6l-4.3-4.3l10.7-10.7L19.2,45.6l4.3-4.3l27.9,27.9l-4.3,4.3L36.5,62.9z"/>
<path class="magenta" d="M10.6,37L-0.1,26.3L4.2,22l10.7,10.7l12.9-12.9l4.3,4.3l-28,28l-4.3-4.3L10.6,37z"/>
</svg>
