<svg version="1.1" id="influxdbu" xmlns="http://www.w3.org/2000/svg" xmlns:xlink="http://www.w3.org/1999/xlink" x="0px" y="0px"
	 viewBox="0 0 77 74" style="enable-background:new 0 0 77 74;" xml:space="preserve">
<path class="magenta" d="M77,26.8v20.4c-0.1,0.7-0.1,1.5-0.2,2.2c-0.5,2.5-1.7,4.5-3.5,6.1c-1.9,1.8-4.1,2.8-6.6,3
	c-1.5,0.1-2.9,0-4.3,0.1v-6.6l3.1,0c0.4,0,0.7-0.1,1.1-0.1c2.3-0.5,3.8-2.4,3.8-4.8V26.8c0-0.4,0-0.7-0.1-1.1
	c-0.5-2.2-2.4-3.6-4.8-3.6H25.3v-6.6h39.5c0.8,0,1.7,0,2.5,0.1c3.9,0.7,6.7,2.8,8.5,6.3C76.7,23.4,77,25.1,77,26.8z"/>
<path class="magenta" d="M9.8,52.1h43v6.6H0.9c-0.1,0-0.1,0-0.3,0c-0.3,0-0.6-0.2-0.6-0.5c0-0.4,0.3-0.6,0.6-0.7
	c1.6-0.4,2.5-1.6,2.6-3.3V20c0-1.7-0.8-2.9-2.7-3.4C0.3,16.5,0,16.4,0,16.2c0-0.3,0.1-0.7,0.7-0.7h15V22H9.8V52.1z"/>
<path class="c1" d="M62.4,15.1v0.3h-6.6c0-0.1,0-0.1,0-0.2V12c0-0.6-0.1-1.3-0.3-1.9c-0.6-1.6-2.3-3-4.8-3H25.3V22v11.7h25.5
	c0.3,0,0.4,0,1.1-0.1c2.1-0.3,3.8-2.1,3.9-4.3c0.1-1.5,0.1-3,0.1-4.5v-0.3h6.6V29c0,1.6-0.3,3.1-1,4.6c-0.6,1.3-1.4,2.4-2.4,3.3
	l0.1,0.1c2.1,2.2,3.2,4.7,3.3,7.6c0.1,2.4,0,4.8,0,7.2v0.3v6.6v1.7c0,1.1,0,2.2-0.1,3.3c-0.2,2.3-1.2,4.3-2.7,6
	c-2.3,2.5-5.3,3.8-8.8,3.8H16c-0.4,0-0.6-0.2-0.6-0.4c0-0.2,0.1-0.5,0.4-0.6c0.2-0.1,0.4-0.1,0.6-0.2c0.8-0.4,1.6-0.8,1.9-1.7
	c0.3-0.6,0.3-1.1,0.3-1.7v-7.8h6.7V67h25.6c0.5,0,1.1-0.1,1.5-0.2c2.1-0.6,3.5-2.5,3.5-4.8V45.2c0,0,0-0.2-0.1-0.8
	c-0.3-2.5-2.3-4.2-4.9-4.2H25.3v11.9h-6.7V4.8c-0.1-1.3-0.6-2.2-1.8-2.7c-0.3-0.1-0.9-0.3-1.1-0.4c-0.3-0.1-0.5-0.4-0.4-0.7
	c0.1-0.4,0.6-0.4,0.5-0.4h35.4l0.1,0.1c3.2,0.1,5.8,1.4,7.9,3.5c1.9,2,2.9,4.3,3.1,6.9C62.5,12.4,62.4,13.7,62.4,15.1z"/>
</svg>
